{
.appVersion = "1350";
date = "2021-03-08 07:47:33 +0000";
familyName = "Westwood Sans";
fontMaster = (
{
ascender = 800;
capHeight = 735;
descender = -230;
id = "EC678C9A-BAF7-4529-BA66-EDFBF106CBF7";
xHeight = 500;
},
{
ascender = 800;
capHeight = 735;
descender = -230;
id = "5B189D8C-80C2-4E76-949E-52A655B49706";
weight = Bold;
weightValue = 200;
xHeight = 500;
}
);
glyphs = (
{
glyphname = A;
lastChange = "2021-05-04 23:30:19 +0000";
layers = (
{
layerId = "EC678C9A-BAF7-4529-BA66-EDFBF106CBF7";
paths = (
{
closed = 1;
nodes = (
"442 735 LINE",
"165 0 LINE",
"50 0 LINE",
"327 735 LINE"
);
},
{
closed = 1;
nodes = (
"723 0 LINE",
"608 0 LINE",
"337 735 LINE",
"452 735 LINE"
);
},
{
closed = 1;
nodes = (
"600 226 LINE",
"600 116 LINE",
"169 116 LINE",
"169 226 LINE"
);
}
);
width = 769;
},
{
layerId = "5B189D8C-80C2-4E76-949E-52A655B49706";
paths = (
{
closed = 1;
nodes = (
"481 735 LINE",
"465 648 LINE",
"222 0 LINE",
"80 0 LINE",
"356 735 LINE"
);
},
{
closed = 1;
nodes = (
"769 0 LINE",
"627 0 LINE",
"384 648 LINE",
"368 735 LINE",
"493 735 LINE"
);
},
{
closed = 1;
nodes = (
"637 242 LINE",
"637 124 LINE",
"205 124 LINE",
"205 242 LINE"
);
}
);
width = 869;
}
);
unicode = 0041;
},
{
glyphname = B;
lastChange = "2021-05-04 23:41:26 +0000";
layers = (
{
layerId = "EC678C9A-BAF7-4529-BA66-EDFBF106CBF7";
paths = (
{
closed = 1;
nodes = (
"40 735 LINE",
"40 0 LINE",
"155 0 LINE",
"155 436 LINE",
"155 628 LINE",
"155 735 LINE"
);
},
{
closed = 1;
nodes = (
"78 628 LINE",
"331 628 LINE",
"331 735 LINE",
"78 735 LINE"
);
},
{
closed = 1;
nodes = (
"78 329 LINE",
"331 329 LINE",
"331 436 LINE",
"155 436 LINE",
"78 436 LINE"
);
},
{
closed = 1;
nodes = (
"40 0 LINE",
"354 0 LINE",
"354 107 LINE",
"163 107 LINE",
"155 107 LINE",
"40 107 LINE"
);
},
{
closed = 1;
nodes = (
"209 735 OFFCURVE",
"117 659 OFFCURVE",
"117 528 CURVE",
"117 406 OFFCURVE",
"209 345 OFFCURVE",
"323 345 CURVE",
"438 345 OFFCURVE",
"538 429 OFFCURVE",
"538 544 CURVE",
"538 651 OFFCURVE",
"438 735 OFFCURVE",
"323 735 CURVE"
);
},
{
closed = 1;
nodes = (
"155 628 LINE",
"331 628 LINE",
"331 628 LINE",
"331 628 OFFCURVE",
"331 628 OFFCURVE",
"331 628 CURVE",
"392 628 OFFCURVE",
"423 582 OFFCURVE",
"423 528 CURVE",
"423 475 OFFCURVE",
"392 436 OFFCURVE",
"331 436 CURVE",
"331 436 OFFCURVE",
"331 436 OFFCURVE",
"331 436 CURVE",
"331 436 LINE",
"331 436 LINE",
"155 436 LINE"
);
},
{
closed = 1;
nodes = (
"155 306 LINE",
"140 276 OFFCURVE",
"132 245 OFFCURVE",
"132 214 CURVE",
"132 184 OFFCURVE",
"140 153 OFFCURVE",
"155 123 CURVE"
);
},
{
closed = 1;
nodes = (
"155 107 LINE",
"163 107 LINE",
"201 38 OFFCURVE",
"270 0 OFFCURVE",
"354 0 CURVE SMOOTH",
"476 0 OFFCURVE",
"576 84 OFFCURVE",
"576 207 CURVE SMOOTH",
"576 322 OFFCURVE",
"476 414 OFFCURVE",
"354 414 CURVE SMOOTH",
"277 414 OFFCURVE",
"209 383 OFFCURVE",
"170 329 CURVE",
"354 329 LINE SMOOTH",
"354 329 OFFCURVE",
"354 329 OFFCURVE",
"362 329 CURVE SMOOTH",
"423 329 OFFCURVE",
"461 276 OFFCURVE",
"461 214 CURVE SMOOTH",
"461 161 OFFCURVE",
"423 107 OFFCURVE",
"362 107 CURVE SMOOTH",
"354 107 OFFCURVE",
"354 107 OFFCURVE",
"354 107 CURVE SMOOTH",
"163 107 LINE",
"155 107 LINE"
);
}
);
width = 606;
},
{
layerId = "5B189D8C-80C2-4E76-949E-52A655B49706";
paths = (
{
closed = 1;
nodes = (
"80 735 LINE",
"80 0 LINE",
"213 0 LINE",
"213 329 LINE",
"213 445 LINE",
"213 611 LINE",
"213 735 LINE"
);
},
{
closed = 1;
nodes = (
"111 636 LINE",
"358 636 LINE",
"358 735 LINE",
"111 735 LINE"
);
},
{
closed = 1;
nodes = (
"80 0 LINE",
"374 0 LINE",
"374 107 LINE",
"80 107 LINE"
);
},
{
closed = 1;
nodes = (
"111 329 LINE",
"213 321 LINE",
"343 321 LINE",
"374 321 LINE",
"397 329 LINE",
"411 329 LINE",
"411 445 LINE",
"366 445 LINE",
"358 445 LINE",
"350 445 LINE",
"213 445 LINE",
"111 445 LINE"
);
},
{
closed = 1;
nodes = (
"251 735 OFFCURVE",
"154 659 OFFCURVE",
"154 536 CURVE",
"154 414 OFFCURVE",
"251 352 OFFCURVE",
"366 352 CURVE",
"481 352 OFFCURVE",
"573 429 OFFCURVE",
"573 544 CURVE",
"573 659 OFFCURVE",
"481 735 OFFCURVE",
"366 735 CURVE"
);
},
{
closed = 1;
nodes = (
"403 611 OFFCURVE",
"439 571 OFFCURVE",
"439 524 CURVE",
"439 493 OFFCURVE",
"403 451 OFFCURVE",
"366 445 CURVE",
"358 445 LINE",
"350 445 LINE",
"213 445 LINE",
"213 611 LINE",
"358 611 LINE",
"358 611 LINE"
);
},
{
closed = 1;
nodes = (
"154 91 OFFCURVE",
"251 0 OFFCURVE",
"381 0 CURVE",
"504 0 OFFCURVE",
"603 91 OFFCURVE",
"603 207 CURVE",
"603 329 OFFCURVE",
"504 414 OFFCURVE",
"381 414 CURVE",
"251 414 OFFCURVE",
"154 352 OFFCURVE",
"154 222 CURVE"
);
},
{
closed = 1;
nodes = (
"374 120 OFFCURVE",
"374 120 OFFCURVE",
"366 120 CURVE SMOOTH",
"213 120 LINE",
"213 321 LINE",
"343 321 LINE",
"374 321 LINE",
"387 321 LINE",
"431 313 OFFCURVE",
"470 262 OFFCURVE",
"470 226 CURVE SMOOTH",
"470 162 OFFCURVE",
"431 122 OFFCURVE",
"374 120 CURVE SMOOTH"
);
}
);
width = 705;
}
);
unicode = 0042;
},
{
glyphname = C;
lastChange = "2021-04-25 07:23:53 +0000";
layers = (
{
layerId = "EC678C9A-BAF7-4529-BA66-EDFBF106CBF7";
paths = (
{
closed = 1;
nodes = (
"181 0 OFFCURVE",
"20 161 OFFCURVE",
"20 368 CURVE",
"20 574 OFFCURVE",
"188 735 OFFCURVE",
"380 735 CURVE",
"380 620 LINE",
"242 620 OFFCURVE",
"137 513 OFFCURVE",
"137 368 CURVE",
"137 222 OFFCURVE",
"242 115 OFFCURVE",
"380 115 CURVE",
"380 0 LINE"
);
},
{
closed = 1;
nodes = (
"518 0 OFFCURVE",
"625 54 OFFCURVE",
"686 161 CURVE",
"579 199 LINE",
"533 145 OFFCURVE",
"464 115 OFFCURVE",
"380 115 CURVE",
"380 0 LINE"
);
},
{
closed = 1;
nodes = (
"525 590 OFFCURVE",
"456 620 OFFCURVE",
"380 620 CURVE",
"380 735 LINE",
"510 735 OFFCURVE",
"617 681 OFFCURVE",
"678 582 CURVE",
"579 536 LINE"
);
}
);
width = 716;
},
{
layerId = "5B189D8C-80C2-4E76-949E-52A655B49706";
paths = (
{
closed = 1;
nodes = (
"239 0 OFFCURVE",
"80 159 OFFCURVE",
"80 369 CURVE",
"80 578 OFFCURVE",
"247 735 OFFCURVE",
"445 735 CURVE",
"445 593 LINE",
"324 593 OFFCURVE",
"222 497 OFFCURVE",
"222 368 CURVE",
"222 238 OFFCURVE",
"318 141 OFFCURVE",
"445 141 CURVE",
"445 0 LINE"
);
},
{
closed = 1;
nodes = (
"445 593 LINE",
"446 593 LINE",
"446 141 LINE",
"445 141 LINE"
);
},
{
closed = 1;
nodes = (
"582 0 OFFCURVE",
"694 54 OFFCURVE",
"753 161 CURVE",
"623 219 LINE",
"581 169 OFFCURVE",
"517 141 OFFCURVE",
"446 141 CURVE",
"446 593 LINE",
"515 593 OFFCURVE",
"581 565 OFFCURVE",
"623 515 CURVE",
"749 577 LINE",
"687 681 OFFCURVE",
"575 735 OFFCURVE",
"445 735 CURVE",
"445 593 LINE",
"445 141 LINE",
"445 0 LINE"
);
}
);
width = 835;
}
);
unicode = 0043;
},
{
glyphname = D;
lastChange = "2021-05-04 23:42:39 +0000";
layers = (
{
layerId = "EC678C9A-BAF7-4529-BA66-EDFBF106CBF7";
paths = (
{
closed = 1;
nodes = (
"52 735 LINE",
"52 0 LINE",
"167 0 LINE",
"167 107 LINE",
"167 628 LINE",
"167 735 LINE"
);
},
{
closed = 1;
nodes = (
"91 628 LINE",
"167 628 LINE",
"320 628 LINE",
"320 735 LINE",
"91 735 LINE"
);
},
{
closed = 1;
nodes = (
"664 160 OFFCURVE",
"520 0 OFFCURVE",
"320 0 CURVE",
"320 107 LINE",
"320 735 LINE",
"511 735 OFFCURVE",
"664 574 OFFCURVE",
"664 368 CURVE"
);
},
{
closed = 1;
nodes = (
"549 527 OFFCURVE",
"465 620 OFFCURVE",
"344 628 CURVE",
"336 628 OFFCURVE",
"327 628 OFFCURVE",
"327 628 CURVE",
"320 628 LINE",
"320 107 LINE",
"327 107 OFFCURVE",
"336 107 OFFCURVE",
"344 107 CURVE",
"465 115 OFFCURVE",
"549 215 OFFCURVE",
"549 375 CURVE"
);
},
{
closed = 1;
nodes = (
"167 107 LINE",
"167 107 LINE",
"167 628 LINE",
"167 628 LINE"
);
},
{
closed = 1;
nodes = (
"60 0 LINE",
"320 0 LINE",
"320 107 LINE",
"60 107 LINE"
);
}
);
width = 704;
},
{
layerId = "5B189D8C-80C2-4E76-949E-52A655B49706";
paths = (
{
closed = 1;
nodes = (
"77 735 LINE",
"77 0 LINE",
"210 0 LINE",
"210 165 LINE",
"210 556 LINE",
"210 735 LINE"
);
},
{
closed = 1;
nodes = (
"112 735 LINE",
"112 556 LINE",
"210 556 LINE",
"210 609 LINE",
"346 609 LINE SMOOTH",
"349 609 OFFCURVE",
"352 609 OFFCURVE",
"355 609 CURVE SMOOTH",
"470 603 OFFCURVE",
"555 517 OFFCURVE",
"555 371 CURVE SMOOTH",
"555 226 OFFCURVE",
"474 132 OFFCURVE",
"355 127 CURVE SMOOTH",
"352 127 OFFCURVE",
"349 127 OFFCURVE",
"346 127 CURVE SMOOTH",
"346 127 LINE",
"210 127 LINE",
"210 165 LINE",
"77 165 LINE",
"77 0 LINE",
"355 -1 LINE SMOOTH",
"549 -2 OFFCURVE",
"696 157 OFFCURVE",
"696 367 CURVE SMOOTH",
"696 577 OFFCURVE",
"544 735 OFFCURVE",
"355 735 CURVE SMOOTH",
"355 735 LINE"
);
}
);
width = 781;
}
);
unicode = 0044;
},
{
glyphname = E;
lastChange = "2021-05-05 00:07:22 +0000";
layers = (
{
layerId = "EC678C9A-BAF7-4529-BA66-EDFBF106CBF7";
paths = (
{
closed = 1;
nodes = (
"53 735 LINE",
"53 0 LINE",
"168 0 LINE",
"168 735 LINE"
);
},
{
closed = 1;
nodes = (
"160 628 LINE",
"497 628 LINE",
"497 735 LINE",
"160 735 LINE"
);
},
{
closed = 1;
nodes = (
"160 0 LINE",
"497 0 LINE",
"497 107 LINE",
"160 107 LINE"
);
},
{
closed = 1;
nodes = (
"160 314 LINE",
"473 314 LINE",
"473 421 LINE",
"160 421 LINE"
);
}
);
width = 567;
},
{
layerId = "5B189D8C-80C2-4E76-949E-52A655B49706";
paths = (
{
closed = 1;
nodes = (
"86 735 LINE",
"86 0 LINE",
"224 0 LINE",
"224 735 LINE"
);
},
{
closed = 1;
nodes = (
"187 598 LINE",
"518 598 LINE",
"518 735 LINE",
"187 735 LINE"
);
},
{
closed = 1;
nodes = (
"187 0 LINE",
"518 0 LINE",
"518 136 LINE",
"187 136 LINE"
);
},
{
closed = 1;
nodes = (
"187 297 LINE",
"496 297 LINE",
"496 438 LINE",
"187 438 LINE"
);
}
);
width = 600;
}
);
unicode = 0045;
},
{
glyphname = F;
lastChange = "2021-05-04 23:44:30 +0000";
layers = (
{
layerId = "EC678C9A-BAF7-4529-BA66-EDFBF106CBF7";
paths = (
{
closed = 1;
nodes = (
"147 0 LINE",
"32 0 LINE",
"32 735 LINE",
"147 735 LINE"
);
},
{
closed = 1;
nodes = (
"523 735 LINE",
"523 628 LINE",
"132 628 LINE",
"132 735 LINE"
);
},
{
closed = 1;
nodes = (
"477 413 LINE",
"477 306 LINE",
"132 306 LINE",
"132 413 LINE"
);
}
);
width = 563;
},
{
layerId = "5B189D8C-80C2-4E76-949E-52A655B49706";
paths = (
{
closed = 1;
nodes = (
"59 735 LINE",
"60 0 LINE",
"193 0 LINE",
"193 735 LINE"
);
},
{
closed = 1;
nodes = (
"153 602 LINE",
"539 602 LINE",
"539 735 LINE",
"153 735 LINE"
);
},
{
closed = 1;
nodes = (
"150 291 LINE",
"495 291 LINE",
"495 421 LINE",
"150 421 LINE"
);
}
);
width = 635;
}
);
unicode = 0046;
},
{
glyphname = G;
lastChange = "2021-05-04 23:45:31 +0000";
layers = (
{
layerId = "EC678C9A-BAF7-4529-BA66-EDFBF106CBF7";
paths = (
{
closed = 1;
nodes = (
"744 368 OFFCURVE",
"744 368 OFFCURVE",
"744 368 CURVE",
"744 130 OFFCURVE",
"599 0 OFFCURVE",
"392 0 CURVE",
"675 261 LINE",
"721 368 LINE",
"721 375 LINE",
"744 375 LINE",
"744 368 LINE"
);
},
{
closed = 1;
nodes = (
"721 375 LINE",
"721 268 LINE",
"621 268 LINE",
"545 268 LINE",
"392 268 LINE",
"392 344 LINE",
"392 375 LINE"
);
},
{
closed = 1;
nodes = (
"194 0 OFFCURVE",
"38 161 OFFCURVE",
"38 368 CURVE",
"38 574 OFFCURVE",
"201 735 OFFCURVE",
"392 735 CURVE",
"392 620 LINE",
"254 620 OFFCURVE",
"153 513 OFFCURVE",
"153 368 CURVE",
"153 222 OFFCURVE",
"254 114 OFFCURVE",
"392 114 CURVE",
"392 0 LINE"
);
},
{
closed = 1;
nodes = (
"744 130 OFFCURVE",
"599 0 OFFCURVE",
"392 0 CURVE",
"392 114 LINE",
"500 114 OFFCURVE",
"591 168 OFFCURVE",
"621 268 CURVE",
"545 268 LINE",
"392 268 LINE",
"392 344 LINE",
"392 344 LINE",
"392 368 LINE",
"422 368 LINE",
"645 368 LINE",
"645 368 LINE",
"652 368 LINE",
"721 368 LINE",
"721 368 LINE",
"744 368 LINE",
"744 368 LINE",
"744 368 LINE",
"744 368 LINE"
);
},
{
closed = 1;
nodes = (
"637 674 OFFCURVE",
"522 735 OFFCURVE",
"392 735 CURVE",
"392 620 LINE",
"476 620 OFFCURVE",
"553 581 OFFCURVE",
"607 520 CURVE",
"699 567 LINE"
);
}
);
width = 784;
},
{
layerId = "5B189D8C-80C2-4E76-949E-52A655B49706";
paths = (
{
closed = 1;
nodes = (
"240 0 OFFCURVE",
"80 159 OFFCURVE",
"80 370 CURVE",
"80 579 OFFCURVE",
"247 735 OFFCURVE",
"445 735 CURVE",
"445 594 LINE",
"323 594 OFFCURVE",
"222 497 OFFCURVE",
"222 368 CURVE",
"222 238 OFFCURVE",
"319 141 OFFCURVE",
"445 141 CURVE",
"445 0 LINE"
);
},
{
closed = 1;
nodes = (
"446 141 LINE",
"446 368 LINE",
"446 377 LINE",
"446 594 LINE",
"445 594 LINE",
"445 377 LINE",
"439 368 LINE",
"445 368 LINE",
"445 141 LINE"
);
},
{
closed = 1;
nodes = (
"656 38 OFFCURVE",
"560 0 OFFCURVE",
"445 0 CURVE",
"445 141 LINE",
"445 368 LINE",
"439 368 LINE",
"445 377 LINE",
"445 594 LINE",
"445 735 LINE",
"556 735 OFFCURVE",
"653 697 OFFCURVE",
"718 623 CURVE",
"727 612 OFFCURVE",
"736 600 OFFCURVE",
"744 588 CURVE",
"621 519 LINE",
"608 533 OFFCURVE",
"594 545 OFFCURVE",
"578 556 CURVE",
"540 581 OFFCURVE",
"495 594 OFFCURVE",
"446 594 CURVE",
"446 377 LINE",
"446 368 LINE",
"446 141 LINE",
"496 141 OFFCURVE",
"541 155 OFFCURVE",
"576 179 CURVE",
"602 197 OFFCURVE",
"623 220 OFFCURVE",
"638 247 CURVE",
"528 247 LINE",
"446 247 LINE",
"446 368 LINE",
"501 368 LINE",
"667 368 LINE",
"750 368 LINE",
"780 368 LINE",
"816 368 LINE",
"816 365 OFFCURVE",
"816 364 OFFCURVE",
"816 362 CURVE",
"810 276 OFFCURVE",
"786 205 OFFCURVE",
"750 149 CURVE",
"741 136 OFFCURVE",
"732 124 OFFCURVE",
"722 112 CURVE"
);
},
{
closed = 1;
nodes = (
"446 379 LINE",
"448 379 LINE",
"446 377 LINE"
);
}
);
width = 907;
}
);
unicode = 0047;
},
{
glyphname = H;
lastChange = "2021-05-04 23:46:11 +0000";
layers = (
{
layerId = "EC678C9A-BAF7-4529-BA66-EDFBF106CBF7";
paths = (
{
closed = 1;
nodes = (
"632 0 LINE",
"517 0 LINE",
"517 735 LINE",
"632 735 LINE"
);
},
{
closed = 1;
nodes = (
"157 735 LINE",
"157 0 LINE",
"42 0 LINE",
"42 735 LINE"
);
},
{
closed = 1;
nodes = (
"537 413 LINE",
"537 306 LINE",
"96 306 LINE",
"96 413 LINE"
);
}
);
width = 694;
},
{
layerId = "5B189D8C-80C2-4E76-949E-52A655B49706";
paths = (
{
closed = 1;
nodes = (
"539 735 LINE",
"539 0 LINE",
"672 0 LINE",
"672 735 LINE"
);
},
{
closed = 1;
nodes = (
"213 735 LINE",
"213 0 LINE",
"80 0 LINE",
"80 735 LINE"
);
},
{
closed = 1;
nodes = (
"539 436 LINE",
"539 306 LINE",
"124 306 LINE",
"124 436 LINE"
);
}
);
width = 773;
}
);
unicode = 0048;
},
{
glyphname = I;
lastChange = "2021-05-05 00:10:39 +0000";
layers = (
{
layerId = "EC678C9A-BAF7-4529-BA66-EDFBF106CBF7";
paths = (
{
closed = 1;
nodes = (
"165 735 LINE",
"165 0 LINE",
"50 0 LINE",
"50 735 LINE"
);
}
);
width = 219;
},
{
layerId = "5B189D8C-80C2-4E76-949E-52A655B49706";
paths = (
{
closed = 1;
nodes = (
"213 735 LINE",
"213 0 LINE",
"80 0 LINE",
"80 735 LINE"
);
}
);
width = 273;
}
);
unicode = 0049;
},
{
glyphname = J;
lastChange = "2021-05-04 23:52:41 +0000";
layers = (
{
layerId = "EC678C9A-BAF7-4529-BA66-EDFBF106CBF7";
paths = (
{
closed = 1;
nodes = (
"415 735 LINE",
"415 261 LINE",
"530 261 LINE",
"530 735 LINE"
);
},
{
closed = 1;
nodes = (
"78 46 OFFCURVE",
"154 0 OFFCURVE",
"255 0 CURVE SMOOTH",
"408 0 OFFCURVE",
"530 97 OFFCURVE",
"530 261 CURVE",
"415 261 LINE",
"410 171 OFFCURVE",
"354 107 OFFCURVE",
"262 107 CURVE SMOOTH",
"185 107 OFFCURVE",
"147 138 OFFCURVE",
"124 168 CURVE",
"40 107 LINE"
);
}
);
width = 593;
},
{
layerId = "5B189D8C-80C2-4E76-949E-52A655B49706";
paths = (
{
closed = 1;
nodes = (
"495 735 LINE",
"495 309 LINE",
"628 309 LINE",
"628 735 LINE"
);
},
{
closed = 1;
nodes = (
"128 61 OFFCURVE",
"230 -1 OFFCURVE",
"340 0 CURVE SMOOTH",
"504 3 OFFCURVE",
"636 138 OFFCURVE",
"628 344 CURVE",
"495 331 LINE",
"492 244 OFFCURVE",
"454 143 OFFCURVE",
"351 130 CURVE SMOOTH",
"258 118 OFFCURVE",
"203 181 OFFCURVE",
"169 216 CURVE",
"80 138 LINE"
);
}
);
width = 688;
}
);
unicode = 004A;
},
{
glyphname = K;
lastChange = "2021-05-04 23:52:50 +0000";
layers = (
{
layerId = "EC678C9A-BAF7-4529-BA66-EDFBF106CBF7";
paths = (
{
closed = 1;
nodes = (
"150 735 LINE",
"150 0 LINE",
"35 0 LINE",
"35 735 LINE"
);
},
{
closed = 1;
nodes = (
"611 735 LINE",
"126 172 LINE",
"63 258 LINE",
"462 735 LINE"
);
},
{
closed = 1;
nodes = (
"197 321 LINE",
"291 383 LINE",
"634 0 LINE",
"486 0 LINE"
);
}
);
width = 664;
},
{
layerId = "5B189D8C-80C2-4E76-949E-52A655B49706";
paths = (
{
closed = 1;
nodes = (
"213 735 LINE",
"213 0 LINE",
"80 0 LINE",
"80 735 LINE"
);
},
{
closed = 1;
nodes = (
"628 735 LINE",
"135 149 LINE",
"88 293 LINE",
"466 735 LINE"
);
},
{
closed = 1;
nodes = (
"237 293 LINE",
"339 391 LINE",
"665 0 LINE",
"496 0 LINE"
);
}
);
width = 755;
}
);
unicode = 004B;
},
{
glyphname = L;
lastChange = "2021-05-04 23:53:18 +0000";
layers = (
{
layerId = "EC678C9A-BAF7-4529-BA66-EDFBF106CBF7";
paths = (
{
closed = 1;
nodes = (
"147 735 LINE",
"147 0 LINE",
"32 0 LINE",
"32 735 LINE"
);
},
{
closed = 1;
nodes = (
"507 107 LINE",
"507 0 LINE",
"40 0 LINE",
"40 107 LINE"
);
}
);
width = 527;
},
{
layerId = "5B189D8C-80C2-4E76-949E-52A655B49706";
paths = (
{
closed = 1;
nodes = (
"175 735 LINE",
"175 0 LINE",
"42 0 LINE",
"42 735 LINE"
);
},
{
closed = 1;
nodes = (
"535 122 LINE",
"535 0 LINE",
"81 0 LINE",
"81 122 LINE"
);
}
);
width = 649;
}
);
unicode = 004C;
},
{
glyphname = M;
lastChange = "2021-05-04 23:53:48 +0000";
layers = (
{
layerId = "EC678C9A-BAF7-4529-BA66-EDFBF106CBF7";
paths = (
{
closed = 1;
nodes = (
"74 0 LINE",
"189 0 LINE",
"189 735 LINE",
"74 735 LINE"
);
},
{
closed = 1;
nodes = (
"705 735 LINE",
"705 0 LINE",
"820 -1 LINE",
"820 734 LINE"
);
},
{
closed = 1;
nodes = (
"394 0 LINE",
"500 0 LINE",
"235 735 LINE",
"108 735 LINE"
);
},
{
closed = 1;
nodes = (
"660 735 LINE",
"394 0 LINE",
"500 0 LINE",
"787 735 LINE"
);
}
);
width = 894;
},
{
layerId = "5B189D8C-80C2-4E76-949E-52A655B49706";
paths = (
{
closed = 1;
nodes = (
"116 0 LINE",
"249 0 LINE",
"249 735 LINE",
"116 735 LINE"
);
},
{
closed = 1;
nodes = (
"718 735 LINE",
"718 0 LINE",
"851 0 LINE",
"851 735 LINE"
);
},
{
closed = 1;
nodes = (
"424 0 LINE",
"544 0 LINE",
"304 735 LINE",
"163 735 LINE"
);
},
{
closed = 1;
nodes = (
"667 735 LINE",
"424 0 LINE",
"544 0 LINE",
"804 735 LINE"
);
}
);
width = 967;
}
);
unicode = 004D;
},
{
glyphname = N;
lastChange = "2021-05-04 23:59:33 +0000";
layers = (
{
layerId = "EC678C9A-BAF7-4529-BA66-EDFBF106CBF7";
paths = (
{
closed = 1;
nodes = (
"169 735 LINE",
"169 0 LINE",
"54 0 LINE",
"54 735 LINE"
);
},
{
closed = 1;
nodes = (
"690 0 LINE",
"575 0 LINE",
"575 735 LINE",
"690 735 LINE"
);
},
{
closed = 1;
nodes = (
"184 735 LINE",
"684 0 LINE",
"560 0 LINE",
"54 735 LINE"
);
}
);
width = 744;
},
{
layerId = "5B189D8C-80C2-4E76-949E-52A655B49706";
paths = (
{
closed = 1;
nodes = (
"208 735 LINE",
"208 0 LINE",
"75 0 LINE",
"76 735 LINE"
);
},
{
closed = 1;
nodes = (
"710 0 LINE",
"577 0 LINE",
"577 735 LINE",
"710 735 LINE"
);
},
{
closed = 1;
nodes = (
"226 735 LINE",
"705 0 LINE",
"559 0 LINE",
"78 735 LINE"
);
}
);
width = 924;
}
);
unicode = 004E;
},
{
glyphname = O;
lastChange = "2021-05-05 00:00:10 +0000";
layers = (
{
layerId = "EC678C9A-BAF7-4529-BA66-EDFBF106CBF7";
paths = (
{
closed = 1;
nodes = (
"601 0 OFFCURVE",
"765 164 OFFCURVE",
"765 368 CURVE SMOOTH",
"765 571 OFFCURVE",
"601 735 OFFCURVE",
"397 735 CURVE SMOOTH",
"194 735 OFFCURVE",
"30 571 OFFCURVE",
"30 368 CURVE SMOOTH",
"30 164 OFFCURVE",
"194 0 OFFCURVE",
"397 0 CURVE SMOOTH"
);
},
{
closed = 1;
nodes = (
"258 115 OFFCURVE",
"145 228 OFFCURVE",
"145 368 CURVE SMOOTH",
"145 507 OFFCURVE",
"258 621 OFFCURVE",
"397 621 CURVE SMOOTH",
"537 621 OFFCURVE",
"650 507 OFFCURVE",
"650 368 CURVE SMOOTH",
"650 228 OFFCURVE",
"537 115 OFFCURVE",
"397 115 CURVE SMOOTH"
);
}
);
width = 785;
},
{
layerId = "5B189D8C-80C2-4E76-949E-52A655B49706";
paths = (
{
closed = 1;
nodes = (
"650 0 OFFCURVE",
"815 165 OFFCURVE",
"815 367 CURVE SMOOTH",
"815 570 OFFCURVE",
"650 735 OFFCURVE",
"447 735 CURVE SMOOTH",
"244 735 OFFCURVE",
"79 570 OFFCURVE",
"79 367 CURVE SMOOTH",
"79 165 OFFCURVE",
"244 0 OFFCURVE",
"447 0 CURVE SMOOTH"
);
},
{
closed = 1;
nodes = (
"321 138 OFFCURVE",
"219 240 OFFCURVE",
"219 367 CURVE SMOOTH",
"219 493 OFFCURVE",
"321 595 OFFCURVE",
"447 595 CURVE SMOOTH",
"574 595 OFFCURVE",
"675 493 OFFCURVE",
"675 367 CURVE SMOOTH",
"675 240 OFFCURVE",
"574 138 OFFCURVE",
"447 138 CURVE SMOOTH"
);
}
);
width = 884;
}
);
unicode = 004F;
},
{
glyphname = P;
lastChange = "2021-05-05 00:02:41 +0000";
layers = (
{
layerId = "EC678C9A-BAF7-4529-BA66-EDFBF106CBF7";
paths = (
{
closed = 1;
nodes = (
"167 620 LINE",
"167 352 LINE",
"167 0 LINE",
"52 0 LINE",
"52 735 LINE",
"167 735 LINE"
);
},
{
closed = 1;
nodes = (
"167 352 LINE",
"343 352 LINE",
"343 237 LINE",
"91 237 LINE",
"91 352 LINE"
);
},
{
closed = 1;
nodes = (
"293 735 LINE",
"323 735 LINE",
"323 735 OFFCURVE",
"351 735 OFFCURVE",
"351 735 CURVE",
"489 735 OFFCURVE",
"600 628 OFFCURVE",
"600 490 CURVE",
"600 360 OFFCURVE",
"489 237 OFFCURVE",
"351 237 CURVE",
"213 237 OFFCURVE",
"106 337 OFFCURVE",
"106 482 CURVE",
"106 536 OFFCURVE",
"121 582 OFFCURVE",
"144 620 CURVE",
"91 620 LINE",
"91 735 LINE"
);
},
{
closed = 1;
nodes = (
"343 352 LINE SMOOTH",
"343 352 OFFCURVE",
"343 352 OFFCURVE",
"343 352 CURVE SMOOTH",
"420 352 OFFCURVE",
"485 413 OFFCURVE",
"485 490 CURVE SMOOTH",
"485 567 OFFCURVE",
"420 628 OFFCURVE",
"343 628 CURVE SMOOTH",
"343 628 LINE",
"167 628 LINE",
"167 620 LINE",
"167 352 LINE"
);
}
);
width = 640;
},
{
layerId = "5B189D8C-80C2-4E76-949E-52A655B49706";
paths = (
{
closed = 1;
nodes = (
"213 486 LINE",
"213 485 LINE",
"215 0 LINE",
"82 0 LINE",
"82 735 LINE",
"215 735 LINE"
);
},
{
closed = 1;
nodes = (
"361 735 LINE",
"361 620 LINE",
"105 620 LINE",
"105 735 LINE"
);
},
{
closed = 1;
nodes = (
"358 353 LINE",
"358 230 LINE",
"108 230 LINE",
"108 353 LINE"
);
},
{
closed = 1;
nodes = (
"233 230 OFFCURVE",
"120 335 OFFCURVE",
"120 486 CURVE",
"120 637 OFFCURVE",
"233 735 OFFCURVE",
"371 735 CURVE",
"509 735 OFFCURVE",
"627 624 OFFCURVE",
"627 486 CURVE",
"627 348 OFFCURVE",
"509 230 OFFCURVE",
"371 230 CURVE"
);
},
{
closed = 1;
nodes = (
"433 357 OFFCURVE",
"490 420 OFFCURVE",
"490 487 CURVE SMOOTH",
"490 553 OFFCURVE",
"433 608 OFFCURVE",
"358 613 CURVE SMOOTH",
"355 613 OFFCURVE",
"352 613 OFFCURVE",
"348 613 CURVE SMOOTH",
"348 613 LINE",
"217 613 LINE",
"216 487 LINE",
"216 485 LINE",
"217 354 LINE",
"358 353 LINE",
"358 353 LINE SMOOTH"
);
}
);
width = 776;
}
);
unicode = 0050;
},
{
glyphname = Q;
lastChange = "2021-05-05 00:04:28 +0000";
layers = (
{
layerId = "EC678C9A-BAF7-4529-BA66-EDFBF106CBF7";
paths = (
{
closed = 1;
nodes = (
"40 162 OFFCURVE",
"211 0 OFFCURVE",
"412 0 CURVE",
"412 735 LINE",
"219 735 OFFCURVE",
"40 580 OFFCURVE",
"40 371 CURVE"
);
},
{
closed = 1;
nodes = (
"784 162 OFFCURVE",
"621 0 OFFCURVE",
"412 0 CURVE",
"412 735 LINE",
"613 735 OFFCURVE",
"784 580 OFFCURVE",
"784 371 CURVE"
);
},
{
closed = 1;
nodes = (
"155 518 OFFCURVE",
"273 628 OFFCURVE",
"412 628 CURVE",
"412 107 LINE",
"273 107 OFFCURVE",
"155 224 OFFCURVE",
"155 371 CURVE"
);
},
{
closed = 1;
nodes = (
"669 518 OFFCURVE",
"551 628 OFFCURVE",
"412 628 CURVE",
"412 107 LINE",
"559 107 OFFCURVE",
"669 224 OFFCURVE",
"669 371 CURVE"
);
},
{
closed = 1;
nodes = (
"777 70 LINE",
"708 -21 LINE",
"412 184 LINE",
"481 275 LINE"
);
}
);
width = 824;
},
{
layerId = "5B189D8C-80C2-4E76-949E-52A655B49706";
paths = (
{
closed = 1;
nodes = (
"650 0 OFFCURVE",
"811 158 OFFCURVE",
"811 368 CURVE",
"811 576 OFFCURVE",
"650 735 OFFCURVE",
"448 735 CURVE",
"244 735 OFFCURVE",
"80 576 OFFCURVE",
"80 368 CURVE",
"80 154 OFFCURVE",
"244 0 OFFCURVE",
"448 0 CURVE"
);
},
{
closed = 1;
nodes = (
"666 307 OFFCURVE",
"648 255 OFFCURVE",
"618 215 CURVE",
"521 290 LINE",
"448 193 LINE",
"512 143 LINE",
"486 135 OFFCURVE",
"460 131 OFFCURVE",
"432 131 CURVE",
"312 139 OFFCURVE",
"219 228 OFFCURVE",
"219 368 CURVE",
"219 476 OFFCURVE",
"308 600 OFFCURVE",
"432 604 CURVE",
"570 604 OFFCURVE",
"666 509 OFFCURVE",
"666 368 CURVE"
);
},
{
closed = 1;
nodes = (
"452 189 LINE",
"516 140 LINE",
"742 -36 LINE",
"815 61 LINE",
"622 212 LINE",
"525 287 LINE"
);
}
);
width = 895;
}
);
unicode = 0051;
},
{
glyphname = R;
lastChange = "2021-05-05 00:10:37 +0000";
layers = (
{
layerId = "EC678C9A-BAF7-4529-BA66-EDFBF106CBF7";
paths = (
{
closed = 1;
nodes = (
"32 735 LINE",
"32 0 LINE",
"147 0 LINE",
"147 621 LINE",
"147 659 LINE",
"147 735 LINE"
);
},
{
closed = 1;
nodes = (
"71 253 LINE",
"323 253 LINE",
"323 368 LINE",
"71 368 LINE"
);
},
{
closed = 1;
nodes = (
"454 0 LINE",
"584 0 LINE",
"408 307 LINE",
"285 307 LINE"
);
},
{
closed = 1;
nodes = (
"323 628 LINE",
"323 735 LINE",
"255 735 OFFCURVE",
"193 705 OFFCURVE",
"147 659 CURVE",
"147 628 LINE"
);
},
{
closed = 1;
nodes = (
"71 735 LINE",
"71 621 LINE",
"117 621 LINE",
"101 582 OFFCURVE",
"86 544 OFFCURVE",
"86 490 CURVE",
"86 345 OFFCURVE",
"193 253 OFFCURVE",
"331 253 CURVE",
"461 253 OFFCURVE",
"566 368 OFFCURVE",
"566 498 CURVE",
"566 636 OFFCURVE",
"461 735 OFFCURVE",
"331 735 CURVE",
"323 735 OFFCURVE",
"323 735 OFFCURVE",
"323 735 CURVE",
"323 735 LINE"
);
},
{
closed = 1;
nodes = (
"393 628 OFFCURVE",
"451 567 OFFCURVE",
"451 498 CURVE SMOOTH",
"451 429 OFFCURVE",
"393 368 OFFCURVE",
"323 368 CURVE SMOOTH",
"323 368 OFFCURVE",
"316 368 OFFCURVE",
"316 368 CURVE SMOOTH",
"147 368 LINE",
"147 621 LINE",
"147 628 LINE",
"147 659 LINE",
"193 705 OFFCURVE",
"255 735 OFFCURVE",
"323 735 CURVE",
"323 628 LINE",
"323 628 LINE SMOOTH"
);
}
);
width = 634;
},
{
layerId = "5B189D8C-80C2-4E76-949E-52A655B49706";
paths = (
{
closed = 1;
nodes = (
"20 735 LINE",
"20 0 LINE",
"153 0 LINE",
"153 383 LINE",
"153 620 LINE",
"153 735 LINE"
);
},
{
closed = 1;
nodes = (
"61 620 LINE",
"153 620 LINE",
"290 620 LINE",
"315 620 LINE",
"317 620 LINE",
"317 620 LINE",
"317 735 LINE",
"61 735 LINE"
);
},
{
closed = 1;
nodes = (
"64 252 LINE",
"337 252 LINE",
"337 383 LINE",
"153 383 LINE",
"64 383 LINE"
);
},
{
closed = 1;
nodes = (
"422 0 LINE",
"576 0 LINE",
"402 303 LINE",
"249 303 LINE"
);
},
{
closed = 1;
nodes = (
"457 252 OFFCURVE",
"564 358 OFFCURVE",
"564 492 CURVE",
"564 626 OFFCURVE",
"455 735 OFFCURVE",
"321 735 CURVE",
"186 735 OFFCURVE",
"76 639 OFFCURVE",
"76 492 CURVE",
"76 344 OFFCURVE",
"187 252 OFFCURVE",
"322 252 CURVE"
);
},
{
closed = 1;
nodes = (
"317 620 LINE",
"317 620 LINE SMOOTH",
"381 614 OFFCURVE",
"429 563 OFFCURVE",
"429 502 CURVE SMOOTH",
"429 440 OFFCURVE",
"380 389 OFFCURVE",
"315 384 CURVE SMOOTH",
"311 383 OFFCURVE",
"308 383 OFFCURVE",
"304 383 CURVE SMOOTH",
"153 383 LINE",
"153 620 LINE",
"290 620 LINE",
"315 620 LINE"
);
}
);
width = 600;
}
);
unicode = 0052;
},
{
glyphname = S;
lastChange = "2021-05-05 00:14:45 +0000";
layers = (
{
layerId = "EC678C9A-BAF7-4529-BA66-EDFBF106CBF7";
paths = (
{
closed = 1;
nodes = (
"289 752 OFFCURVE",
"278 752 OFFCURVE",
"267 751 CURVE SMOOTH",
"188 744 OFFCURVE",
"130 707 OFFCURVE",
"100 676 CURVE SMOOTH",
"69 646 OFFCURVE",
"44 600 OFFCURVE",
"44 550 CURVE SMOOTH",
"44 455 OFFCURVE",
"102 396 OFFCURVE",
"191 362 CURVE SMOOTH",
"226 348 OFFCURVE",
"270 334 OFFCURVE",
"307 321 CURVE SMOOTH",
"346 307 OFFCURVE",
"386 285 OFFCURVE",
"410 255 CURVE SMOOTH",
"430 226 OFFCURVE",
"438 197 OFFCURVE",
"419 164 CURVE SMOOTH",
"401 133 OFFCURVE",
"366 115 OFFCURVE",
"327 107 CURVE SMOOTH",
"315 105 OFFCURVE",
"302 104 OFFCURVE",
"290 104 CURVE SMOOTH",
"257 104 OFFCURVE",
"218 109 OFFCURVE",
"192 124 CURVE SMOOTH",
"152 146 OFFCURVE",
"121 195 OFFCURVE",
"121 195 CURVE",
"121 195 OFFCURVE",
"61 162 OFFCURVE",
"21 141 CURVE",
"59 85 OFFCURVE",
"95 50 OFFCURVE",
"143 24 CURVE SMOOTH",
"189 1 OFFCURVE",
"239 -6 OFFCURVE",
"289 -6 CURVE SMOOTH",
"315 -6 OFFCURVE",
"350 -4 OFFCURVE",
"392 9 CURVE SMOOTH",
"448 26 OFFCURVE",
"489 57 OFFCURVE",
"515 93 CURVE SMOOTH",
"541 127 OFFCURVE",
"554 181 OFFCURVE",
"546 235 CURVE SMOOTH",
"538 288 OFFCURVE",
"510 320 OFFCURVE",
"483 348 CURVE SMOOTH",
"440 389 OFFCURVE",
"373 412 OFFCURVE",
"278 447 CURVE SMOOTH",
"258 454 OFFCURVE",
"179 476 OFFCURVE",
"165 523 CURVE SMOOTH",
"152 571 OFFCURVE",
"179 608 OFFCURVE",
"203 623 CURVE SMOOTH",
"228 638 OFFCURVE",
"255 647 OFFCURVE",
"290 647 CURVE SMOOTH",
"292 647 OFFCURVE",
"295 647 OFFCURVE",
"297 647 CURVE SMOOTH",
"335 645 OFFCURVE",
"355 637 OFFCURVE",
"380 619 CURVE SMOOTH",
"406 601 OFFCURVE",
"429 560 OFFCURVE",
"429 560 CURVE",
"529 606 LINE",
"529 606 OFFCURVE",
"529 607 OFFCURVE",
"513 633 CURVE SMOOTH",
"480 686 OFFCURVE",
"449 707 OFFCURVE",
"422 723 CURVE SMOOTH",
"397 737 OFFCURVE",
"359 752 OFFCURVE",
"298 752 CURVE"
);
}
);
width = 603;
},
{
layerId = "5B189D8C-80C2-4E76-949E-52A655B49706";
paths = (
{
closed = 1;
nodes = (
"550 597 LINE",
"550 597 OFFCURVE",
"503 724 OFFCURVE",
"371 743 CURVE SMOOTH",
"238 764 OFFCURVE",
"153 701 OFFCURVE",
"153 701 CURVE",
"153 701 OFFCURVE",
"57 650 OFFCURVE",
"62 517 CURVE SMOOTH",
"68 389 OFFCURVE",
"242 347 OFFCURVE",
"242 347 CURVE",
"242 347 OFFCURVE",
"364 309 OFFCURVE",
"402 280 CURVE",
"451 252 OFFCURVE",
"465 148 OFFCURVE",
"353 120 CURVE SMOOTH",
"242 93 OFFCURVE",
"167 193 OFFCURVE",
"159 208 CURVE SMOOTH",
"136 196 OFFCURVE",
"51 143 OFFCURVE",
"51 143 CURVE",
"51 143 OFFCURVE",
"113 66 OFFCURVE",
"194 22 CURVE SMOOTH",
"275 -21 OFFCURVE",
"404 -5 OFFCURVE",
"452 22 CURVE SMOOTH",
"498 48 OFFCURVE",
"564 104 OFFCURVE",
"562 209 CURVE SMOOTH",
"560 313 OFFCURVE",
"515 358 OFFCURVE",
"422 407 CURVE SMOOTH",
"328 452 OFFCURVE",
"275 462 OFFCURVE",
"259 471 CURVE",
"187 490 OFFCURVE",
"156 585 OFFCURVE",
"249 619 CURVE SMOOTH",
"343 654 OFFCURVE",
"410 597 OFFCURVE",
"431 548 CURVE"
);
}
);
width = 600;
}
);
unicode = 0053;
},
{
glyphname = T;
lastChange = "2021-05-05 00:13:23 +0000";
layers = (
{
layerId = "EC678C9A-BAF7-4529-BA66-EDFBF106CBF7";
paths = (
{
closed = 1;
nodes = (
"355 0 LINE",
"240 0 LINE",
"240 735 LINE",
"355 735 LINE"
);
},
{
closed = 1;
nodes = (
"573 735 LINE",
"573 628 LINE",
"30 628 LINE",
"30 735 LINE"
);
}
);
width = 623;
},
{
layerId = "5B189D8C-80C2-4E76-949E-52A655B49706";
paths = (
{
closed = 1;
nodes = (
"363 0 LINE",
"230 0 LINE",
"230 735 LINE",
"363 735 LINE"
);
},
{
closed = 1;
nodes = (
"572 735 LINE",
"572 598 LINE",
"21 598 LINE",
"21 735 LINE"
);
}
);
width = 600;
}
);
unicode = 0054;
},
{
glyphname = U;
lastChange = "2021-05-05 00:19:02 +0000";
layers = (
{
layerId = "EC678C9A-BAF7-4529-BA66-EDFBF106CBF7";
paths = (
{
closed = 1;
nodes = (
"535 735 LINE",
"535 459 LINE",
"535 283 LINE",
"543 283 LINE",
"543 237 LINE",
"650 237 LINE",
"650 237 LINE",
"650 735 LINE"
);
},
{
closed = 1;
nodes = (
"175 735 LINE",
"175 704 LINE",
"175 459 LINE",
"167 283 LINE",
"167 260 LINE",
"60 260 LINE",
"60 735 LINE"
);
},
{
closed = 1;
nodes = (
"175 704 LINE",
"175 459 LINE",
"175 283 LINE",
"175 283 LINE",
"182 153 OFFCURVE",
"252 107 OFFCURVE",
"351 107 CURVE",
"458 107 OFFCURVE",
"527 153 OFFCURVE",
"535 283 CURVE",
"535 283 OFFCURVE",
"535 283 OFFCURVE",
"543 283 CURVE",
"543 283 LINE",
"543 237 LINE",
"650 237 LINE",
"648 100 OFFCURVE",
"512 0 OFFCURVE",
"351 0 CURVE",
"191 0 OFFCURVE",
"60 107 OFFCURVE",
"60 260 CURVE",
"60 345 OFFCURVE",
"99 413 OFFCURVE",
"167 459 CURVE",
"167 704 LINE"
);
}
);
width = 710;
},
{
layerId = "5B189D8C-80C2-4E76-949E-52A655B49706";
paths = (
{
closed = 1;
nodes = (
"681 240 LINE",
"548 240 LINE",
"548 482 LINE",
"548 735 LINE",
"681 735 LINE"
);
},
{
closed = 1;
nodes = (
"208 735 LINE",
"208 477 LINE",
"208 240 LINE",
"77 240 LINE",
"75 735 LINE"
);
},
{
closed = 1;
nodes = (
"76 358 OFFCURVE",
"121 435 OFFCURVE",
"208 477 CURVE",
"208 306 LINE SMOOTH",
"208 299 OFFCURVE",
"209 292 OFFCURVE",
"209 286 CURVE SMOOTH",
"216 174 OFFCURVE",
"283 132 OFFCURVE",
"380 132 CURVE SMOOTH",
"380 132 OFFCURVE",
"381 132 OFFCURVE",
"382 132 CURVE SMOOTH",
"465 132 OFFCURVE",
"541 173 OFFCURVE",
"547 286 CURVE SMOOTH",
"547 292 OFFCURVE",
"548 299 OFFCURVE",
"548 306 CURVE SMOOTH",
"548 482 LINE",
"636 442 OFFCURVE",
"681 367 OFFCURVE",
"681 259 CURVE SMOOTH",
"681 92 OFFCURVE",
"548 0 OFFCURVE",
"380 0 CURVE SMOOTH",
"212 0 OFFCURVE",
"76 102 OFFCURVE",
"76 258 CURVE SMOOTH"
);
}
);
width = 756;
}
);
unicode = 0055;
},
{
glyphname = V;
lastChange = "2021-04-25 07:24:40 +0000";
layers = (
{
layerId = "EC678C9A-BAF7-4529-BA66-EDFBF106CBF7";
paths = (
{
closed = 1;
nodes = (
"163 735 LINE",
"429 0 LINE",
"311 0 LINE",
"37 735 LINE"
);
},
{
closed = 1;
nodes = (
"437 0 LINE",
"319 0 LINE",
"593 735 LINE",
"711 735 LINE"
);
}
);
width = 788;
},
{
layerId = "5B189D8C-80C2-4E76-949E-52A655B49706";
paths = (
{
closed = 1;
nodes = (
"349 0 LINE",
"499 0 LINE",
"225 735 LINE",
"80 735 LINE"
);
},
{
closed = 1;
nodes = (
"670 735 LINE",
"397 0 LINE",
"541 0 LINE",
"815 735 LINE"
);
}
);
width = 896;
}
);
unicode = 0056;
},
{
glyphname = W;
lastChange = "2021-04-25 07:24:46 +0000";
layers = (
{
layerId = "EC678C9A-BAF7-4529-BA66-EDFBF106CBF7";
paths = (
{
closed = 1;
nodes = (
"469 735 LINE",
"245 0 LINE",
"355 0 LINE",
"579 735 LINE"
);
},
{
closed = 1;
nodes = (
"688 0 LINE",
"798 0 LINE",
"586 735 LINE",
"462 735 LINE"
);
},
{
closed = 1;
nodes = (
"225 0 LINE",
"351 0 LINE",
"148 735 LINE",
"38 735 LINE"
);
},
{
closed = 1;
nodes = (
"899 735 LINE",
"696 0 LINE",
"821 0 LINE",
"1009 735 LINE"
);
}
);
width = 1063;
},
{
layerId = "5B189D8C-80C2-4E76-949E-52A655B49706";
paths = (
{
closed = 1;
nodes = (
"509 735 LINE",
"306 0 LINE",
"431 0 LINE",
"640 735 LINE"
);
},
{
closed = 1;
nodes = (
"727 0 LINE",
"855 0 LINE",
"640 735 LINE",
"512 735 LINE"
);
},
{
closed = 1;
nodes = (
"279 0 LINE",
"424 0 LINE",
"221 735 LINE",
"80 735 LINE"
);
},
{
closed = 1;
nodes = (
"929 735 LINE",
"734 0 LINE",
"876 0 LINE",
"1071 735 LINE"
);
}
);
width = 1031;
}
);
unicode = 0057;
},
{
glyphname = X;
lastChange = "2021-04-25 07:24:50 +0000";
layers = (
{
layerId = "EC678C9A-BAF7-4529-BA66-EDFBF106CBF7";
paths = (
{
closed = 1;
nodes = (
"171 735 LINE",
"672 0 LINE",
"539 0 LINE",
"30 735 LINE"
);
},
{
closed = 1;
nodes = (
"171 0 LINE",
"30 0 LINE",
"539 735 LINE",
"672 735 LINE"
);
}
);
width = 702;
},
{
layerId = "5B189D8C-80C2-4E76-949E-52A655B49706";
paths = (
{
closed = 1;
nodes = (
"589 0 LINE",
"752 0 LINE",
"247 735 LINE",
"84 735 LINE"
);
},
{
closed = 1;
nodes = (
"590 735 LINE",
"85 0 LINE",
"248 0 LINE",
"753 735 LINE"
);
}
);
width = 717;
}
);
unicode = 0058;
},
{
glyphname = Y;
lastChange = "2021-05-05 00:20:21 +0000";
layers = (
{
layerId = "EC678C9A-BAF7-4529-BA66-EDFBF106CBF7";
paths = (
{
closed = 1;
nodes = (
"399 302 LINE",
"298 363 LINE",
"534 735 LINE",
"671 735 LINE"
);
},
{
closed = 1;
nodes = (
"177 735 LINE",
"424 372 LINE",
"323 311 LINE",
"40 735 LINE"
);
},
{
closed = 1;
nodes = (
"421 0 LINE",
"306 0 LINE",
"306 337 LINE",
"421 337 LINE"
);
}
);
width = 711;
},
{
layerId = "5B189D8C-80C2-4E76-949E-52A655B49706";
paths = (
{
closed = 1;
nodes = (
"564 735 LINE",
"324 375 LINE",
"437 304 LINE",
"718 735 LINE"
);
},
{
closed = 1;
nodes = (
"361 304 LINE",
"469 387 LINE",
"233 735 LINE",
"80 735 LINE"
);
},
{
closed = 1;
nodes = (
"328 364 LINE",
"328 0 LINE",
"467 0 LINE",
"467 364 LINE"
);
}
);
width = 788;
}
);
unicode = 0059;
},
{
glyphname = Z;
lastChange = "2021-05-05 00:21:10 +0000";
layers = (
{
layerId = "EC678C9A-BAF7-4529-BA66-EDFBF106CBF7";
paths = (
{
closed = 1;
nodes = (
"431 628 LINE",
"40 107 LINE",
"194 107 LINE",
"585 628 LINE"
);
},
{
closed = 1;
nodes = (
"585 735 LINE",
"585 628 LINE",
"40 628 LINE",
"40 735 LINE"
);
},
{
closed = 1;
nodes = (
"585 107 LINE",
"585 0 LINE",
"40 0 LINE",
"40 107 LINE"
);
}
);
width = 625;
},
{
layerId = "5B189D8C-80C2-4E76-949E-52A655B49706";
paths = (
{
closed = 1;
nodes = (
"483 598 LINE",
"80 137 LINE",
"268 137 LINE",
"666 598 LINE"
);
},
{
closed = 1;
nodes = (
"666 735 LINE",
"666 598 LINE",
"104 598 LINE",
"104 735 LINE"
);
},
{
closed = 1;
nodes = (
"666 137 LINE",
"666 0 LINE",
"80 0 LINE",
"80 137 LINE"
);
}
);
width = 746;
}
);
unicode = 005A;
},
{
glyphname = a;
lastChange = "2021-05-05 00:07:16 +0000";
layers = (
{
layerId = "EC678C9A-BAF7-4529-BA66-EDFBF106CBF7";
paths = (
{
closed = 1;
nodes = (
"561 100 OFFCURVE",
"447 -6 OFFCURVE",
"308 -6 CURVE",
"162 -6 OFFCURVE",
"49 100 OFFCURVE",
"49 242 CURVE",
"49 386 OFFCURVE",
"162 506 OFFCURVE",
"308 506 CURVE",
"447 506 OFFCURVE",
"561 386 OFFCURVE",
"561 242 CURVE"
);
},
{
closed = 1;
nodes = (
"580 500 LINE",
"580 0 LINE",
"465 0 LINE",
"465 500 LINE"
);
},
{
closed = 1;
nodes = (
"465 324 OFFCURVE",
"401 394 OFFCURVE",
"313 394 CURVE SMOOTH",
"229 394 OFFCURVE",
"164 330 OFFCURVE",
"164 242 CURVE SMOOTH",
"164 166 OFFCURVE",
"229 105 OFFCURVE",
"313 105 CURVE SMOOTH",
"401 105 OFFCURVE",
"465 170 OFFCURVE",
"465 242 CURVE SMOOTH"
);
}
);
width = 620;
},
{
layerId = "5B189D8C-80C2-4E76-949E-52A655B49706";
paths = (
{
closed = 1;
nodes = (
"589 120 OFFCURVE",
"483 -8 OFFCURVE",
"333 -8 CURVE",
"192 -8 OFFCURVE",
"83 106 OFFCURVE",
"83 249 CURVE",
"83 391 OFFCURVE",
"192 507 OFFCURVE",
"333 507 CURVE",
"483 507 OFFCURVE",
"589 372 OFFCURVE",
"589 249 CURVE"
);
},
{
closed = 1;
nodes = (
"612 500 LINE",
"612 0 LINE",
"479 0 LINE",
"479 500 LINE"
);
},
{
closed = 1;
nodes = (
"479 322 OFFCURVE",
"423 377 OFFCURVE",
"350 377 CURVE SMOOTH",
"276 377 OFFCURVE",
"218 319 OFFCURVE",
"218 249 CURVE SMOOTH",
"218 179 OFFCURVE",
"276 122 OFFCURVE",
"350 122 CURVE SMOOTH",
"423 122 OFFCURVE",
"479 176 OFFCURVE",
"479 249 CURVE SMOOTH"
);
}
);
width = 705;
}
);
unicode = 0061;
},
{
glyphname = b;
lastChange = "2021-05-03 18:44:10 +0000";
layers = (
{
layerId = "EC678C9A-BAF7-4529-BA66-EDFBF106CBF7";
paths = (
{
closed = 1;
nodes = (
"51 735 LINE",
"51 0 LINE",
"166 0 LINE",
"166 735 LINE"
);
},
{
closed = 1;
nodes = (
"73 107 OFFCURVE",
"182 -6 OFFCURVE",
"319 -6 CURVE",
"459 -6 OFFCURVE",
"573 106 OFFCURVE",
"573 245 CURVE",
"573 383 OFFCURVE",
"459 506 OFFCURVE",
"319 506 CURVE",
"182 506 OFFCURVE",
"73 384 OFFCURVE",
"73 246 CURVE"
);
},
{
closed = 1;
nodes = (
"166 323 OFFCURVE",
"224 398 OFFCURVE",
"309 398 CURVE SMOOTH",
"407 398 OFFCURVE",
"458 318 OFFCURVE",
"458 245 CURVE SMOOTH",
"458 168 OFFCURVE",
"401 102 OFFCURVE",
"303 106 CURVE SMOOTH",
"218 109 OFFCURVE",
"166 168 OFFCURVE",
"166 246 CURVE SMOOTH"
);
}
);
width = 557;
},
{
layerId = "5B189D8C-80C2-4E76-949E-52A655B49706";
paths = (
{
closed = 1;
nodes = (
"80 735 LINE",
"80 0 LINE",
"213 0 LINE",
"213 735 LINE"
);
},
{
closed = 1;
nodes = (
"111 119 OFFCURVE",
"204 -7 OFFCURVE",
"356 -7 CURVE",
"498 -7 OFFCURVE",
"608 104 OFFCURVE",
"608 246 CURVE",
"608 389 OFFCURVE",
"498 507 OFFCURVE",
"356 507 CURVE",
"204 507 OFFCURVE",
"111 374 OFFCURVE",
"111 246 CURVE"
);
},
{
closed = 1;
nodes = (
"213 318 OFFCURVE",
"268 374 OFFCURVE",
"342 374 CURVE SMOOTH",
"410 374 OFFCURVE",
"468 318 OFFCURVE",
"468 246 CURVE SMOOTH",
"468 174 OFFCURVE",
"410 119 OFFCURVE",
"342 119 CURVE SMOOTH",
"268 119 OFFCURVE",
"213 174 OFFCURVE",
"213 246 CURVE SMOOTH"
);
}
);
width = 670;
}
);
unicode = 0062;
},
{
glyphname = c;
lastChange = "2021-04-30 23:00:23 +0000";
layers = (
{
layerId = "EC678C9A-BAF7-4529-BA66-EDFBF106CBF7";
paths = (
{
closed = 1;
nodes = (
"400 -7 OFFCURVE",
"485 51 OFFCURVE",
"526 134 CURVE",
"426 182 LINE",
"405 132 OFFCURVE",
"353 105 OFFCURVE",
"294 105 CURVE SMOOTH",
"209 105 OFFCURVE",
"154 168 OFFCURVE",
"154 250 CURVE SMOOTH",
"154 333 OFFCURVE",
"209 394 OFFCURVE",
"294 394 CURVE SMOOTH",
"362 394 OFFCURVE",
"401 358 OFFCURVE",
"425 310 CURVE",
"527 360 LINE",
"484 446 OFFCURVE",
"395 506 OFFCURVE",
"294 506 CURVE SMOOTH",
"158 506 OFFCURVE",
"39 391 OFFCURVE",
"39 250 CURVE SMOOTH",
"39 108 OFFCURVE",
"153 -7 OFFCURVE",
"294 -7 CURVE SMOOTH"
);
}
);
width = 536;
},
{
layerId = "5B189D8C-80C2-4E76-949E-52A655B49706";
paths = (
{
closed = 1;
nodes = (
"530 51 OFFCURVE",
"444 -7 OFFCURVE",
"338 -7 CURVE SMOOTH",
"193 -7 OFFCURVE",
"80 108 OFFCURVE",
"80 250 CURVE SMOOTH",
"80 392 OFFCURVE",
"198 507 OFFCURVE",
"338 507 CURVE SMOOTH",
"438 507 OFFCURVE",
"527 447 OFFCURVE",
"570 360 CURVE",
"439 299 LINE",
"422 338 OFFCURVE",
"387 367 OFFCURVE",
"340 367 CURVE SMOOTH",
"272 367 OFFCURVE",
"220 314 OFFCURVE",
"220 250 CURVE SMOOTH",
"220 186 OFFCURVE",
"272 133 OFFCURVE",
"340 133 CURVE SMOOTH",
"387 133 OFFCURVE",
"424 160 OFFCURVE",
"440 200 CURVE",
"570 138 LINE"
);
}
);
width = 636;
}
);
unicode = 0063;
},
{
glyphname = d;
lastChange = "2021-05-03 18:44:15 +0000";
layers = (
{
layerId = "EC678C9A-BAF7-4529-BA66-EDFBF106CBF7";
paths = (
{
closed = 1;
nodes = (
"562 735 LINE",
"562 0 LINE",
"447 0 LINE",
"447 735 LINE"
);
},
{
closed = 1;
nodes = (
"540 104 OFFCURVE",
"429 -8 OFFCURVE",
"288 -8 CURVE",
"147 -8 OFFCURVE",
"34 105 OFFCURVE",
"34 246 CURVE",
"34 387 OFFCURVE",
"147 500 OFFCURVE",
"288 500 CURVE",
"429 500 OFFCURVE",
"540 387 OFFCURVE",
"540 246 CURVE"
);
},
{
closed = 1;
nodes = (
"447 323 OFFCURVE",
"388 396 OFFCURVE",
"304 396 CURVE SMOOTH",
"216 396 OFFCURVE",
"149 329 OFFCURVE",
"149 246 CURVE SMOOTH",
"149 164 OFFCURVE",
"216 98 OFFCURVE",
"304 98 CURVE SMOOTH",
"388 98 OFFCURVE",
"447 170 OFFCURVE",
"447 246 CURVE SMOOTH"
);
}
);
width = 627;
},
{
layerId = "5B189D8C-80C2-4E76-949E-52A655B49706";
paths = (
{
closed = 1;
nodes = (
"615 735 LINE",
"615 0 LINE",
"482 0 LINE",
"482 735 LINE"
);
},
{
closed = 1;
nodes = (
"583 117 OFFCURVE",
"489 -9 OFFCURVE",
"336 -9 CURVE",
"193 -9 OFFCURVE",
"84 101 OFFCURVE",
"84 246 CURVE",
"84 389 OFFCURVE",
"193 507 OFFCURVE",
"336 507 CURVE",
"489 507 OFFCURVE",
"583 374 OFFCURVE",
"583 246 CURVE"
);
},
{
closed = 1;
nodes = (
"482 318 OFFCURVE",
"425 374 OFFCURVE",
"353 374 CURVE SMOOTH",
"280 374 OFFCURVE",
"224 318 OFFCURVE",
"224 246 CURVE SMOOTH",
"224 174 OFFCURVE",
"280 117 OFFCURVE",
"353 117 CURVE SMOOTH",
"425 117 OFFCURVE",
"482 174 OFFCURVE",
"482 246 CURVE SMOOTH"
);
}
);
width = 695;
}
);
unicode = 0064;
},
{
glyphname = e;
lastChange = "2021-05-03 18:45:27 +0000";
layers = (
{
layerId = "EC678C9A-BAF7-4529-BA66-EDFBF106CBF7";
paths = (
{
closed = 1;
nodes = (
"79 201 LINE",
"133 201 LINE",
"221 201 LINE",
"296 201 LINE",
"399 201 LINE",
"423 201 LINE",
"468 201 LINE",
"506 201 LINE",
"506 201 LINE",
"447 292 LINE",
"399 292 LINE",
"126 293 LINE",
"79 293 LINE"
);
},
{
closed = 1;
nodes = (
"121 502 OFFCURVE",
"18 380 OFFCURVE",
"18 246 CURVE",
"18 112 OFFCURVE",
"122 -11 OFFCURVE",
"273 -10 CURVE",
"371 -10 OFFCURVE",
"454 51 OFFCURVE",
"490 111 CURVE",
"399 157 LINE",
"376 122 OFFCURVE",
"345 97 OFFCURVE",
"273 97 CURVE",
"205 97 OFFCURVE",
"151 142 OFFCURVE",
"135 201 CURVE",
"221 201 LINE",
"296 201 LINE",
"399 201 LINE",
"423 201 LINE",
"468 201 LINE",
"506 201 LINE",
"506 201 LINE",
"506 201 LINE",
"506 201 LINE",
"535 381 OFFCURVE",
"407 504 OFFCURVE",
"273 504 CURVE"
);
},
{
closed = 1;
nodes = (
"340 397 OFFCURVE",
"385 344 OFFCURVE",
"399 292 CURVE",
"133 293 LINE",
"156 352 OFFCURVE",
"205 397 OFFCURVE",
"273 397 CURVE SMOOTH"
);
}
);
width = 532;
},
{
layerId = "5B189D8C-80C2-4E76-949E-52A655B49706";
paths = (
{
closed = 1;
nodes = (
"177 309 LINE",
"410 309 LINE",
"426 309 LINE",
"544 197 LINE",
"433 197 LINE",
"414 197 LINE",
"332 197 LINE",
"247 197 LINE",
"173 197 LINE",
"109 197 LINE",
"109 309 LINE"
);
},
{
closed = 1;
nodes = (
"177 309 LINE",
"410 309 LINE",
"426 309 LINE",
"544 197 LINE",
"433 197 LINE",
"414 197 LINE",
"332 197 LINE",
"247 197 LINE",
"173 197 LINE",
"109 197 LINE",
"109 309 LINE"
);
},
{
closed = 1;
nodes = (
"159 507 OFFCURVE",
"39 391 OFFCURVE",
"39 249 CURVE",
"39 107 OFFCURVE",
"153 -7 OFFCURVE",
"298 -7 CURVE",
"403 -7 OFFCURVE",
"486 45 OFFCURVE",
"525 105 CURVE",
"409 161 LINE",
"387 139 OFFCURVE",
"360 125 OFFCURVE",
"330 118 CURVE",
"319 116 OFFCURVE",
"308 115 OFFCURVE",
"297 114 CURVE",
"240 115 OFFCURVE",
"193 149 OFFCURVE",
"173 197 CURVE",
"247 197 LINE",
"332 197 LINE",
"414 197 LINE",
"433 197 LINE",
"544 197 LINE",
"574 390 OFFCURVE",
"437 507 OFFCURVE",
"298 507 CURVE"
);
},
{
closed = 1;
nodes = (
"179 309 LINE",
"199 355 OFFCURVE",
"244 384 OFFCURVE",
"298 384 CURVE SMOOTH",
"351 384 OFFCURVE",
"390 352 OFFCURVE",
"410 309 CURVE"
);
}
);
width = 601;
}
);
unicode = 0065;
},
{
glyphname = f;
lastChange = "2021-05-03 18:46:01 +0000";
layers = (
{
layerId = "EC678C9A-BAF7-4529-BA66-EDFBF106CBF7";
paths = (
{
closed = 1;
nodes = (
"402 500 LINE",
"402 395 LINE",
"50 395 LINE",
"50 500 LINE"
);
},
{
closed = 1;
nodes = (
"160 735 OFFCURVE",
"143 601 OFFCURVE",
"143 515 CURVE",
"258 515 LINE",
"258 578 OFFCURVE",
"258 632 OFFCURVE",
"343 632 CURVE",
"402 632 LINE",
"402 735 LINE",
"364 735 OFFCURVE",
"347 735 OFFCURVE",
"324 735 CURVE",
"324 735 LINE"
);
},
{
closed = 1;
nodes = (
"258 515 LINE",
"258 0 LINE",
"143 0 LINE",
"143 515 LINE"
);
}
);
width = 432;
},
{
layerId = "5B189D8C-80C2-4E76-949E-52A655B49706";
paths = (
{
closed = 1;
nodes = (
"80 374 LINE",
"431 374 LINE",
"431 500 LINE",
"80 500 LINE"
);
},
{
closed = 1;
nodes = (
"189 735 OFFCURVE",
"173 586 OFFCURVE",
"173 500 CURVE",
"306 500 LINE",
"306 538 OFFCURVE",
"303 608 OFFCURVE",
"368 608 CURVE",
"431 608 LINE",
"431 735 LINE",
"391 735 OFFCURVE",
"384 735 OFFCURVE",
"338 735 CURVE"
);
},
{
closed = 1;
nodes = (
"173 0 LINE",
"306 0 LINE",
"306 523 LINE",
"174 523 LINE"
);
}
);
width = 556;
}
);
unicode = 0066;
},
{
glyphname = g;
lastChange = "2021-04-30 23:10:59 +0000";
layers = (
{
anchors = (
{
name = bottom;
position = "{288, -200}";
},
{
name = top;
position = "{288, 500}";
}
);
layerId = "EC678C9A-BAF7-4529-BA66-EDFBF106CBF7";
paths = (
{
closed = 1;
nodes = (
"556 500 LINE",
"556 25 LINE",
"441 25 LINE",
"441 500 LINE"
);
},
{
closed = 1;
nodes = (
"96 -174 OFFCURVE",
"176 -230 OFFCURVE",
"279 -230 CURVE",
"432 -230 OFFCURVE",
"556 -128 OFFCURVE",
"556 25 CURVE",
"441 25 LINE",
"440 -47 OFFCURVE",
"381 -118 OFFCURVE",
"284 -118 CURVE",
"204 -118 OFFCURVE",
"164 -78 OFFCURVE",
"139 -51 CURVE",
"50 -113 LINE"
);
},
{
closed = 1;
nodes = (
"535 107 OFFCURVE",
"424 -7 OFFCURVE",
"282 -7 CURVE",
"137 -7 OFFCURVE",
"25 107 OFFCURVE",
"25 247 CURVE",
"25 391 OFFCURVE",
"137 507 OFFCURVE",
"282 507 CURVE",
"424 507 OFFCURVE",
"535 392 OFFCURVE",
"535 247 CURVE"
);
},
{
closed = 1;
nodes = (
"441 325 OFFCURVE",
"379 399 OFFCURVE",
"294 399 CURVE SMOOTH",
"207 399 OFFCURVE",
"140 331 OFFCURVE",
"140 247 CURVE SMOOTH",
"140 166 OFFCURVE",
"207 101 OFFCURVE",
"294 101 CURVE SMOOTH",
"379 101 OFFCURVE",
"441 171 OFFCURVE",
"441 247 CURVE SMOOTH"
);
}
);
width = 597;
},
{
layerId = "5B189D8C-80C2-4E76-949E-52A655B49706";
paths = (
{
closed = 1;
nodes = (
"158 -184 OFFCURVE",
"235 -230 OFFCURVE",
"337 -230 CURVE",
"489 -230 OFFCURVE",
"601 -110 OFFCURVE",
"595 40 CURVE",
"462 40 LINE",
"462 40 LINE",
"468 -30 OFFCURVE",
"418 -104 OFFCURVE",
"345 -104 CURVE",
"307 -104 OFFCURVE",
"243 -88 OFFCURVE",
"212 -38 CURVE",
"117 -119 LINE"
);
},
{
closed = 1;
nodes = (
"573 326 OFFCURVE",
"525 405 OFFCURVE",
"462 461 CURVE",
"462 40 LINE",
"462 40 LINE",
"532 88 OFFCURVE",
"573 168 OFFCURVE",
"573 254 CURVE"
);
},
{
closed = 1;
nodes = (
"462 500 LINE",
"462 461 LINE",
"525 405 OFFCURVE",
"573 326 OFFCURVE",
"573 254 CURVE",
"573 168 OFFCURVE",
"532 88 OFFCURVE",
"462 40 CURVE",
"462 40 LINE",
"454 40 LINE",
"454 40 OFFCURVE",
"454 32 OFFCURVE",
"454 32 CURVE",
"454 32 OFFCURVE",
"462 40 OFFCURVE",
"462 40 CURVE",
"595 40 LINE",
"595 500 LINE"
);
},
{
closed = 1;
nodes = (
"407 120 OFFCURVE",
"462 175 OFFCURVE",
"462 250 CURVE",
"462 321 OFFCURVE",
"407 375 OFFCURVE",
"329 375 CURVE",
"261 375 OFFCURVE",
"207 321 OFFCURVE",
"207 250 CURVE",
"207 175 OFFCURVE",
"261 120 OFFCURVE",
"329 120 CURVE"
);
},
{
closed = 1;
nodes = (
"462 175 OFFCURVE",
"407 120 OFFCURVE",
"329 120 CURVE",
"261 120 OFFCURVE",
"207 182 OFFCURVE",
"207 250 CURVE",
"207 313 OFFCURVE",
"261 375 OFFCURVE",
"329 375 CURVE",
"407 375 OFFCURVE",
"462 321 OFFCURVE",
"462 250 CURVE"
);
},
{
closed = 1;
nodes = (
"74 112 OFFCURVE",
"177 -7 OFFCURVE",
"318 -7 CURVE",
"366 -7 OFFCURVE",
"414 9 OFFCURVE",
"454 32 CURVE SMOOTH",
"454 32 OFFCURVE",
"454 40 OFFCURVE",
"454 40 CURVE",
"462 40 LINE",
"462 461 LINE",
"421 485 OFFCURVE",
"374 508 OFFCURVE",
"318 508 CURVE",
"177 508 OFFCURVE",
"74 390 OFFCURVE",
"74 254 CURVE"
);
},
{
closed = 1;
nodes = (
"462 175 OFFCURVE",
"407 120 OFFCURVE",
"329 120 CURVE SMOOTH",
"261 120 OFFCURVE",
"207 175 OFFCURVE",
"207 250 CURVE SMOOTH",
"207 321 OFFCURVE",
"261 375 OFFCURVE",
"329 375 CURVE SMOOTH",
"407 375 OFFCURVE",
"462 321 OFFCURVE",
"462 250 CURVE SMOOTH"
);
}
);
width = 675;
}
);
unicode = 0067;
},
{
glyphname = h;
lastChange = "2021-04-30 23:16:53 +0000";
layers = (
{
layerId = "EC678C9A-BAF7-4529-BA66-EDFBF106CBF7";
paths = (
{
closed = 1;
nodes = (
"511 312 LINE",
"511 0 LINE",
"396 0 LINE",
"396 305 LINE"
);
},
{
closed = 1;
nodes = (
"432 500 OFFCURVE",
"511 413 OFFCURVE",
"511 312 CURVE",
"396 288 LINE",
"396 327 OFFCURVE",
"374 393 OFFCURVE",
"280 393 CURVE",
"193 393 OFFCURVE",
"162 327 OFFCURVE",
"162 272 CURVE",
"107 358 LINE",
"123 437 OFFCURVE",
"169 500 OFFCURVE",
"311 500 CURVE"
);
},
{
closed = 1;
nodes = (
"162 735 LINE",
"162 0 LINE",
"47 0 LINE",
"47 735 LINE"
);
}
);
width = 553;
},
{
layerId = "5B189D8C-80C2-4E76-949E-52A655B49706";
paths = (
{
closed = 1;
nodes = (
"213 734 LINE",
"213 -1 LINE",
"80 0 LINE",
"80 735 LINE"
);
},
{
closed = 1;
nodes = (
"565 311 LINE",
"565 0 LINE",
"432 0 LINE",
"432 280 LINE"
);
},
{
closed = 1;
nodes = (
"503 512 OFFCURVE",
"565 414 OFFCURVE",
"565 311 CURVE",
"432 271 LINE",
"432 326 OFFCURVE",
"400 367 OFFCURVE",
"327 367 CURVE SMOOTH",
"264 367 OFFCURVE",
"213 319 OFFCURVE",
"213 271 CURVE",
"184 336 LINE SMOOTH",
"162 384 OFFCURVE",
"223 512 OFFCURVE",
"368 512 CURVE SMOOTH"
);
}
);
width = 655;
}
);
unicode = 0068;
},
{
glyphname = i;
lastChange = "2021-04-30 23:20:14 +0000";
layers = (
{
layerId = "EC678C9A-BAF7-4529-BA66-EDFBF106CBF7";
paths = (
{
closed = 1;
nodes = (
"164 714 OFFCURVE",
"195 684 OFFCURVE",
"195 647 CURVE",
"195 611 OFFCURVE",
"164 581 OFFCURVE",
"128 581 CURVE",
"91 581 OFFCURVE",
"60 611 OFFCURVE",
"60 647 CURVE",
"60 684 OFFCURVE",
"91 714 OFFCURVE",
"128 714 CURVE"
);
},
{
closed = 1;
nodes = (
"185 500 LINE",
"185 0 LINE",
"70 0 LINE",
"70 500 LINE"
);
}
);
width = 235;
},
{
layerId = "5B189D8C-80C2-4E76-949E-52A655B49706";
paths = (
{
closed = 1;
nodes = (
"206 746 OFFCURVE",
"243 710 OFFCURVE",
"243 666 CURVE",
"243 621 OFFCURVE",
"206 585 OFFCURVE",
"161 585 CURVE",
"118 585 OFFCURVE",
"81 621 OFFCURVE",
"81 666 CURVE",
"81 710 OFFCURVE",
"118 746 OFFCURVE",
"161 746 CURVE"
);
},
{
closed = 1;
nodes = (
"229 500 LINE",
"229 0 LINE",
"96 0 LINE",
"96 500 LINE"
);
}
);
width = 335;
}
);
unicode = 0069;
},
{
glyphname = j;
lastChange = "2021-04-30 23:22:17 +0000";
layers = (
{
layerId = "EC678C9A-BAF7-4529-BA66-EDFBF106CBF7";
paths = (
{
closed = 1;
nodes = (
"298 735 OFFCURVE",
"331 704 OFFCURVE",
"331 671 CURVE",
"331 631 OFFCURVE",
"298 599 OFFCURVE",
"267 599 CURVE",
"227 599 OFFCURVE",
"194 631 OFFCURVE",
"194 671 CURVE",
"194 704 OFFCURVE",
"227 735 OFFCURVE",
"267 735 CURVE"
);
},
{
closed = 1;
nodes = (
"275 -230 OFFCURVE",
"325 -121 OFFCURVE",
"325 0 CURVE",
"210 0 LINE",
"208 -39 OFFCURVE",
"203 -125 OFFCURVE",
"107 -125 CURVE",
"88 -125 OFFCURVE",
"67 -123 OFFCURVE",
"50 -118 CURVE",
"50 -223 LINE",
"94 -230 OFFCURVE",
"99 -230 OFFCURVE",
"146 -230 CURVE"
);
},
{
closed = 1;
nodes = (
"325 500 LINE",
"325 0 LINE",
"210 0 LINE",
"210 500 LINE"
);
}
);
width = 411;
},
{
layerId = "5B189D8C-80C2-4E76-949E-52A655B49706";
paths = (
{
closed = 1;
nodes = (
"390 -230 OFFCURVE",
"416 -98 OFFCURVE",
"416 0 CURVE",
"283 0 LINE",
"283 -39 OFFCURVE",
"259 -107 OFFCURVE",
"221 -107 CURVE",
"205 -107 OFFCURVE",
"197 -107 OFFCURVE",
"165 -107 CURVE",
"165 -230 LINE",
"197 -230 OFFCURVE",
"214 -230 OFFCURVE",
"259 -230 CURVE"
);
},
{
closed = 1;
nodes = (
"391 745 OFFCURVE",
"430 707 OFFCURVE",
"430 666 CURVE",
"430 621 OFFCURVE",
"391 584 OFFCURVE",
"349 584 CURVE",
"303 584 OFFCURVE",
"268 621 OFFCURVE",
"268 666 CURVE",
"268 707 OFFCURVE",
"303 745 OFFCURVE",
"349 745 CURVE"
);
},
{
closed = 1;
nodes = (
"416 500 LINE",
"416 0 LINE",
"283 0 LINE",
"283 500 LINE"
);
}
);
width = 600;
}
);
unicode = 006A;
},
{
glyphname = k;
lastChange = "2021-04-25 06:20:09 +0000";
layers = (
{
layerId = "EC678C9A-BAF7-4529-BA66-EDFBF106CBF7";
paths = (
{
closed = 1;
nodes = (
"503 500 LINE",
"158 101 LINE",
"93 182 LINE",
"354 500 LINE"
);
},
{
closed = 1;
nodes = (
"187 271 LINE",
"270 339 LINE",
"523 0 LINE",
"383 0 LINE"
);
},
{
closed = 1;
nodes = (
"165 735 LINE",
"165 0 LINE",
"50 0 LINE",
"50 735 LINE"
);
}
);
width = 523;
},
{
layerId = "5B189D8C-80C2-4E76-949E-52A655B49706";
paths = (
{
closed = 1;
nodes = (
"301 734 LINE",
"301 0 LINE",
"168 0 LINE",
"168 735 LINE"
);
},
{
closed = 1;
nodes = (
"301 735 LINE",
"301 0 LINE",
"168 0 LINE",
"168 735 LINE"
);
},
{
closed = 1;
nodes = (
"622 500 LINE",
"259 104 LINE",
"176 177 LINE",
"456 500 LINE"
);
},
{
closed = 1;
nodes = (
"288 255 LINE",
"386 336 LINE",
"654 0 LINE",
"491 0 LINE"
);
}
);
width = 743;
}
);
unicode = 006B;
},
{
glyphname = l;
lastChange = "2021-05-05 00:07:17 +0000";
layers = (
{
layerId = "EC678C9A-BAF7-4529-BA66-EDFBF106CBF7";
paths = (
{
closed = 1;
nodes = (
"175 735 LINE",
"175 152 LINE",
"60 152 LINE",
"60 735 LINE"
);
},
{
closed = 1;
nodes = (
"60 20 OFFCURVE",
"118 -14 OFFCURVE",
"242 6 CURVE",
"242 96 LINE",
"186 96 OFFCURVE",
"175 96 OFFCURVE",
"175 152 CURVE",
"60 152 LINE"
);
},
{
closed = 1;
nodes = (
"175 735 LINE",
"175 152 LINE",
"60 152 LINE",
"60 735 LINE"
);
},
{
closed = 1;
nodes = (
"60 20 OFFCURVE",
"118 -14 OFFCURVE",
"242 6 CURVE",
"242 96 LINE",
"186 96 OFFCURVE",
"175 96 OFFCURVE",
"175 152 CURVE",
"60 152 LINE"
);
}
);
width = 252;
},
{
layerId = "5B189D8C-80C2-4E76-949E-52A655B49706";
paths = (
{
closed = 1;
nodes = (
"213 735 LINE",
"213 159 LINE",
"80 159 LINE",
"80 735 LINE"
);
},
{
closed = 1;
nodes = (
"80 30 OFFCURVE",
"165 -22 OFFCURVE",
"283 0 CURVE",
"283 97 LINE",
"228 97 OFFCURVE",
"213 102 OFFCURVE",
"213 159 CURVE",
"80 159 LINE"
);
}
);
width = 366;
}
);
unicode = 006C;
},
{
glyphname = m;
lastChange = "2021-05-04 23:42:45 +0000";
layers = (
{
layerId = "EC678C9A-BAF7-4529-BA66-EDFBF106CBF7";
paths = (
{
closed = 1;
nodes = (
"463 317 LINE",
"463 0 LINE",
"348 0 LINE",
"348 302 LINE"
);
},
{
closed = 1;
nodes = (
"784 317 LINE",
"784 0 LINE",
"669 0 LINE",
"669 302 LINE"
);
},
{
closed = 1;
nodes = (
"395 516 OFFCURVE",
"461 413 OFFCURVE",
"461 309 CURVE",
"348 293 LINE",
"348 334 OFFCURVE",
"331 405 OFFCURVE",
"245 405 CURVE",
"156 405 OFFCURVE",
"140 340 OFFCURVE",
"140 286 CURVE",
"83 357 LINE",
"98 436 OFFCURVE",
"140 516 OFFCURVE",
"268 516 CURVE"
);
},
{
closed = 1;
nodes = (
"723 516 OFFCURVE",
"784 420 OFFCURVE",
"784 316 CURVE",
"669 293 LINE",
"669 334 OFFCURVE",
"650 405 OFFCURVE",
"561 405 CURVE",
"483 405 OFFCURVE",
"463 340 OFFCURVE",
"463 286 CURVE",
"404 357 LINE",
"421 436 OFFCURVE",
"465 516 OFFCURVE",
"593 516 CURVE"
);
},
{
closed = 1;
nodes = (
"140 500 LINE",
"140 0 LINE",
"25 0 LINE",
"25 500 LINE"
);
}
);
width = 832;
},
{
layerId = "5B189D8C-80C2-4E76-949E-52A655B49706";
paths = (
{
closed = 1;
nodes = (
"213 500 LINE",
"213 0 LINE",
"80 0 LINE",
"80 500 LINE"
);
},
{
closed = 1;
nodes = (
"520 317 LINE",
"520 0 LINE",
"387 0 LINE",
"387 309 LINE"
);
},
{
closed = 1;
nodes = (
"827 317 LINE",
"827 0 LINE",
"694 0 LINE",
"694 309 LINE"
);
},
{
closed = 1;
nodes = (
"456 507 OFFCURVE",
"520 412 OFFCURVE",
"520 309 CURVE",
"387 285 LINE",
"387 325 OFFCURVE",
"348 365 OFFCURVE",
"300 365 CURVE",
"252 365 OFFCURVE",
"213 325 OFFCURVE",
"213 278 CURVE",
"181 333 LINE",
"165 365 OFFCURVE",
"221 507 OFFCURVE",
"348 507 CURVE"
);
},
{
closed = 1;
nodes = (
"764 507 OFFCURVE",
"827 412 OFFCURVE",
"827 309 CURVE",
"694 285 LINE",
"694 325 OFFCURVE",
"655 365 OFFCURVE",
"607 365 CURVE",
"560 365 OFFCURVE",
"520 325 OFFCURVE",
"520 278 CURVE",
"488 333 LINE",
"472 365 OFFCURVE",
"528 507 OFFCURVE",
"655 507 CURVE"
);
},
{
closed = 1;
nodes = (
"764 507 OFFCURVE",
"827 412 OFFCURVE",
"827 309 CURVE",
"694 301 LINE",
"694 341 OFFCURVE",
"655 381 OFFCURVE",
"607 381 CURVE SMOOTH",
"560 381 OFFCURVE",
"520 349 OFFCURVE",
"520 301 CURVE",
"449 373 LINE",
"480 444 OFFCURVE",
"528 507 OFFCURVE",
"655 507 CURVE SMOOTH"
);
}
);
width = 937;
}
);
unicode = 006D;
},
{
glyphname = n;
lastChange = "2021-05-05 00:07:13 +0000";
layers = (
{
layerId = "EC678C9A-BAF7-4529-BA66-EDFBF106CBF7";
paths = (
{
closed = 1;
nodes = (
"540 314 LINE",
"540 0 LINE",
"425 0 LINE",
"425 299 LINE"
);
},
{
closed = 1;
nodes = (
"460 516 OFFCURVE",
"540 417 OFFCURVE",
"540 313 CURVE",
"425 282 LINE",
"425 331 OFFCURVE",
"399 403 OFFCURVE",
"296 403 CURVE",
"203 403 OFFCURVE",
"169 331 OFFCURVE",
"169 274 CURVE",
"109 354 LINE",
"126 435 OFFCURVE",
"179 516 OFFCURVE",
"331 516 CURVE"
);
},
{
closed = 1;
nodes = (
"169 500 LINE",
"169 0 LINE",
"54 0 LINE",
"54 500 LINE"
);
}
);
width = 604;
},
{
layerId = "5B189D8C-80C2-4E76-949E-52A655B49706";
paths = (
{
closed = 1;
nodes = (
"213 500 LINE",
"213 0 LINE",
"80 0 LINE",
"80 500 LINE"
);
},
{
closed = 1;
nodes = (
"552 310 LINE",
"552 0 LINE",
"419 0 LINE",
"419 278 LINE"
);
},
{
closed = 1;
nodes = (
"480 506 OFFCURVE",
"552 414 OFFCURVE",
"552 310 CURVE",
"419 267 LINE",
"419 321 OFFCURVE",
"386 365 OFFCURVE",
"316 365 CURVE SMOOTH",
"256 365 OFFCURVE",
"213 316 OFFCURVE",
"213 267 CURVE",
"174 332 LINE SMOOTH",
"147 378 OFFCURVE",
"213 506 OFFCURVE",
"354 506 CURVE SMOOTH"
);
}
);
width = 649;
}
);
unicode = 006E;
},
{
glyphname = o;
lastChange = "2021-05-04 23:49:30 +0000";
layers = (
{
layerId = "EC678C9A-BAF7-4529-BA66-EDFBF106CBF7";
paths = (
{
closed = 1;
nodes = (
"421 -8 OFFCURVE",
"535 108 OFFCURVE",
"535 250 CURVE SMOOTH",
"535 391 OFFCURVE",
"421 507 OFFCURVE",
"279 507 CURVE SMOOTH",
"138 507 OFFCURVE",
"25 391 OFFCURVE",
"25 250 CURVE SMOOTH",
"25 108 OFFCURVE",
"138 -8 OFFCURVE",
"279 -8 CURVE SMOOTH"
);
},
{
closed = 1;
nodes = (
"201 107 OFFCURVE",
"139 173 OFFCURVE",
"139 250 CURVE SMOOTH",
"139 326 OFFCURVE",
"201 392 OFFCURVE",
"279 392 CURVE SMOOTH",
"358 392 OFFCURVE",
"421 326 OFFCURVE",
"421 250 CURVE SMOOTH",
"421 173 OFFCURVE",
"358 107 OFFCURVE",
"279 107 CURVE SMOOTH"
);
}
);
width = 557;
},
{
layerId = "5B189D8C-80C2-4E76-949E-52A655B49706";
paths = (
{
closed = 1;
nodes = (
"474 -10 OFFCURVE",
"591 106 OFFCURVE",
"591 246 CURVE SMOOTH",
"591 387 OFFCURVE",
"474 503 OFFCURVE",
"334 503 CURVE SMOOTH",
"194 503 OFFCURVE",
"78 387 OFFCURVE",
"78 246 CURVE SMOOTH",
"78 106 OFFCURVE",
"194 -10 OFFCURVE",
"334 -10 CURVE SMOOTH"
);
},
{
closed = 1;
nodes = (
"264 123 OFFCURVE",
"211 176 OFFCURVE",
"211 246 CURVE SMOOTH",
"211 315 OFFCURVE",
"264 370 OFFCURVE",
"334 370 CURVE SMOOTH",
"403 370 OFFCURVE",
"458 315 OFFCURVE",
"458 246 CURVE SMOOTH",
"458 176 OFFCURVE",
"403 123 OFFCURVE",
"334 123 CURVE SMOOTH"
);
}
);
width = 664;
}
);
unicode = 006F;
},
{
glyphname = p;
lastChange = "2021-05-03 18:51:10 +0000";
layers = (
{
layerId = "EC678C9A-BAF7-4529-BA66-EDFBF106CBF7";
paths = (
{
closed = 1;
nodes = (
"59 500 LINE",
"60 -230 LINE",
"175 -230 LINE",
"174 500 LINE"
);
},
{
closed = 1;
nodes = (
"82 110 OFFCURVE",
"194 -5 OFFCURVE",
"338 -5 CURVE",
"480 -5 OFFCURVE",
"598 111 OFFCURVE",
"598 251 CURVE",
"598 393 OFFCURVE",
"480 508 OFFCURVE",
"339 508 CURVE",
"194 508 OFFCURVE",
"82 393 OFFCURVE",
"82 251 CURVE"
);
},
{
closed = 1;
nodes = (
"175 327 OFFCURVE",
"244 400 OFFCURVE",
"330 400 CURVE SMOOTH",
"417 400 OFFCURVE",
"483 332 OFFCURVE",
"483 251 CURVE SMOOTH",
"483 168 OFFCURVE",
"417 103 OFFCURVE",
"330 103 CURVE SMOOTH",
"244 103 OFFCURVE",
"175 173 OFFCURVE",
"175 251 CURVE SMOOTH"
);
}
);
width = 608;
},
{
layerId = "5B189D8C-80C2-4E76-949E-52A655B49706";
paths = (
{
closed = 1;
nodes = (
"28 500 LINE",
"28 -230 LINE",
"161 -230 LINE",
"161 500 LINE"
);
},
{
closed = 1;
nodes = (
"48 118 OFFCURVE",
"161 -4 OFFCURVE",
"301 -4 CURVE",
"445 -4 OFFCURVE",
"559 110 OFFCURVE",
"559 254 CURVE",
"559 395 OFFCURVE",
"445 507 OFFCURVE",
"301 507 CURVE",
"152 507 OFFCURVE",
"48 372 OFFCURVE",
"48 254 CURVE"
);
},
{
closed = 1;
nodes = (
"161 324 OFFCURVE",
"216 381 OFFCURVE",
"286 381 CURVE SMOOTH",
"365 381 OFFCURVE",
"419 324 OFFCURVE",
"419 254 CURVE SMOOTH",
"419 182 OFFCURVE",
"365 123 OFFCURVE",
"286 123 CURVE SMOOTH",
"216 123 OFFCURVE",
"161 182 OFFCURVE",
"161 254 CURVE SMOOTH"
);
}
);
width = 600;
}
);
unicode = 0070;
},
{
glyphname = q;
lastChange = "2021-05-03 18:50:50 +0000";
layers = (
{
layerId = "EC678C9A-BAF7-4529-BA66-EDFBF106CBF7";
paths = (
{
closed = 1;
nodes = (
"581 500 LINE",
"581 -230 LINE",
"466 -230 LINE",
"466 500 LINE"
);
},
{
closed = 1;
nodes = (
"561 109 OFFCURVE",
"448 -5 OFFCURVE",
"305 -5 CURVE",
"161 -5 OFFCURVE",
"46 109 OFFCURVE",
"46 249 CURVE",
"46 392 OFFCURVE",
"161 508 OFFCURVE",
"305 508 CURVE",
"448 508 OFFCURVE",
"561 393 OFFCURVE",
"561 249 CURVE"
);
},
{
closed = 1;
nodes = (
"466 327 OFFCURVE",
"402 400 OFFCURVE",
"315 400 CURVE SMOOTH",
"230 400 OFFCURVE",
"161 333 OFFCURVE",
"161 249 CURVE SMOOTH",
"161 168 OFFCURVE",
"230 103 OFFCURVE",
"315 103 CURVE SMOOTH",
"402 103 OFFCURVE",
"466 175 OFFCURVE",
"466 249 CURVE SMOOTH"
);
}
);
width = 638;
},
{
layerId = "5B189D8C-80C2-4E76-949E-52A655B49706";
paths = (
{
closed = 1;
nodes = (
"611 500 LINE",
"611 -230 LINE",
"478 -230 LINE",
"478 500 LINE"
);
},
{
closed = 1;
nodes = (
"585 128 OFFCURVE",
"482 -7 OFFCURVE",
"333 -7 CURVE",
"194 -7 OFFCURVE",
"85 116 OFFCURVE",
"85 256 CURVE",
"85 396 OFFCURVE",
"194 509 OFFCURVE",
"333 509 CURVE",
"482 509 OFFCURVE",
"585 378 OFFCURVE",
"585 256 CURVE"
);
},
{
closed = 1;
nodes = (
"478 329 OFFCURVE",
"421 383 OFFCURVE",
"348 383 CURVE SMOOTH",
"278 383 OFFCURVE",
"225 326 OFFCURVE",
"225 256 CURVE SMOOTH",
"225 187 OFFCURVE",
"278 120 OFFCURVE",
"348 120 CURVE SMOOTH",
"421 120 OFFCURVE",
"478 184 OFFCURVE",
"478 256 CURVE SMOOTH"
);
}
);
width = 684;
}
);
unicode = 0071;
},
{
glyphname = r;
lastChange = "2021-05-03 18:52:34 +0000";
layers = (
{
layerId = "EC678C9A-BAF7-4529-BA66-EDFBF106CBF7";
paths = (
{
closed = 1;
nodes = (
"182 500 LINE",
"182 0 LINE",
"67 0 LINE",
"67 500 LINE"
);
},
{
closed = 1;
nodes = (
"182 500 LINE",
"182 0 LINE",
"67 0 LINE",
"67 500 LINE"
);
},
{
closed = 1;
nodes = (
"340 514 OFFCURVE",
"352 512 OFFCURVE",
"352 512 CURVE",
"352 403 LINE",
"345 403 OFFCURVE",
"328 403 OFFCURVE",
"304 403 CURVE SMOOTH",
"197 403 OFFCURVE",
"182 315 OFFCURVE",
"182 261 CURVE",
"124 322 LINE",
"141 403 OFFCURVE",
"179 516 OFFCURVE",
"332 514 CURVE SMOOTH"
);
}
);
width = 386;
},
{
layerId = "5B189D8C-80C2-4E76-949E-52A655B49706";
paths = (
{
closed = 1;
nodes = (
"213 437 LINE",
"181 390 OFFCURVE",
"165 334 OFFCURVE",
"154 295 CURVE",
"213 207 LINE"
);
},
{
closed = 1;
nodes = (
"80 500 LINE",
"80 0 LINE",
"213 0 LINE",
"213 207 LINE",
"154 295 LINE",
"165 334 OFFCURVE",
"181 390 OFFCURVE",
"213 437 CURVE",
"213 500 LINE"
);
},
{
closed = 1;
nodes = (
"436 502 LINE",
"420 502 OFFCURVE",
"396 509 OFFCURVE",
"372 509 CURVE SMOOTH",
"364 509 OFFCURVE",
"364 509 OFFCURVE",
"356 509 CURVE SMOOTH",
"292 509 OFFCURVE",
"245 477 OFFCURVE",
"213 437 CURVE SMOOTH",
"181 390 OFFCURVE",
"165 334 OFFCURVE",
"154 295 CURVE",
"213 207 LINE",
"213 279 OFFCURVE",
"268 368 OFFCURVE",
"372 368 CURVE SMOOTH",
"372 368 OFFCURVE",
"372 368 OFFCURVE",
"372 368 CURVE SMOOTH",
"372 368 OFFCURVE",
"379 368 OFFCURVE",
"379 368 CURVE SMOOTH",
"380 368 OFFCURVE",
"388 368 OFFCURVE",
"396 368 CURVE SMOOTH",
"404 368 OFFCURVE",
"420 368 OFFCURVE",
"436 362 CURVE"
);
}
);
width = 532;
}
);
unicode = 0072;
},
{
glyphname = s;
lastChange = "2021-05-03 18:27:46 +0000";
layers = (
{
layerId = "EC678C9A-BAF7-4529-BA66-EDFBF106CBF7";
paths = (
{
closed = 1;
nodes = (
"183 509 OFFCURVE",
"131 497 OFFCURVE",
"88 454 CURVE SMOOTH",
"66 432 OFFCURVE",
"45 401 OFFCURVE",
"46 356 CURVE SMOOTH",
"48 314 OFFCURVE",
"68 289 OFFCURVE",
"88 270 CURVE SMOOTH",
"105 253 OFFCURVE",
"141 237 OFFCURVE",
"161 229 CURVE SMOOTH",
"182 220 OFFCURVE",
"229 209 OFFCURVE",
"257 199 CURVE SMOOTH",
"300 185 OFFCURVE",
"331 166 OFFCURVE",
"328 137 CURVE SMOOTH",
"322 101 OFFCURVE",
"288 87 OFFCURVE",
"237 87 CURVE SMOOTH",
"208 87 OFFCURVE",
"166 99 OFFCURVE",
"146 121 CURVE SMOOTH",
"137 129 OFFCURVE",
"125 153 OFFCURVE",
"125 153 CURVE",
"125 152 OFFCURVE",
"51 115 OFFCURVE",
"28 106 CURVE",
"56 59 OFFCURVE",
"88 29 OFFCURVE",
"141 7 CURVE SMOOTH",
"168 -4 OFFCURVE",
"197 -15 OFFCURVE",
"242 -15 CURVE SMOOTH",
"267 -15 OFFCURVE",
"287 -13 OFFCURVE",
"302 -10 CURVE SMOOTH",
"395 11 OFFCURVE",
"452 85 OFFCURVE",
"443 162 CURVE SMOOTH",
"441 180 OFFCURVE",
"430 211 OFFCURVE",
"410 234 CURVE SMOOTH",
"377 272 OFFCURVE",
"327 281 OFFCURVE",
"259 305 CURVE SMOOTH",
"236 313 OFFCURVE",
"209 321 OFFCURVE",
"187 330 CURVE SMOOTH",
"168 339 OFFCURVE",
"163 345 OFFCURVE",
"161 359 CURVE SMOOTH",
"161 374 OFFCURVE",
"168 388 OFFCURVE",
"184 398 CURVE SMOOTH",
"200 408 OFFCURVE",
"224 412 OFFCURVE",
"244 412 CURVE SMOOTH",
"256 412 OFFCURVE",
"273 410 OFFCURVE",
"292 401 CURVE SMOOTH",
"322 387 OFFCURVE",
"342 362 OFFCURVE",
"342 362 CURVE",
"431 402 LINE",
"425 414 OFFCURVE",
"416 431 OFFCURVE",
"387 457 CURVE SMOOTH",
"355 487 OFFCURVE",
"310 509 OFFCURVE",
"252 510 CURVE"
);
}
);
width = 471;
},
{
layerId = "5B189D8C-80C2-4E76-949E-52A655B49706";
paths = (
{
closed = 1;
nodes = (
"211 168 LINE",
"211 168 OFFCURVE",
"228 132 OFFCURVE",
"265 124 CURVE SMOOTH",
"274 122 OFFCURVE",
"331 113 OFFCURVE",
"346 123 CURVE SMOOTH",
"348 124 OFFCURVE",
"375 138 OFFCURVE",
"360 158 CURVE SMOOTH",
"360 158 OFFCURVE",
"348 173 OFFCURVE",
"302 184 CURVE SMOOTH",
"300 185 OFFCURVE",
"240 201 OFFCURVE",
"210 218 CURVE SMOOTH",
"208 219 OFFCURVE",
"123 252 OFFCURVE",
"112 329 CURVE SMOOTH",
"112 332 OFFCURVE",
"96 403 OFFCURVE",
"164 458 CURVE SMOOTH",
"166 460 OFFCURVE",
"208 496 OFFCURVE",
"283 505 CURVE SMOOTH",
"285 505 OFFCURVE",
"353 517 OFFCURVE",
"422 481 CURVE SMOOTH",
"425 480 OFFCURVE",
"477 456 OFFCURVE",
"504 394 CURVE",
"494 390 OFFCURVE",
"384 346 OFFCURVE",
"384 346 CURVE",
"384 346 OFFCURVE",
"358 389 OFFCURVE",
"303 384 CURVE SMOOTH",
"300 384 OFFCURVE",
"261 382 OFFCURVE",
"257 355 CURVE SMOOTH",
"257 353 OFFCURVE",
"252 335 OFFCURVE",
"298 324 CURVE SMOOTH",
"300 323 OFFCURVE",
"389 305 OFFCURVE",
"426 280 CURVE SMOOTH",
"429 278 OFFCURVE",
"508 239 OFFCURVE",
"509 162 CURVE SMOOTH",
"509 158 OFFCURVE",
"516 72 OFFCURVE",
"423 18 CURVE SMOOTH",
"420 16 OFFCURVE",
"372 -14 OFFCURVE",
"281 -6 CURVE SMOOTH",
"278 -6 OFFCURVE",
"205 -3 OFFCURVE",
"145 43 CURVE SMOOTH",
"142 45 OFFCURVE",
"107 71 OFFCURVE",
"91 112 CURVE"
);
}
);
width = 600;
}
);
unicode = 0073;
},
{
glyphname = t;
lastChange = "2021-04-30 23:42:30 +0000";
layers = (
{
layerId = "EC678C9A-BAF7-4529-BA66-EDFBF106CBF7";
paths = (
{
closed = 1;
nodes = (
"359 500 LINE",
"359 395 LINE",
"40 395 LINE",
"40 500 LINE"
);
},
{
closed = 1;
nodes = (
"245 639 LINE",
"245 140 LINE",
"130 140 LINE",
"130 593 LINE"
);
},
{
closed = 1;
nodes = (
"149 0 OFFCURVE",
"130 61 OFFCURVE",
"130 140 CURVE",
"245 149 LINE",
"245 124 OFFCURVE",
"250 101 OFFCURVE",
"297 101 CURVE SMOOTH",
"335 101 LINE",
"335 7 LINE",
"297 0 OFFCURVE",
"289 0 OFFCURVE",
"281 0 CURVE SMOOTH"
);
}
);
width = 399;
},
{
layerId = "5B189D8C-80C2-4E76-949E-52A655B49706";
paths = (
{
closed = 1;
nodes = (
"432 500 LINE",
"432 371 LINE",
"80 371 LINE",
"80 500 LINE"
);
},
{
closed = 1;
nodes = (
"183 0 OFFCURVE",
"177 89 OFFCURVE",
"177 145 CURVE",
"218 177 OFFCURVE",
"287 177 OFFCURVE",
"310 177 CURVE",
"310 153 OFFCURVE",
"335 122 OFFCURVE",
"376 122 CURVE",
"432 122 LINE",
"432 0 LINE",
"399 0 OFFCURVE",
"384 0 OFFCURVE",
"335 0 CURVE"
);
},
{
closed = 1;
nodes = (
"177 589 LINE",
"310 654 LINE",
"310 169 LINE",
"177 145 LINE"
);
}
);
width = 523;
}
);
unicode = 0074;
},
{
glyphname = u;
lastChange = "2021-04-30 23:43:10 +0000";
layers = (
{
layerId = "EC678C9A-BAF7-4529-BA66-EDFBF106CBF7";
paths = (
{
closed = 1;
nodes = (
"68 193 LINE",
"68 500 LINE",
"183 500 LINE",
"183 184 LINE"
);
},
{
closed = 1;
nodes = (
"159 -9 OFFCURVE",
"68 89 OFFCURVE",
"68 193 CURVE",
"183 219 LINE",
"183 174 OFFCURVE",
"211 104 OFFCURVE",
"300 104 CURVE",
"390 104 OFFCURVE",
"419 174 OFFCURVE",
"419 230 CURVE",
"475 149 LINE",
"463 67 OFFCURVE",
"413 -9 OFFCURVE",
"276 -9 CURVE"
);
},
{
closed = 1;
nodes = (
"419 0 LINE",
"419 500 LINE",
"534 500 LINE",
"534 0 LINE"
);
}
);
width = 594;
},
{
layerId = "5B189D8C-80C2-4E76-949E-52A655B49706";
paths = (
{
closed = 1;
nodes = (
"195 -9 OFFCURVE",
"108 93 OFFCURVE",
"108 220 CURVE",
"241 254 LINE",
"241 171 OFFCURVE",
"280 134 OFFCURVE",
"347 134 CURVE",
"409 134 OFFCURVE",
"453 170 OFFCURVE",
"453 238 CURVE",
"500 191 LINE",
"500 151 OFFCURVE",
"465 -8 OFFCURVE",
"321 -8 CURVE"
);
},
{
closed = 1;
nodes = (
"452 0 LINE",
"452 500 LINE",
"585 500 LINE",
"585 0 LINE"
);
},
{
closed = 1;
nodes = (
"108 220 LINE",
"108 500 LINE",
"241 500 LINE",
"241 249 LINE"
);
}
);
width = 665;
}
);
unicode = 0075;
},
{
glyphname = v;
lastChange = "2021-05-03 18:32:03 +0000";
layers = (
{
layerId = "EC678C9A-BAF7-4529-BA66-EDFBF106CBF7";
paths = (
{
closed = 1;
nodes = (
"146 500 LINE",
"348 0 LINE",
"218 0 LINE",
"15 500 LINE"
);
},
{
closed = 1;
nodes = (
"377 0 LINE",
"247 0 LINE",
"452 500 LINE",
"582 500 LINE"
);
}
);
width = 569;
},
{
layerId = "5B189D8C-80C2-4E76-949E-52A655B49706";
paths = (
{
closed = 1;
nodes = (
"221 500 LINE",
"414 0 LINE",
"273 0 LINE",
"80 500 LINE"
);
},
{
closed = 1;
nodes = (
"425 0 LINE",
"284 0 LINE",
"478 500 LINE",
"619 500 LINE"
);
}
);
width = 704;
}
);
unicode = 0076;
},
{
glyphname = w;
lastChange = "2021-05-03 18:53:22 +0000";
layers = (
{
layerId = "EC678C9A-BAF7-4529-BA66-EDFBF106CBF7";
paths = (
{
closed = 1;
nodes = (
"155 500 LINE",
"276 0 LINE",
"176 0 LINE",
"40 500 LINE"
);
},
{
closed = 1;
nodes = (
"606 0 LINE",
"505 0 LINE",
"626 500 LINE",
"741 500 LINE"
);
},
{
closed = 1;
nodes = (
"282 0 LINE",
"185 0 LINE",
"329 500 LINE",
"444 500 LINE"
);
},
{
closed = 1;
nodes = (
"445 500 LINE",
"598 0 LINE",
"492 0 LINE",
"338 500 LINE"
);
}
);
width = 781;
},
{
layerId = "5B189D8C-80C2-4E76-949E-52A655B49706";
paths = (
{
closed = 1;
nodes = (
"353 0 LINE",
"223 0 LINE",
"378 500 LINE",
"508 500 LINE"
);
},
{
closed = 1;
nodes = (
"503 500 LINE",
"658 0 LINE",
"528 0 LINE",
"373 500 LINE"
);
},
{
closed = 1;
nodes = (
"220 500 LINE",
"329 0 LINE",
"218 0 LINE",
"79 500 LINE"
);
},
{
closed = 1;
nodes = (
"663 0 LINE",
"552 0 LINE",
"661 500 LINE",
"802 500 LINE"
);
}
);
width = 913;
}
);
unicode = 0077;
},
{
glyphname = x;
lastChange = "2021-05-03 18:30:42 +0000";
layers = (
{
layerId = "EC678C9A-BAF7-4529-BA66-EDFBF106CBF7";
paths = (
{
closed = 1;
nodes = (
"157 500 LINE",
"536 0 LINE",
"406 0 LINE",
"27 500 LINE"
);
},
{
closed = 1;
nodes = (
"157 0 LINE",
"27 0 LINE",
"406 500 LINE",
"536 500 LINE"
);
}
);
width = 584;
},
{
layerId = "5B189D8C-80C2-4E76-949E-52A655B49706";
paths = (
{
closed = 1;
nodes = (
"456 0 LINE",
"625 0 LINE",
"248 500 LINE",
"80 500 LINE"
);
},
{
closed = 1;
nodes = (
"456 500 LINE",
"80 0 LINE",
"248 0 LINE",
"625 500 LINE"
);
}
);
width = 705;
}
);
unicode = 0078;
},
{
glyphname = y;
lastChange = "2021-05-03 18:30:52 +0000";
layers = (
{
layerId = "EC678C9A-BAF7-4529-BA66-EDFBF106CBF7";
paths = (
{
closed = 1;
nodes = (
"269 -23 LINE",
"347 73 LINE",
"148 500 LINE",
"18 500 LINE"
);
},
{
closed = 1;
nodes = (
"452 500 LINE",
"287 48 LINE",
"273 20 LINE",
"244 -37 LINE",
"347 -74 LINE",
"582 500 LINE"
);
},
{
closed = 1;
nodes = (
"155 -120 OFFCURVE",
"209 -102 OFFCURVE",
"244 -37 CURVE",
"347 -74 LINE",
"308 -177 OFFCURVE",
"234 -230 OFFCURVE",
"91 -230 CURVE SMOOTH",
"76 -230 LINE",
"76 -120 LINE",
"91 -120 LINE SMOOTH"
);
}
);
width = 590;
},
{
layerId = "5B189D8C-80C2-4E76-949E-52A655B49706";
paths = (
{
closed = 1;
nodes = (
"208 -105 OFFCURVE",
"258 -71 OFFCURVE",
"270 -34 CURVE",
"410 -69 LINE",
"366 -170 OFFCURVE",
"298 -230 OFFCURVE",
"158 -230 CURVE",
"140 -230 LINE",
"140 -105 LINE",
"158 -105 LINE"
);
},
{
closed = 1;
nodes = (
"270 -34 LINE",
"410 -69 LINE"
);
},
{
closed = 1;
nodes = (
"208 -105 OFFCURVE",
"258 -71 OFFCURVE",
"270 -34 CURVE",
"410 -69 LINE",
"366 -170 OFFCURVE",
"298 -230 OFFCURVE",
"158 -230 CURVE",
"140 -230 LINE",
"140 -105 LINE",
"158 -105 LINE"
);
},
{
closed = 1;
nodes = (
"207 500 LINE",
"392 73 LINE",
"280 0 LINE",
"59 500 LINE"
);
},
{
closed = 1;
nodes = (
"410 -69 LINE",
"270 -34 LINE",
"279 0 LINE",
"323 49 LINE",
"473 500 LINE",
"621 500 LINE"
);
}
);
width = 701;
}
);
unicode = 0079;
},
{
glyphname = z;
lastChange = "2021-04-30 23:46:56 +0000";
layers = (
{
layerId = "EC678C9A-BAF7-4529-BA66-EDFBF106CBF7";
paths = (
{
closed = 1;
nodes = (
"50 500 LINE",
"50 395 LINE",
"324 395 LINE",
"413 500 LINE",
"477 500 LINE"
);
},
{
closed = 1;
nodes = (
"413 500 LINE",
"324 395 LINE",
"477 395 LINE",
"477 500 LINE",
"477 500 LINE"
);
},
{
closed = 1;
nodes = (
"50 105 LINE",
"211 105 LINE",
"477 395 LINE",
"477 395 LINE",
"324 395 LINE",
"50 105 LINE",
"50 0 LINE",
"123 0 LINE",
"123 0 LINE",
"50 0 LINE"
);
},
{
closed = 1;
nodes = (
"477 500 LINE",
"477 500 LINE",
"477 395 LINE",
"477 403 LINE",
"477 500 LINE"
);
},
{
closed = 1;
nodes = (
"123 0 LINE",
"437 0 LINE",
"437 105 LINE",
"211 105 LINE",
"50 105 LINE",
"50 0 LINE"
);
},
{
closed = 1;
nodes = (
"477 97 LINE",
"477 16 LINE"
);
},
{
closed = 1;
nodes = (
"477 0 LINE",
"477 16 LINE",
"477 105 LINE",
"437 105 LINE",
"437 0 LINE"
);
}
);
width = 527;
},
{
layerId = "5B189D8C-80C2-4E76-949E-52A655B49706";
paths = (
{
closed = 1;
nodes = (
"467 130 LINE",
"515 130 LINE",
"516 130 LINE",
"516 0 LINE",
"515 0 LINE",
"467 0 LINE",
"80 0 LINE",
"80 130 LINE"
);
},
{
closed = 1;
nodes = (
"516 500 LINE",
"516 371 LINE",
"515 371 LINE",
"80 371 LINE",
"80 500 LINE"
);
},
{
closed = 1;
nodes = (
"516 500 LINE",
"516 500 LINE",
"516 371 LINE",
"515 371 LINE",
"515 363 LINE",
"115 0 LINE",
"80 0 LINE",
"80 0 LINE",
"80 130 LINE",
"80 136 LINE",
"471 500 LINE"
);
},
{
closed = 1;
nodes = (
"515 130 LINE",
"516 130 LINE",
"516 0 LINE",
"515 0 LINE",
"467 0 LINE",
"467 130 LINE"
);
}
);
width = 596;
}
);
unicode = 007A;
},
{
glyphname = zero;
lastChange = "2021-04-25 05:46:59 +0000";
layers = (
{
layerId = "EC678C9A-BAF7-4529-BA66-EDFBF106CBF7";
paths = (
{
closed = 1;
nodes = (
"311 368 LINE",
"311 632 LINE",
"368 632 OFFCURVE",
"400 607 OFFCURVE",
"424 578 CURVE",
"444 554 OFFCURVE",
"460 514 OFFCURVE",
"460 442 CURVE",
"460 368 LINE",
"572 368 LINE",
"572 482 OFFCURVE",
"572 573 OFFCURVE",
"499 658 CURVE",
"452 711 OFFCURVE",
"390 735 OFFCURVE",
"311 735 CURVE"
);
},
{
closed = 1;
nodes = (
"311 632 LINE",
"253 632 OFFCURVE",
"221 607 OFFCURVE",
"197 578 CURVE",
"178 554 OFFCURVE",
"162 514 OFFCURVE",
"162 442 CURVE",
"162 368 LINE",
"50 368 LINE",
"50 482 OFFCURVE",
"50 573 OFFCURVE",
"123 658 CURVE",
"169 711 OFFCURVE",
"231 735 OFFCURVE",
"311 735 CURVE"
);
},
{
closed = 1;
nodes = (
"311 103 LINE",
"253 103 OFFCURVE",
"221 128 OFFCURVE",
"197 157 CURVE",
"178 181 OFFCURVE",
"162 221 OFFCURVE",
"162 293 CURVE",
"162 368 LINE",
"311 368 LINE",
"50 368 LINE",
"50 253 OFFCURVE",
"50 162 OFFCURVE",
"123 78 CURVE",
"169 24 OFFCURVE",
"231 0 OFFCURVE",
"311 0 CURVE"
);
},
{
closed = 1;
nodes = (
"452 24 OFFCURVE",
"390 0 OFFCURVE",
"311 0 CURVE",
"311 368 LINE",
"311 103 LINE",
"368 103 OFFCURVE",
"400 128 OFFCURVE",
"424 157 CURVE SMOOTH",
"444 181 OFFCURVE",
"460 221 OFFCURVE",
"460 293 CURVE SMOOTH",
"460 368 LINE",
"311 368 LINE",
"572 368 LINE",
"572 253 OFFCURVE",
"572 162 OFFCURVE",
"499 78 CURVE SMOOTH"
);
}
);
width = 632;
},
{
layerId = "5B189D8C-80C2-4E76-949E-52A655B49706";
paths = (
{
closed = 1;
nodes = (
"299 611 OFFCURVE",
"300 611 OFFCURVE",
"301 611 CURVE",
"351 611 OFFCURVE",
"380 588 OFFCURVE",
"400 561 CURVE",
"417 539 OFFCURVE",
"432 502 OFFCURVE",
"432 434 CURVE",
"432 387 LINE",
"432 367 LINE",
"432 364 LINE",
"432 313 LINE",
"432 241 OFFCURVE",
"417 202 OFFCURVE",
"400 178 CURVE",
"380 149 OFFCURVE",
"351 124 OFFCURVE",
"301 124 CURVE",
"300 124 OFFCURVE",
"299 124 OFFCURVE",
"299 124 CURVE",
"246 125 OFFCURVE",
"217 149 OFFCURVE",
"195 178 CURVE",
"177 202 OFFCURVE",
"162 241 OFFCURVE",
"162 313 CURVE",
"162 364 LINE",
"162 367 LINE",
"162 387 LINE",
"162 434 LINE",
"162 502 OFFCURVE",
"177 539 OFFCURVE",
"195 561 CURVE",
"217 588 OFFCURVE",
"246 611 OFFCURVE",
"299 611 CURVE"
);
},
{
closed = 1;
nodes = (
"157 24 OFFCURVE",
"220 0 OFFCURVE",
"299 0 CURVE SMOOTH",
"378 0 OFFCURVE",
"440 24 OFFCURVE",
"486 77 CURVE SMOOTH",
"559 162 OFFCURVE",
"559 252 OFFCURVE",
"559 367 CURVE SMOOTH",
"559 483 OFFCURVE",
"559 573 OFFCURVE",
"486 658 CURVE SMOOTH",
"440 711 OFFCURVE",
"378 735 OFFCURVE",
"299 735 CURVE SMOOTH",
"220 735 OFFCURVE",
"157 711 OFFCURVE",
"111 658 CURVE SMOOTH",
"38 573 OFFCURVE",
"38 486 OFFCURVE",
"38 370 CURVE SMOOTH",
"38 255 OFFCURVE",
"38 162 OFFCURVE",
"111 77 CURVE SMOOTH"
);
}
);
width = 600;
}
);
unicode = 0030;
},
{
glyphname = one;
lastChange = "2021-05-02 02:04:04 +0000";
layers = (
{
layerId = "EC678C9A-BAF7-4529-BA66-EDFBF106CBF7";
paths = (
{
closed = 1;
nodes = (
"234 725 LINE",
"234 0 LINE",
"119 0 LINE",
"119 725 LINE"
);
},
{
closed = 1;
nodes = (
"176 613 LINE",
"50 613 LINE",
"50 725 LINE",
"176 725 LINE"
);
}
);
width = 331;
},
{
layerId = "5B189D8C-80C2-4E76-949E-52A655B49706";
paths = (
{
closed = 1;
nodes = (
"418 735 LINE",
"418 0 LINE",
"284 0 LINE",
"284 735 LINE"
);
},
{
closed = 1;
nodes = (
"338 602 LINE",
"174 602 LINE",
"174 735 LINE",
"338 735 LINE"
);
}
);
width = 600;
}
);
unicode = 0031;
},
{
glyphname = two;
lastChange = "2021-05-02 02:15:01 +0000";
layers = (
{
layerId = "EC678C9A-BAF7-4529-BA66-EDFBF106CBF7";
paths = (
{
closed = 1;
nodes = (
"81 110 LINE",
"524 110 LINE",
"524 0 LINE",
"59 0 LINE",
"58 94 LINE"
);
},
{
closed = 1;
nodes = (
"377 409 LINE",
"403 295 LINE",
"134 19 LINE",
"58 94 LINE"
);
},
{
closed = 1;
nodes = (
"454 664 OFFCURVE",
"454 664 OFFCURVE",
"455 664 CURVE SMOOTH",
"534 577 OFFCURVE",
"556 448 OFFCURVE",
"395 286 CURVE SMOOTH",
"340 229 OFFCURVE",
"272 219 OFFCURVE",
"207 238 CURVE",
"210 242 LINE",
"311 352 LINE SMOOTH",
"313 354 OFFCURVE",
"309 352 OFFCURVE",
"312 353 CURVE SMOOTH",
"415 457 OFFCURVE",
"421 534 OFFCURVE",
"371 590 CURVE SMOOTH",
"369 592 OFFCURVE",
"371 590 OFFCURVE",
"368 592 CURVE SMOOTH",
"317 638 OFFCURVE",
"230 644 OFFCURVE",
"174 587 CURVE SMOOTH",
"161 573 OFFCURVE",
"145 559 OFFCURVE",
"135 542 CURVE",
"58 597 LINE",
"50 603 LINE",
"65 627 OFFCURVE",
"81 646 OFFCURVE",
"101 664 CURVE SMOOTH",
"184 747 OFFCURVE",
"316 754 OFFCURVE",
"407 703 CURVE SMOOTH",
"423 693 OFFCURVE",
"436 683 OFFCURVE",
"447 671 CURVE SMOOTH",
"448 669 OFFCURVE",
"449 669 OFFCURVE",
"449 668 CURVE SMOOTH",
"452 667 OFFCURVE",
"453 665 OFFCURVE",
"454 664 CURVE SMOOTH"
);
}
);
width = 584;
},
{
layerId = "5B189D8C-80C2-4E76-949E-52A655B49706";
paths = (
{
closed = 1;
nodes = (
"146 526 LINE",
"146 526 OFFCURVE",
"255 673 OFFCURVE",
"356 580 CURVE SMOOTH",
"463 480 OFFCURVE",
"278 332 OFFCURVE",
"278 332 CURVE",
"54 109 LINE",
"54 0 LINE",
"541 0 LINE",
"541 116 LINE",
"247 116 LINE",
"425 302 LINE",
"425 302 OFFCURVE",
"564 441 OFFCURVE",
"510 580 CURVE SMOOTH",
"463 720 OFFCURVE",
"332 735 OFFCURVE",
"332 735 CURVE",
"332 735 OFFCURVE",
"247 743 OFFCURVE",
"186 720 CURVE SMOOTH",
"139 697 OFFCURVE",
"123 688 OFFCURVE",
"92 650 CURVE SMOOTH",
"54 611 OFFCURVE",
"54 596 OFFCURVE",
"54 596 CURVE"
);
}
);
width = 600;
}
);
unicode = 0032;
},
{
glyphname = three;
lastChange = "2021-04-25 06:26:51 +0000";
layers = (
{
layerId = "EC678C9A-BAF7-4529-BA66-EDFBF106CBF7";
paths = (
{
closed = 1;
nodes = (
"244 428 LINE",
"279 428 LINE",
"279 335 LINE",
"247 335 LINE",
"245 335 LINE",
"244 335 LINE",
"243 335 LINE",
"243 360 LINE",
"243 391 LINE",
"243 411 LINE",
"243 428 LINE"
);
},
{
closed = 1;
nodes = (
"445 735 OFFCURVE",
"487 621 OFFCURVE",
"487 554 CURVE",
"487 481 OFFCURVE",
"450 422 OFFCURVE",
"393 389 CURVE",
"466 357 OFFCURVE",
"512 294 OFFCURVE",
"512 209 CURVE",
"512 82 OFFCURVE",
"407 0 OFFCURVE",
"270 0 CURVE",
"166 0 OFFCURVE",
"89 44 OFFCURVE",
"50 111 CURVE",
"150 163 LINE",
"175 130 OFFCURVE",
"217 109 OFFCURVE",
"268 109 CURVE",
"344 109 OFFCURVE",
"405 148 OFFCURVE",
"405 221 CURVE",
"405 260 OFFCURVE",
"393 334 OFFCURVE",
"247 335 CURVE",
"245 335 LINE",
"244 335 LINE",
"243 335 LINE",
"243 360 LINE",
"243 391 LINE",
"243 411 LINE",
"243 428 LINE",
"244 428 LINE",
"244 428 LINE",
"331 430 OFFCURVE",
"374 486 OFFCURVE",
"374 531 CURVE",
"374 587 OFFCURVE",
"336 624 OFFCURVE",
"264 624 CURVE",
"212 624 OFFCURVE",
"173 597 OFFCURVE",
"151 552 CURVE",
"62 599 LINE",
"96 691 OFFCURVE",
"179 735 OFFCURVE",
"274 735 CURVE"
);
}
);
width = 562;
},
{
layerId = "5B189D8C-80C2-4E76-949E-52A655B49706";
paths = (
{
closed = 1;
nodes = (
"255 441 LINE",
"263 441 LINE",
"279 441 LINE",
"294 441 LINE",
"294 317 LINE",
"294 317 LINE",
"263 317 LINE",
"255 317 LINE",
"255 325 LINE",
"255 356 LINE",
"255 387 LINE",
"255 410 LINE",
"255 441 LINE"
);
},
{
closed = 1;
nodes = (
"464 735 OFFCURVE",
"511 619 OFFCURVE",
"511 549 CURVE",
"511 480 OFFCURVE",
"472 418 OFFCURVE",
"418 387 CURVE",
"487 356 OFFCURVE",
"534 294 OFFCURVE",
"534 209 CURVE",
"534 77 OFFCURVE",
"426 0 OFFCURVE",
"294 0 CURVE",
"186 0 OFFCURVE",
"101 46 OFFCURVE",
"62 124 CURVE",
"163 186 LINE",
"186 139 OFFCURVE",
"240 108 OFFCURVE",
"294 108 CURVE",
"364 108 OFFCURVE",
"418 162 OFFCURVE",
"410 224 CURVE",
"410 271 OFFCURVE",
"379 317 OFFCURVE",
"294 317 CURVE",
"294 317 LINE",
"263 317 LINE",
"255 317 LINE",
"255 325 LINE",
"255 356 LINE",
"255 387 LINE",
"255 410 LINE",
"255 441 LINE",
"255 441 LINE",
"255 441 LINE",
"263 441 LINE",
"263 441 LINE",
"279 441 LINE",
"356 449 OFFCURVE",
"387 495 OFFCURVE",
"379 534 CURVE",
"379 572 OFFCURVE",
"356 611 OFFCURVE",
"286 619 CURVE",
"240 619 OFFCURVE",
"186 588 OFFCURVE",
"170 541 CURVE",
"77 588 LINE",
"108 688 OFFCURVE",
"201 735 OFFCURVE",
"294 735 CURVE"
);
},
{
closed = 1;
nodes = (
"163 387 LINE SMOOTH",
"155 387 OFFCURVE",
"155 387 OFFCURVE",
"155 387 CURVE SMOOTH",
"155 387 OFFCURVE",
"155 387 OFFCURVE",
"155 387 CURVE SMOOTH"
);
}
);
width = 540;
}
);
unicode = 0033;
},
{
glyphname = four;
lastChange = "2021-05-02 02:10:27 +0000";
layers = (
{
layerId = "EC678C9A-BAF7-4529-BA66-EDFBF106CBF7";
paths = (
{
closed = 1;
nodes = (
"358 0 LINE",
"473 0 LINE",
"473 725 LINE",
"358 725 LINE"
);
},
{
closed = 1;
nodes = (
"20 153 LINE",
"575 155 LINE",
"575 260 LINE",
"46 261 LINE",
"20 243 LINE"
);
},
{
closed = 1;
nodes = (
"144 242 LINE",
"472 725 LINE",
"347 725 LINE",
"20 242 LINE"
);
}
);
width = 635;
},
{
layerId = "5B189D8C-80C2-4E76-949E-52A655B49706";
paths = (
{
closed = 1;
nodes = (
"495 735 LINE",
"495 0 LINE",
"361 0 LINE",
"361 735 LINE"
);
},
{
closed = 1;
nodes = (
"52 290 LINE",
"572 290 LINE",
"572 172 LINE",
"12 172 LINE",
"12 268 LINE"
);
},
{
closed = 1;
nodes = (
"333 735 LINE",
"478 735 LINE",
"158 268 LINE",
"12 268 LINE"
);
}
);
width = 600;
}
);
unicode = 0034;
},
{
glyphname = five;
lastChange = "2021-05-02 02:12:38 +0000";
layers = (
{
layerId = "EC678C9A-BAF7-4529-BA66-EDFBF106CBF7";
paths = (
{
closed = 1;
nodes = (
"151 725 LINE",
"490 725 LINE",
"490 615 LINE",
"135 615 LINE",
"135 707 LINE"
);
},
{
closed = 1;
nodes = (
"208 706 LINE",
"187 342 LINE",
"165 323 LINE",
"165 322 LINE",
"108 337 LINE",
"78 345 LINE",
"78 345 LINE",
"79 352 LINE",
"99 725 LINE",
"194 725 LINE"
);
},
{
closed = 1;
nodes = (
"518 99 OFFCURVE",
"412 0 OFFCURVE",
"272 0 CURVE",
"168 0 OFFCURVE",
"90 44 OFFCURVE",
"50 111 CURVE",
"147 165 LINE",
"174 130 OFFCURVE",
"216 104 OFFCURVE",
"268 104 CURVE",
"344 104 OFFCURVE",
"407 152 OFFCURVE",
"407 226 CURVE",
"407 292 OFFCURVE",
"360 351 OFFCURVE",
"264 351 CURVE",
"229 351 OFFCURVE",
"197 338 OFFCURVE",
"172 320 CURVE",
"165 322 LINE",
"165 322 LINE",
"108 337 LINE",
"79 345 LINE",
"124 407 OFFCURVE",
"200 457 OFFCURVE",
"289 457 CURVE",
"437 457 OFFCURVE",
"518 345 OFFCURVE",
"518 217 CURVE"
);
},
{
closed = 1;
nodes = (
"79 352 LINE",
"78 345 LINE",
"78 345 LINE"
);
}
);
width = 578;
},
{
layerId = "5B189D8C-80C2-4E76-949E-52A655B49706";
paths = (
{
closed = 1;
nodes = (
"136 735 LINE",
"512 735 LINE",
"512 611 LINE",
"113 611 LINE",
"113 719 LINE"
);
},
{
closed = 1;
nodes = (
"215 719 LINE",
"199 352 LINE",
"168 336 LINE",
"144 336 LINE",
"66 352 LINE",
"66 352 LINE",
"66 360 LINE",
"89 735 LINE",
"207 735 LINE"
);
},
{
closed = 1;
nodes = (
"183 0 OFFCURVE",
"105 55 OFFCURVE",
"58 125 CURVE",
"176 188 LINE",
"199 157 OFFCURVE",
"238 133 OFFCURVE",
"284 133 CURVE SMOOTH",
"355 133 OFFCURVE",
"418 180 OFFCURVE",
"418 250 CURVE SMOOTH",
"418 313 OFFCURVE",
"371 375 OFFCURVE",
"284 368 CURVE SMOOTH",
"238 368 OFFCURVE",
"207 352 OFFCURVE",
"191 328 CURVE",
"144 336 LINE",
"66 352 LINE",
"66 352 LINE",
"66 360 LINE",
"74 352 LINE",
"121 422 OFFCURVE",
"207 485 OFFCURVE",
"316 485 CURVE SMOOTH",
"465 485 OFFCURVE",
"543 375 OFFCURVE",
"543 234 CURVE SMOOTH",
"543 110 OFFCURVE",
"433 0 OFFCURVE",
"292 0 CURVE SMOOTH"
);
}
);
width = 600;
}
);
unicode = 0035;
},
{
glyphname = six;
lastChange = "2021-04-18 04:00:07 +0000";
layers = (
{
layerId = "EC678C9A-BAF7-4529-BA66-EDFBF106CBF7";
paths = (
{
closed = 1;
nodes = (
"302 725 LINE",
"441 725 LINE",
"191 323 LINE",
"87 361 LINE"
);
},
{
closed = 1;
nodes = (
"442 0 OFFCURVE",
"532 104 OFFCURVE",
"532 231 CURVE",
"50 231 LINE",
"50 104 OFFCURVE",
"140 0 OFFCURVE",
"292 0 CURVE"
);
},
{
closed = 1;
nodes = (
"50 358 OFFCURVE",
"140 457 OFFCURVE",
"292 457 CURVE",
"368 457 OFFCURVE",
"429 435 OFFCURVE",
"470 393 CURVE",
"511 351 OFFCURVE",
"532 294 OFFCURVE",
"532 231 CURVE",
"50 231 LINE"
);
},
{
closed = 1;
nodes = (
"212 109 OFFCURVE",
"163 164 OFFCURVE",
"163 231 CURVE",
"419 231 LINE",
"419 164 OFFCURVE",
"371 109 OFFCURVE",
"292 109 CURVE"
);
},
{
closed = 1;
nodes = (
"212 354 OFFCURVE",
"163 299 OFFCURVE",
"163 231 CURVE",
"419 231 LINE",
"419 299 OFFCURVE",
"371 354 OFFCURVE",
"292 354 CURVE SMOOTH"
);
}
);
width = 592;
},
{
layerId = "5B189D8C-80C2-4E76-949E-52A655B49706";
paths = (
{
closed = 1;
nodes = (
"190 291 LINE",
"450 735 LINE",
"297 735 LINE",
"75 336 LINE"
);
},
{
closed = 1;
nodes = (
"144 467 OFFCURVE",
"52 359 OFFCURVE",
"52 222 CURVE",
"52 100 OFFCURVE",
"144 0 OFFCURVE",
"297 0 CURVE",
"450 0 OFFCURVE",
"549 100 OFFCURVE",
"549 222 CURVE",
"549 291 OFFCURVE",
"526 352 OFFCURVE",
"480 398 CURVE",
"442 444 OFFCURVE",
"374 467 OFFCURVE",
"297 467 CURVE"
);
},
{
closed = 1;
nodes = (
"427 230 OFFCURVE",
"427 238 OFFCURVE",
"427 230 CURVE SMOOTH",
"427 169 OFFCURVE",
"366 115 OFFCURVE",
"305 115 CURVE SMOOTH",
"290 115 OFFCURVE",
"279 114 OFFCURVE",
"271 116 CURVE SMOOTH",
"218 128 OFFCURVE",
"182 169 OFFCURVE",
"182 222 CURVE SMOOTH",
"182 230 OFFCURVE",
"182 230 OFFCURVE",
"182 238 CURVE SMOOTH",
"182 261 OFFCURVE",
"190 291 OFFCURVE",
"205 307 CURVE SMOOTH",
"228 336 OFFCURVE",
"259 352 OFFCURVE",
"305 352 CURVE SMOOTH",
"366 352 OFFCURVE",
"427 299 OFFCURVE",
"427 238 CURVE SMOOTH"
);
}
);
width = 600;
}
);
unicode = 0036;
},
{
glyphname = seven;
lastChange = "2021-05-02 02:17:02 +0000";
layers = (
{
layerId = "EC678C9A-BAF7-4529-BA66-EDFBF106CBF7";
paths = (
{
closed = 1;
nodes = (
"591 725 LINE",
"540 621 LINE",
"50 618 LINE",
"50 725 LINE"
);
},
{
closed = 1;
nodes = (
"454 707 LINE",
"585 713 LINE",
"236 0 LINE",
"108 0 LINE"
);
}
);
width = 591;
},
{
layerId = "5B189D8C-80C2-4E76-949E-52A655B49706";
paths = (
{
closed = 1;
nodes = (
"27 610 LINE",
"512 610 LINE",
"559 735 LINE",
"27 735 LINE"
);
},
{
closed = 1;
nodes = (
"269 0 LINE",
"567 735 LINE",
"418 735 LINE",
"121 0 LINE"
);
}
);
width = 600;
}
);
unicode = 0037;
},
{
glyphname = eight;
lastChange = "2021-05-02 02:19:08 +0000";
layers = (
{
layerId = "EC678C9A-BAF7-4529-BA66-EDFBF106CBF7";
paths = (
{
closed = 1;
nodes = (
"432 735 OFFCURVE",
"513 649 OFFCURVE",
"513 543 CURVE",
"513 437 OFFCURVE",
"432 351 OFFCURVE",
"298 351 CURVE",
"164 351 OFFCURVE",
"83 437 OFFCURVE",
"83 543 CURVE",
"83 649 OFFCURVE",
"164 735 OFFCURVE",
"298 735 CURVE"
);
},
{
closed = 1;
nodes = (
"405 597 OFFCURVE",
"364 639 OFFCURVE",
"298 639 CURVE",
"232 639 OFFCURVE",
"192 597 OFFCURVE",
"189 543 CURVE",
"189 541 OFFCURVE",
"189 539 OFFCURVE",
"189 537 CURVE",
"189 480 OFFCURVE",
"229 435 OFFCURVE",
"298 435 CURVE",
"367 435 OFFCURVE",
"408 480 OFFCURVE",
"408 537 CURVE",
"408 539 OFFCURVE",
"408 541 OFFCURVE",
"408 543 CURVE"
);
},
{
closed = 1;
nodes = (
"536 96 OFFCURVE",
"447 0 OFFCURVE",
"298 0 CURVE",
"149 0 OFFCURVE",
"60 96 OFFCURVE",
"60 213 CURVE",
"60 332 OFFCURVE",
"149 427 OFFCURVE",
"298 427 CURVE",
"447 427 OFFCURVE",
"536 332 OFFCURVE",
"536 213 CURVE"
);
},
{
closed = 1;
nodes = (
"423 215 OFFCURVE",
"423 217 OFFCURVE",
"423 219 CURVE SMOOTH",
"423 286 OFFCURVE",
"375 338 OFFCURVE",
"294 338 CURVE SMOOTH",
"213 338 OFFCURVE",
"166 286 OFFCURVE",
"166 219 CURVE SMOOTH",
"166 217 OFFCURVE",
"166 215 OFFCURVE",
"166 213 CURVE SMOOTH",
"169 150 OFFCURVE",
"216 102 OFFCURVE",
"294 102 CURVE SMOOTH",
"372 102 OFFCURVE",
"421 150 OFFCURVE",
"423 213 CURVE SMOOTH"
);
}
);
width = 596;
},
{
layerId = "5B189D8C-80C2-4E76-949E-52A655B49706";
paths = (
{
closed = 1;
nodes = (
"511 651 OFFCURVE",
"427 735 OFFCURVE",
"296 735 CURVE",
"159 735 OFFCURVE",
"82 651 OFFCURVE",
"82 544 CURVE",
"82 436 OFFCURVE",
"159 352 OFFCURVE",
"296 352 CURVE",
"427 352 OFFCURVE",
"511 436 OFFCURVE",
"511 544 CURVE"
);
},
{
closed = 1;
nodes = (
"350 628 OFFCURVE",
"381 590 OFFCURVE",
"381 544 CURVE",
"381 544 OFFCURVE",
"381 544 OFFCURVE",
"381 544 CURVE",
"381 498 OFFCURVE",
"350 459 OFFCURVE",
"296 459 CURVE",
"243 459 OFFCURVE",
"206 498 OFFCURVE",
"206 544 CURVE",
"206 544 OFFCURVE",
"206 542 OFFCURVE",
"206 544 CURVE SMOOTH",
"209 596 OFFCURVE",
"243 628 OFFCURVE",
"296 628 CURVE"
);
},
{
closed = 1;
nodes = (
"534 337 OFFCURVE",
"442 429 OFFCURVE",
"296 429 CURVE",
"143 429 OFFCURVE",
"59 337 OFFCURVE",
"59 214 CURVE",
"59 100 OFFCURVE",
"143 0 OFFCURVE",
"296 0 CURVE",
"442 0 OFFCURVE",
"534 100 OFFCURVE",
"534 214 CURVE"
);
},
{
closed = 1;
nodes = (
"394 159 OFFCURVE",
"359 123 OFFCURVE",
"291 123 CURVE SMOOTH",
"229 123 OFFCURVE",
"192 161 OFFCURVE",
"185 214 CURVE SMOOTH",
"185 214 OFFCURVE",
"185 214 OFFCURVE",
"185 222 CURVE SMOOTH",
"183 281 OFFCURVE",
"227 329 OFFCURVE",
"289 329 CURVE SMOOTH",
"358 329 OFFCURVE",
"396 282 OFFCURVE",
"396 222 CURVE SMOOTH",
"396 214 OFFCURVE",
"396 214 OFFCURVE",
"396 214 CURVE SMOOTH"
);
}
);
width = 540;
}
);
unicode = 0038;
},
{
glyphname = nine;
lastChange = "2021-05-02 02:21:20 +0000";
layers = (
{
layerId = "EC678C9A-BAF7-4529-BA66-EDFBF106CBF7";
paths = (
{
closed = 1;
nodes = (
"275 0 LINE",
"139 0 LINE",
"395 412 LINE",
"495 374 LINE"
);
},
{
closed = 1;
nodes = (
"140 735 OFFCURVE",
"50 631 OFFCURVE",
"50 504 CURVE",
"533 504 LINE",
"533 631 OFFCURVE",
"443 735 OFFCURVE",
"291 735 CURVE"
);
},
{
closed = 1;
nodes = (
"533 376 OFFCURVE",
"443 278 OFFCURVE",
"291 278 CURVE",
"215 278 OFFCURVE",
"153 301 OFFCURVE",
"113 343 CURVE",
"72 384 OFFCURVE",
"50 441 OFFCURVE",
"50 504 CURVE",
"533 504 LINE"
);
},
{
closed = 1;
nodes = (
"371 626 OFFCURVE",
"419 571 OFFCURVE",
"419 504 CURVE",
"164 504 LINE",
"164 571 OFFCURVE",
"212 626 OFFCURVE",
"291 626 CURVE"
);
},
{
closed = 1;
nodes = (
"371 382 OFFCURVE",
"419 438 OFFCURVE",
"419 505 CURVE",
"164 504 LINE",
"164 437 OFFCURVE",
"212 382 OFFCURVE",
"291 382 CURVE SMOOTH"
);
}
);
width = 593;
},
{
layerId = "5B189D8C-80C2-4E76-949E-52A655B49706";
paths = (
{
closed = 1;
nodes = (
"394 431 LINE",
"139 0 LINE",
"292 0 LINE",
"510 380 LINE"
);
},
{
closed = 1;
nodes = (
"148 735 OFFCURVE",
"58 630 OFFCURVE",
"58 501 CURVE",
"58 495 OFFCURVE",
"58 489 OFFCURVE",
"58 483 CURVE",
"59 473 OFFCURVE",
"60 463 OFFCURVE",
"62 453 CURVE",
"70 409 OFFCURVE",
"90 370 OFFCURVE",
"120 339 CURVE",
"161 297 OFFCURVE",
"223 274 OFFCURVE",
"300 274 CURVE",
"451 274 OFFCURVE",
"542 373 OFFCURVE",
"542 501 CURVE",
"542 630 OFFCURVE",
"451 735 OFFCURVE",
"300 735 CURVE"
);
},
{
closed = 1;
nodes = (
"411 478 OFFCURVE",
"403 454 OFFCURVE",
"389 436 CURVE SMOOTH",
"370 411 OFFCURVE",
"340 397 OFFCURVE",
"301 397 CURVE SMOOTH",
"231 397 OFFCURVE",
"189 444 OFFCURVE",
"189 503 CURVE SMOOTH",
"189 566 OFFCURVE",
"231 618 OFFCURVE",
"301 618 CURVE SMOOTH",
"308 618 OFFCURVE",
"314 617 OFFCURVE",
"321 616 CURVE SMOOTH",
"378 607 OFFCURVE",
"411 560 OFFCURVE",
"411 503 CURVE SMOOTH"
);
}
);
width = 600;
}
);
unicode = 0039;
},
{
glyphname = period;
lastChange = "2021-05-02 02:31:30 +0000";
layers = (
{
layerId = "EC678C9A-BAF7-4529-BA66-EDFBF106CBF7";
paths = (
{
closed = 1;
nodes = (
"133 132 OFFCURVE",
"162 99 OFFCURVE",
"162 69 CURVE SMOOTH",
"162 32 OFFCURVE",
"133 0 OFFCURVE",
"96 0 CURVE SMOOTH",
"59 0 OFFCURVE",
"30 32 OFFCURVE",
"30 69 CURVE SMOOTH",
"30 99 OFFCURVE",
"59 132 OFFCURVE",
"96 132 CURVE SMOOTH"
);
}
);
width = 192;
},
{
layerId = "5B189D8C-80C2-4E76-949E-52A655B49706";
paths = (
{
closed = 1;
nodes = (
"200 154 OFFCURVE",
"234 120 OFFCURVE",
"234 77 CURVE SMOOTH",
"234 35 OFFCURVE",
"200 0 OFFCURVE",
"157 0 CURVE SMOOTH",
"114 0 OFFCURVE",
"80 35 OFFCURVE",
"80 77 CURVE SMOOTH",
"80 120 OFFCURVE",
"114 154 OFFCURVE",
"157 154 CURVE SMOOTH"
);
}
);
width = 304;
}
);
unicode = 002E;
},
{
glyphname = comma;
lastChange = "2021-05-02 02:38:05 +0000";
layers = (
{
layerId = "EC678C9A-BAF7-4529-BA66-EDFBF106CBF7";
paths = (
{
closed = 1;
nodes = (
"66 76 LINE",
"36 -120 LINE",
"108 -120 LINE",
"187 76 LINE"
);
}
);
width = 225;
},
{
layerId = "5B189D8C-80C2-4E76-949E-52A655B49706";
paths = (
{
closed = 1;
nodes = (
"242 75 LINE",
"204 -120 LINE",
"288 -120 LINE",
"392 75 LINE"
);
}
);
width = 600;
}
);
unicode = 002C;
},
{
glyphname = colon;
lastChange = "2021-03-08 04:35:52 +0000";
layers = (
{
layerId = "EC678C9A-BAF7-4529-BA66-EDFBF106CBF7";
paths = (
{
closed = 1;
nodes = (
"198 605 OFFCURVE",
"234 572 OFFCURVE",
"234 530 CURVE",
"234 488 OFFCURVE",
"198 455 OFFCURVE",
"157 455 CURVE",
"116 455 OFFCURVE",
"80 488 OFFCURVE",
"80 530 CURVE",
"80 572 OFFCURVE",
"116 605 OFFCURVE",
"157 605 CURVE"
);
},
{
closed = 1;
nodes = (
"198 212 OFFCURVE",
"234 179 OFFCURVE",
"234 138 CURVE SMOOTH",
"234 96 OFFCURVE",
"198 63 OFFCURVE",
"157 63 CURVE SMOOTH",
"116 63 OFFCURVE",
"80 96 OFFCURVE",
"80 138 CURVE SMOOTH",
"80 179 OFFCURVE",
"116 212 OFFCURVE",
"157 212 CURVE SMOOTH"
);
}
);
width = 284;
},
{
layerId = "5B189D8C-80C2-4E76-949E-52A655B49706";
paths = (
{
closed = 1;
nodes = (
"340 584 OFFCURVE",
"380 544 OFFCURVE",
"380 496 CURVE",
"380 447 OFFCURVE",
"340 407 OFFCURVE",
"291 407 CURVE",
"243 407 OFFCURVE",
"203 447 OFFCURVE",
"203 496 CURVE",
"203 544 OFFCURVE",
"243 584 OFFCURVE",
"291 584 CURVE"
);
},
{
closed = 1;
nodes = (
"340 261 OFFCURVE",
"380 221 OFFCURVE",
"380 172 CURVE SMOOTH",
"380 123 OFFCURVE",
"340 84 OFFCURVE",
"291 84 CURVE SMOOTH",
"243 84 OFFCURVE",
"203 123 OFFCURVE",
"203 172 CURVE SMOOTH",
"203 221 OFFCURVE",
"243 261 OFFCURVE",
"291 261 CURVE SMOOTH"
);
}
);
width = 590;
}
);
unicode = 003A;
},
{
glyphname = semicolon;
lastChange = "2021-05-02 15:40:26 +0000";
layers = (
{
layerId = "EC678C9A-BAF7-4529-BA66-EDFBF106CBF7";
paths = (
{
closed = 1;
nodes = (
"91 90 LINE",
"57 -131 LINE",
"134 -131 LINE",
"225 90 LINE"
);
},
{
closed = 1;
nodes = (
"194 500 OFFCURVE",
"228 465 OFFCURVE",
"228 432 CURVE SMOOTH",
"228 399 OFFCURVE",
"194 365 OFFCURVE",
"160 365 CURVE SMOOTH",
"127 365 OFFCURVE",
"95 399 OFFCURVE",
"95 432 CURVE SMOOTH",
"95 465 OFFCURVE",
"127 500 OFFCURVE",
"160 500 CURVE SMOOTH"
);
}
);
width = 274;
},
{
layerId = "5B189D8C-80C2-4E76-949E-52A655B49706";
paths = (
{
closed = 1;
nodes = (
"252 500 OFFCURVE",
"286 467 OFFCURVE",
"286 425 CURVE",
"286 384 OFFCURVE",
"252 349 OFFCURVE",
"210 349 CURVE",
"169 349 OFFCURVE",
"135 384 OFFCURVE",
"135 425 CURVE",
"135 467 OFFCURVE",
"169 500 OFFCURVE",
"210 500 CURVE"
);
},
{
closed = 1;
nodes = (
"132 91 LINE",
"94 -168 LINE",
"158 -168 LINE",
"250 91 LINE"
);
},
{
closed = 1;
nodes = (
"175 91 LINE",
"130 -168 LINE",
"185 -168 LINE",
"284 91 LINE"
);
}
);
width = 386;
}
);
unicode = 003B;
},
{
glyphname = exclam;
lastChange = "2021-05-02 02:30:56 +0000";
layers = (
{
layerId = "EC678C9A-BAF7-4529-BA66-EDFBF106CBF7";
paths = (
{
closed = 1;
nodes = (
"161 735 LINE",
"161 206 LINE",
"98 206 LINE",
"76 735 LINE"
);
},
{
closed = 1;
nodes = (
"191 206 LINE",
"131 206 LINE",
"131 735 LINE",
"219 735 LINE"
);
},
{
closed = 1;
nodes = (
"183 133 OFFCURVE",
"213 99 OFFCURVE",
"213 69 CURVE SMOOTH",
"213 32 OFFCURVE",
"183 0 OFFCURVE",
"146 0 CURVE SMOOTH",
"109 0 OFFCURVE",
"79 32 OFFCURVE",
"79 69 CURVE SMOOTH",
"79 99 OFFCURVE",
"109 133 OFFCURVE",
"146 133 CURVE SMOOTH"
);
}
);
width = 312;
},
{
layerId = "5B189D8C-80C2-4E76-949E-52A655B49706";
paths = (
{
closed = 1;
nodes = (
"168 735 LINE",
"168 206 LINE",
"101 206 LINE",
"80 735 LINE"
);
},
{
closed = 1;
nodes = (
"219 206 LINE",
"146 206 LINE",
"146 735 LINE",
"242 735 LINE"
);
},
{
closed = 1;
nodes = (
"204 140 OFFCURVE",
"235 109 OFFCURVE",
"235 70 CURVE SMOOTH",
"235 31 OFFCURVE",
"204 0 OFFCURVE",
"165 0 CURVE SMOOTH",
"126 0 OFFCURVE",
"95 31 OFFCURVE",
"95 70 CURVE SMOOTH",
"95 109 OFFCURVE",
"126 140 OFFCURVE",
"165 140 CURVE SMOOTH"
);
}
);
width = 322;
}
);
unicode = 0021;
},
{
glyphname = question;
lastChange = "2021-05-02 02:27:51 +0000";
layers = (
{
layerId = "EC678C9A-BAF7-4529-BA66-EDFBF106CBF7";
paths = (
{
closed = 1;
nodes = (
"305 30 OFFCURVE",
"276 0 OFFCURVE",
"238 0 CURVE",
"202 0 OFFCURVE",
"171 30 OFFCURVE",
"171 66 CURVE",
"171 103 OFFCURVE",
"202 134 OFFCURVE",
"238 134 CURVE",
"276 134 OFFCURVE",
"305 103 OFFCURVE",
"305 66 CURVE"
);
},
{
closed = 1;
nodes = (
"221 362 OFFCURVE",
"250 388 OFFCURVE",
"268 405 CURVE",
"354 359 LINE",
"330 338 OFFCURVE",
"308 314 OFFCURVE",
"297 291 CURVE",
"286 267 OFFCURVE",
"286 243 OFFCURVE",
"286 209 CURVE",
"180 209 LINE",
"180 240 LINE",
"180 255 OFFCURVE",
"182 266 OFFCURVE",
"183 278 CURVE",
"185 290 OFFCURVE",
"194 301 OFFCURVE",
"198 312 CURVE",
"194 314 OFFCURVE",
"206 335 OFFCURVE",
"211 345 CURVE"
);
},
{
closed = 1;
nodes = (
"422 693 OFFCURVE",
"422 693 OFFCURVE",
"422 693 CURVE SMOOTH",
"497 617 OFFCURVE",
"511 508 OFFCURVE",
"357 362 CURVE SMOOTH",
"316 324 OFFCURVE",
"267 307 OFFCURVE",
"221 310 CURVE",
"183 278 LINE",
"185 290 OFFCURVE",
"188 304 OFFCURVE",
"192 314 CURVE SMOOTH",
"196 324 OFFCURVE",
"202 335 OFFCURVE",
"207 345 CURVE SMOOTH",
"217 362 OFFCURVE",
"242 389 OFFCURVE",
"260 406 CURVE SMOOTH",
"264 411 OFFCURVE",
"279 425 OFFCURVE",
"280 426 CURVE SMOOTH",
"379 514 OFFCURVE",
"380 581 OFFCURVE",
"338 623 CURVE SMOOTH",
"336 625 OFFCURVE",
"341 622 OFFCURVE",
"337 624 CURVE SMOOTH",
"290 663 OFFCURVE",
"205 664 OFFCURVE",
"151 618 CURVE SMOOTH",
"143 612 OFFCURVE",
"137 603 OFFCURVE",
"130 596 CURVE SMOOTH",
"122 587 OFFCURVE",
"117 578 OFFCURVE",
"111 570 CURVE",
"31 621 LINE",
"30 623 LINE",
"40 647 OFFCURVE",
"58 671 OFFCURVE",
"81 690 CURVE SMOOTH",
"160 765 OFFCURVE",
"291 773 OFFCURVE",
"378 726 CURVE SMOOTH",
"393 719 OFFCURVE",
"412 704 OFFCURVE",
"422 693 CURVE SMOOTH"
);
}
);
width = 536;
},
{
layerId = "5B189D8C-80C2-4E76-949E-52A655B49706";
paths = (
{
closed = 1;
nodes = (
"176 558 LINE",
"176 558 OFFCURVE",
"209 615 OFFCURVE",
"259 629 CURVE",
"262 630 OFFCURVE",
"318 650 OFFCURVE",
"365 622 CURVE",
"368 620 OFFCURVE",
"413 588 OFFCURVE",
"396 532 CURVE",
"395 529 OFFCURVE",
"383 488 OFFCURVE",
"327 440 CURVE",
"324 437 OFFCURVE",
"264 387 OFFCURVE",
"231 338 CURVE",
"230 336 OFFCURVE",
"209 307 OFFCURVE",
"205 265 CURVE",
"204 262 OFFCURVE",
"202 243 OFFCURVE",
"203 206 CURVE",
"205 206 OFFCURVE",
"332 206 OFFCURVE",
"332 206 CURVE",
"332 206 OFFCURVE",
"330 255 OFFCURVE",
"337 273 CURVE",
"338 275 OFFCURVE",
"345 303 OFFCURVE",
"369 323 CURVE",
"370 324 OFFCURVE",
"426 375 OFFCURVE",
"427 377 CURVE",
"429 379 OFFCURVE",
"498 442 OFFCURVE",
"519 512 CURVE",
"521 518 OFFCURVE",
"544 579 OFFCURVE",
"513 639 CURVE",
"512 641 OFFCURVE",
"491 692 OFFCURVE",
"432 725 CURVE",
"428 727 OFFCURVE",
"382 756 OFFCURVE",
"300 755 CURVE",
"296 754 OFFCURVE",
"240 753 OFFCURVE",
"195 731 CURVE",
"192 730 OFFCURVE",
"150 714 OFFCURVE",
"112 669 CURVE",
"110 666 OFFCURVE",
"91 645 OFFCURVE",
"80 619 CURVE"
);
},
{
closed = 1;
nodes = (
"350 35 OFFCURVE",
"315 0 OFFCURVE",
"273 0 CURVE SMOOTH",
"230 0 OFFCURVE",
"196 35 OFFCURVE",
"196 77 CURVE SMOOTH",
"196 120 OFFCURVE",
"230 154 OFFCURVE",
"273 154 CURVE SMOOTH",
"315 154 OFFCURVE",
"350 120 OFFCURVE",
"350 77 CURVE SMOOTH"
);
}
);
width = 609;
}
);
unicode = 003F;
},
{
glyphname = asterisk;
lastChange = "2021-05-02 16:37:30 +0000";
layers = (
{
layerId = "EC678C9A-BAF7-4529-BA66-EDFBF106CBF7";
paths = (
{
closed = 1;
nodes = (
"314 715 LINE",
"314 538 LINE",
"213 538 LINE",
"213 715 LINE"
);
},
{
closed = 1;
nodes = (
"87 627 LINE",
"257 572 LINE",
"222 480 LINE",
"59 535 LINE"
);
},
{
closed = 1;
nodes = (
"291 480 LINE",
"264 573 LINE",
"434 628 LINE",
"462 535 LINE"
);
},
{
closed = 1;
nodes = (
"178 320 LINE",
"97 384 LINE",
"198 528 LINE",
"287 462 LINE"
);
},
{
closed = 1;
nodes = (
"328 526 LINE",
"431 382 LINE",
"349 320 LINE",
"241 462 LINE"
);
},
{
closed = 1;
nodes = (
"305 552 LINE",
"305 469 LINE",
"223 469 LINE",
"223 552 LINE"
);
}
);
width = 521;
},
{
layerId = "5B189D8C-80C2-4E76-949E-52A655B49706";
paths = (
{
closed = 1;
nodes = (
"356 735 LINE",
"356 547 LINE",
"240 547 LINE",
"240 735 LINE"
);
},
{
closed = 1;
nodes = (
"117 647 LINE",
"298 590 LINE",
"262 482 LINE",
"81 539 LINE"
);
},
{
closed = 1;
nodes = (
"341 482 LINE",
"305 590 LINE",
"486 647 LINE",
"522 539 LINE"
);
},
{
closed = 1;
nodes = (
"217 309 LINE",
"125 373 LINE",
"240 526 LINE",
"334 461 LINE"
);
},
{
closed = 1;
nodes = (
"370 533 LINE",
"479 373 LINE",
"392 309 LINE",
"284 467 LINE"
);
},
{
closed = 1;
nodes = (
"341 562 LINE",
"341 476 LINE",
"254 476 LINE",
"254 562 LINE"
);
}
);
width = 600;
}
);
unicode = 002A;
},
{
glyphname = numbersign;
lastChange = "2021-05-02 02:36:07 +0000";
layers = (
{
layerId = "EC678C9A-BAF7-4529-BA66-EDFBF106CBF7";
paths = (
{
closed = 1;
nodes = (
"385 735 LINE",
"290 0 LINE",
"183 0 LINE",
"279 735 LINE"
);
},
{
closed = 1;
nodes = (
"684 735 LINE",
"589 0 LINE",
"482 0 LINE",
"578 735 LINE"
);
},
{
closed = 1;
nodes = (
"795 462 LINE",
"60 462 LINE",
"60 568 LINE",
"795 568 LINE"
);
},
{
closed = 1;
nodes = (
"795 174 LINE",
"60 174 LINE",
"60 279 LINE",
"795 279 LINE"
);
}
);
width = 855;
},
{
layerId = "5B189D8C-80C2-4E76-949E-52A655B49706";
paths = (
{
closed = 1;
nodes = (
"399 735 LINE",
"290 0 LINE",
"169 0 LINE",
"278 735 LINE"
);
},
{
closed = 1;
nodes = (
"704 735 LINE",
"595 0 LINE",
"473 0 LINE",
"582 735 LINE"
);
},
{
closed = 1;
nodes = (
"808 453 LINE",
"80 453 LINE",
"80 572 LINE",
"808 572 LINE"
);
},
{
closed = 1;
nodes = (
"808 171 LINE",
"80 171 LINE",
"80 290 LINE",
"808 290 LINE"
);
}
);
width = 888;
}
);
unicode = 0023;
},
{
glyphname = slash;
lastChange = "2021-05-02 16:21:35 +0000";
layers = (
{
layerId = "EC678C9A-BAF7-4529-BA66-EDFBF106CBF7";
paths = (
{
closed = 1;
nodes = (
"108 -148 LINE",
"3 -148 LINE",
"283 735 LINE",
"386 735 LINE"
);
}
);
width = 388;
},
{
layerId = "5B189D8C-80C2-4E76-949E-52A655B49706";
paths = (
{
closed = 1;
nodes = (
"177 -148 LINE",
"48 -148 LINE",
"328 735 LINE",
"458 735 LINE"
);
}
);
width = 502;
}
);
unicode = 002F;
},
{
glyphname = backslash;
lastChange = "2021-05-02 16:21:13 +0000";
layers = (
{
layerId = "EC678C9A-BAF7-4529-BA66-EDFBF106CBF7";
paths = (
{
closed = 1;
nodes = (
"104 735 LINE",
"384 -148 LINE",
"279 -148 LINE",
"1 735 LINE"
);
}
);
width = 388;
},
{
layerId = "5B189D8C-80C2-4E76-949E-52A655B49706";
paths = (
{
closed = 1;
nodes = (
"256 735 LINE",
"507 -148 LINE",
"377 -148 LINE",
"126 735 LINE"
);
}
);
width = 600;
}
);
unicode = 005C;
},
{
glyphname = parenleft;
lastChange = "2021-05-02 02:33:27 +0000";
layers = (
{
layerId = "EC678C9A-BAF7-4529-BA66-EDFBF106CBF7";
paths = (
{
closed = 1;
nodes = (
"187 81 OFFCURVE",
"156 214 OFFCURVE",
"156 362 CURVE SMOOTH",
"156 515 OFFCURVE",
"190 653 OFFCURVE",
"246 755 CURVE",
"152 755 LINE",
"87 663 OFFCURVE",
"44 522 OFFCURVE",
"44 362 CURVE SMOOTH",
"44 209 OFFCURVE",
"84 72 OFFCURVE",
"145 -20 CURVE",
"239 -20 LINE"
);
}
);
width = 276;
},
{
layerId = "5B189D8C-80C2-4E76-949E-52A655B49706";
paths = (
{
closed = 1;
nodes = (
"257 214 OFFCURVE",
"291 79 OFFCURVE",
"346 -20 CURVE",
"237 -20 LINE",
"173 70 OFFCURVE",
"132 208 OFFCURVE",
"132 360 CURVE SMOOTH",
"132 519 OFFCURVE",
"177 663 OFFCURVE",
"244 755 CURVE",
"352 755 LINE",
"293 652 OFFCURVE",
"257 514 OFFCURVE",
"257 362 CURVE SMOOTH"
);
}
);
width = 600;
}
);
unicode = 0028;
},
{
glyphname = parenright;
lastChange = "2021-05-02 02:34:49 +0000";
layers = (
{
layerId = "EC678C9A-BAF7-4529-BA66-EDFBF106CBF7";
paths = (
{
closed = 1;
nodes = (
"132 -20 LINE",
"193 72 OFFCURVE",
"232 208 OFFCURVE",
"232 361 CURVE SMOOTH",
"232 522 OFFCURVE",
"189 664 OFFCURVE",
"123 755 CURVE",
"30 755 LINE",
"86 653 OFFCURVE",
"120 514 OFFCURVE",
"120 361 CURVE SMOOTH",
"120 214 OFFCURVE",
"89 81 OFFCURVE",
"37 -20 CURVE"
);
}
);
width = 276;
},
{
layerId = "5B189D8C-80C2-4E76-949E-52A655B49706";
paths = (
{
closed = 1;
nodes = (
"300 519 OFFCURVE",
"256 661 OFFCURVE",
"186 755 CURVE",
"80 755 LINE",
"142 648 OFFCURVE",
"179 500 OFFCURVE",
"174 338 CURVE SMOOTH",
"170 201 OFFCURVE",
"136 75 OFFCURVE",
"85 -20 CURVE",
"194 -20 LINE",
"259 71 OFFCURVE",
"300 209 OFFCURVE",
"300 360 CURVE SMOOTH"
);
}
);
width = 383;
}
);
unicode = 0029;
},
{
glyphname = braceleft;
lastChange = "2021-05-02 16:17:17 +0000";
layers = (
{
layerId = "EC678C9A-BAF7-4529-BA66-EDFBF106CBF7";
paths = (
{
closed = 1;
nodes = (
"261 735 OFFCURVE",
"234 733 OFFCURVE",
"216 724 CURVE SMOOTH",
"154 688 OFFCURVE",
"160 641 OFFCURVE",
"157 615 CURVE SMOOTH",
"155 589 OFFCURVE",
"165 456 OFFCURVE",
"132 410 CURVE SMOOTH",
"104 370 OFFCURVE",
"67 367 OFFCURVE",
"58 367 CURVE SMOOTH",
"56 367 OFFCURVE",
"56 368 OFFCURVE",
"56 368 CURVE",
"56 368 OFFCURVE",
"56 368 OFFCURVE",
"56 295 CURVE",
"96 293 OFFCURVE",
"110 276 OFFCURVE",
"127 260 CURVE SMOOTH",
"145 245 OFFCURVE",
"157 195 OFFCURVE",
"157 93 CURVE SMOOTH",
"156 -10 OFFCURVE",
"168 -20 OFFCURVE",
"201 -50 CURVE SMOOTH",
"220 -69 OFFCURVE",
"257 -73 OFFCURVE",
"283 -73 CURVE SMOOTH",
"300 -73 OFFCURVE",
"326 -72 OFFCURVE",
"326 -72 CURVE",
"326 -72 OFFCURVE",
"326 -18 OFFCURVE",
"326 7 CURVE",
"319 6 OFFCURVE",
"309 6 OFFCURVE",
"300 6 CURVE SMOOTH",
"286 6 OFFCURVE",
"272 7 OFFCURVE",
"266 9 CURVE SMOOTH",
"247 18 OFFCURVE",
"250 27 OFFCURVE",
"248 46 CURVE SMOOTH",
"245 65 OFFCURVE",
"250 123 OFFCURVE",
"243 186 CURVE SMOOTH",
"232 287 OFFCURVE",
"195 318 OFFCURVE",
"178 332 CURVE",
"190 339 OFFCURVE",
"216 365 OFFCURVE",
"233 424 CURVE SMOOTH",
"250 482 OFFCURVE",
"245 538 OFFCURVE",
"247 591 CURVE SMOOTH",
"249 645 OFFCURVE",
"248 640 OFFCURVE",
"263 651 CURVE SMOOTH",
"271 657 OFFCURVE",
"290 658 OFFCURVE",
"304 658 CURVE SMOOTH",
"316 658 OFFCURVE",
"326 657 OFFCURVE",
"326 657 CURVE",
"326 657 OFFCURVE",
"327 697 OFFCURVE",
"327 735 CURVE",
"322 735 OFFCURVE",
"295 735 OFFCURVE",
"282 735 CURVE"
);
}
);
width = 396;
},
{
layerId = "5B189D8C-80C2-4E76-949E-52A655B49706";
paths = (
{
closed = 1;
nodes = (
"80 385 OFFCURVE",
"100 381 OFFCURVE",
"110 385 CURVE SMOOTH",
"110 385 OFFCURVE",
"130 386 OFFCURVE",
"141 406 CURVE SMOOTH",
"141 408 OFFCURVE",
"148 416 OFFCURVE",
"154 433 CURVE SMOOTH",
"154 434 OFFCURVE",
"160 457 OFFCURVE",
"163 494 CURVE SMOOTH",
"163 496 OFFCURVE",
"170 645 OFFCURVE",
"173 649 CURVE SMOOTH",
"174 653 OFFCURVE",
"186 704 OFFCURVE",
"237 723 CURVE SMOOTH",
"241 725 OFFCURVE",
"262 739 OFFCURVE",
"331 734 CURVE",
"331 727 OFFCURVE",
"331 649 OFFCURVE",
"331 649 CURVE",
"331 649 OFFCURVE",
"296 650 OFFCURVE",
"282 642 CURVE SMOOTH",
"280 642 OFFCURVE",
"268 639 OFFCURVE",
"268 627 CURVE SMOOTH",
"268 626 OFFCURVE",
"267 536 OFFCURVE",
"267 536 CURVE",
"267 536 OFFCURVE",
"270 467 OFFCURVE",
"252 410 CURVE SMOOTH",
"252 405 OFFCURVE",
"244 358 OFFCURVE",
"213 329 CURVE",
"214 327 OFFCURVE",
"244 297 OFFCURVE",
"255 244 CURVE SMOOTH",
"255 241 OFFCURVE",
"270 190 OFFCURVE",
"267 104 CURVE SMOOTH",
"267 99 OFFCURVE",
"267 65 OFFCURVE",
"267 65 CURVE",
"267 65 OFFCURVE",
"267 35 OFFCURVE",
"275 31 CURVE SMOOTH",
"276 29 OFFCURVE",
"278 26 OFFCURVE",
"331 28 CURVE",
"331 26 OFFCURVE",
"331 -76 OFFCURVE",
"331 -76 CURVE",
"331 -76 OFFCURVE",
"273 -79 OFFCURVE",
"248 -72 CURVE SMOOTH",
"245 -70 OFFCURVE",
"214 -61 OFFCURVE",
"190 -29 CURVE SMOOTH",
"189 -27 OFFCURVE",
"179 -16 OFFCURVE",
"170 15 CURVE SMOOTH",
"170 17 OFFCURVE",
"163 53 OFFCURVE",
"166 88 CURVE SMOOTH",
"166 91 OFFCURVE",
"166 172 OFFCURVE",
"160 194 CURVE SMOOTH",
"160 196 OFFCURVE",
"154 248 OFFCURVE",
"128 266 CURVE SMOOTH",
"127 268 OFFCURVE",
"113 279 OFFCURVE",
"97 282 CURVE SMOOTH",
"95 282 OFFCURVE",
"86 284 OFFCURVE",
"80 282 CURVE",
"80 284 OFFCURVE",
"80 385 OFFCURVE",
"80 385 CURVE"
);
}
);
width = 387;
}
);
unicode = 007B;
},
{
glyphname = braceright;
lastChange = "2021-05-02 16:12:50 +0000";
layers = (
{
layerId = "EC678C9A-BAF7-4529-BA66-EDFBF106CBF7";
paths = (
{
closed = 1;
nodes = (
"91 735 OFFCURVE",
"75 735 OFFCURVE",
"70 735 CURVE",
"70 697 OFFCURVE",
"70 658 OFFCURVE",
"70 658 CURVE",
"70 658 OFFCURVE",
"80 659 OFFCURVE",
"92 659 CURVE SMOOTH",
"106 659 OFFCURVE",
"125 658 OFFCURVE",
"133 652 CURVE SMOOTH",
"148 641 OFFCURVE",
"147 645 OFFCURVE",
"149 591 CURVE SMOOTH",
"151 538 OFFCURVE",
"146 482 OFFCURVE",
"163 424 CURVE SMOOTH",
"180 365 OFFCURVE",
"206 339 OFFCURVE",
"218 332 CURVE",
"201 318 OFFCURVE",
"164 287 OFFCURVE",
"153 186 CURVE SMOOTH",
"146 123 OFFCURVE",
"151 65 OFFCURVE",
"148 46 CURVE SMOOTH",
"146 27 OFFCURVE",
"145 19 OFFCURVE",
"130 9 CURVE SMOOTH",
"125 6 OFFCURVE",
"110 6 OFFCURVE",
"96 6 CURVE SMOOTH",
"87 6 OFFCURVE",
"77 6 OFFCURVE",
"70 7 CURVE",
"70 -18 OFFCURVE",
"70 -72 OFFCURVE",
"70 -72 CURVE",
"70 -72 OFFCURVE",
"86 -73 OFFCURVE",
"103 -73 CURVE SMOOTH",
"129 -73 OFFCURVE",
"166 -69 OFFCURVE",
"185 -50 CURVE SMOOTH",
"218 -20 OFFCURVE",
"230 -10 OFFCURVE",
"229 93 CURVE SMOOTH",
"229 195 OFFCURVE",
"241 245 OFFCURVE",
"259 260 CURVE SMOOTH",
"276 276 OFFCURVE",
"290 293 OFFCURVE",
"330 295 CURVE",
"330 368 OFFCURVE",
"330 368 OFFCURVE",
"330 368 CURVE",
"330 368 OFFCURVE",
"330 367 OFFCURVE",
"328 367 CURVE SMOOTH",
"319 367 OFFCURVE",
"282 370 OFFCURVE",
"254 410 CURVE SMOOTH",
"221 456 OFFCURVE",
"231 589 OFFCURVE",
"229 615 CURVE SMOOTH",
"226 641 OFFCURVE",
"232 688 OFFCURVE",
"170 724 CURVE SMOOTH",
"152 733 OFFCURVE",
"125 735 OFFCURVE",
"104 735 CURVE"
);
}
);
width = 396;
},
{
layerId = "5B189D8C-80C2-4E76-949E-52A655B49706";
paths = (
{
closed = 1;
nodes = (
"430 385 OFFCURVE",
"410 383 OFFCURVE",
"400 385 CURVE SMOOTH",
"399 385 OFFCURVE",
"378 386 OFFCURVE",
"368 406 CURVE SMOOTH",
"367 408 OFFCURVE",
"362 417 OFFCURVE",
"357 433 CURVE SMOOTH",
"356 435 OFFCURVE",
"349 457 OFFCURVE",
"347 496 CURVE SMOOTH",
"347 497 OFFCURVE",
"340 648 OFFCURVE",
"339 651 CURVE SMOOTH",
"338 655 OFFCURVE",
"324 703 OFFCURVE",
"271 725 CURVE SMOOTH",
"268 726 OFFCURVE",
"245 738 OFFCURVE",
"177 734 CURVE",
"177 727 OFFCURVE",
"177 651 OFFCURVE",
"177 651 CURVE",
"177 651 OFFCURVE",
"214 653 OFFCURVE",
"227 646 CURVE SMOOTH",
"229 644 OFFCURVE",
"239 640 OFFCURVE",
"239 627 CURVE SMOOTH",
"239 626 OFFCURVE",
"241 536 OFFCURVE",
"241 536 CURVE",
"241 536 OFFCURVE",
"238 469 OFFCURVE",
"255 409 CURVE SMOOTH",
"256 404 OFFCURVE",
"266 359 OFFCURVE",
"297 331 CURVE",
"296 328 OFFCURVE",
"266 297 OFFCURVE",
"253 244 CURVE SMOOTH",
"253 239 OFFCURVE",
"239 192 OFFCURVE",
"241 104 CURVE SMOOTH",
"241 101 OFFCURVE",
"241 65 OFFCURVE",
"241 65 CURVE",
"241 65 OFFCURVE",
"242 34 OFFCURVE",
"234 30 CURVE SMOOTH",
"232 29 OFFCURVE",
"231 25 OFFCURVE",
"177 26 CURVE",
"177 25 OFFCURVE",
"177 -76 OFFCURVE",
"177 -76 CURVE",
"177 -76 OFFCURVE",
"235 -79 OFFCURVE",
"260 -70 CURVE SMOOTH",
"262 -69 OFFCURVE",
"295 -61 OFFCURVE",
"318 -29 CURVE SMOOTH",
"320 -28 OFFCURVE",
"333 -17 OFFCURVE",
"341 14 CURVE SMOOTH",
"341 15 OFFCURVE",
"347 53 OFFCURVE",
"345 89 CURVE SMOOTH",
"346 92 OFFCURVE",
"345 172 OFFCURVE",
"350 195 CURVE SMOOTH",
"350 196 OFFCURVE",
"357 248 OFFCURVE",
"380 266 CURVE SMOOTH",
"381 267 OFFCURVE",
"396 279 OFFCURVE",
"413 281 CURVE SMOOTH",
"414 281 OFFCURVE",
"424 283 OFFCURVE",
"430 282 CURVE",
"430 283 OFFCURVE",
"430 385 OFFCURVE",
"430 385 CURVE"
);
}
);
width = 600;
}
);
unicode = 007D;
},
{
glyphname = bracketleft;
lastChange = "2021-05-02 16:25:02 +0000";
layers = (
{
layerId = "EC678C9A-BAF7-4529-BA66-EDFBF106CBF7";
paths = (
{
closed = 1;
nodes = (
"146 735 LINE",
"146 -170 LINE",
"31 -170 LINE",
"31 735 LINE"
);
},
{
closed = 1;
nodes = (
"248 636 LINE",
"31 636 LINE",
"31 735 LINE",
"248 735 LINE"
);
},
{
closed = 1;
nodes = (
"248 -170 LINE",
"31 -170 LINE",
"31 -79 LINE",
"248 -79 LINE"
);
}
);
width = 298;
},
{
layerId = "5B189D8C-80C2-4E76-949E-52A655B49706";
paths = (
{
closed = 1;
nodes = (
"249 735 LINE",
"249 -170 LINE",
"130 -170 LINE",
"130 735 LINE"
);
},
{
closed = 1;
nodes = (
"358 625 LINE",
"159 625 LINE",
"159 735 LINE",
"358 735 LINE"
);
},
{
closed = 1;
nodes = (
"358 -170 LINE",
"159 -170 LINE",
"159 -60 LINE",
"358 -60 LINE"
);
}
);
width = 600;
}
);
unicode = 005B;
},
{
glyphname = bracketright;
lastChange = "2021-05-02 16:30:15 +0000";
layers = (
{
layerId = "EC678C9A-BAF7-4529-BA66-EDFBF106CBF7";
paths = (
{
closed = 1;
nodes = (
"156 -170 LINE",
"156 735 LINE",
"271 735 LINE",
"271 -170 LINE"
);
},
{
closed = 1;
nodes = (
"50 -78 LINE",
"271 -78 LINE",
"271 -170 LINE",
"50 -170 LINE"
);
},
{
closed = 1;
nodes = (
"50 735 LINE",
"271 735 LINE",
"271 638 LINE",
"50 638 LINE"
);
}
);
width = 298;
},
{
layerId = "5B189D8C-80C2-4E76-949E-52A655B49706";
paths = (
{
closed = 1;
nodes = (
"191 735 LINE",
"191 -170 LINE",
"308 -170 LINE",
"308 735 LINE"
);
},
{
closed = 1;
nodes = (
"80 624 LINE",
"280 624 LINE",
"280 735 LINE",
"80 735 LINE"
);
},
{
closed = 1;
nodes = (
"80 -170 LINE",
"280 -170 LINE",
"280 -59 LINE",
"80 -59 LINE"
);
}
);
width = 388;
}
);
unicode = 005D;
},
{
glyphname = hyphen;
lastChange = "2021-05-02 16:33:58 +0000";
layers = (
{
layerId = "EC678C9A-BAF7-4529-BA66-EDFBF106CBF7";
paths = (
{
closed = 1;
nodes = (
"451 401 LINE",
"60 401 LINE",
"60 287 LINE",
"451 287 LINE"
);
}
);
width = 511;
},
{
layerId = "5B189D8C-80C2-4E76-949E-52A655B49706";
paths = (
{
closed = 1;
nodes = (
"451 417 LINE",
"60 417 LINE",
"60 284 LINE",
"451 284 LINE"
);
}
);
width = 511;
}
);
unicode = 002D;
},
{
glyphname = underscore;
lastChange = "2021-05-02 16:34:37 +0000";
layers = (
{
layerId = "EC678C9A-BAF7-4529-BA66-EDFBF106CBF7";
paths = (
{
closed = 1;
nodes = (
"468 -52 LINE",
"468 13 LINE",
"50 13 LINE",
"50 -52 LINE"
);
}
);
width = 518;
},
{
layerId = "5B189D8C-80C2-4E76-949E-52A655B49706";
paths = (
{
closed = 1;
nodes = (
"510 -86 LINE",
"510 0 LINE",
"91 0 LINE",
"91 -86 LINE"
);
}
);
width = 600;
}
);
unicode = 005F;
},
{
glyphname = quotedblleft;
lastChange = "2021-04-18 04:17:58 +0000";
layers = (
{
layerId = "EC678C9A-BAF7-4529-BA66-EDFBF106CBF7";
paths = (
{
closed = 1;
nodes = (
"173 523 LINE",
"208 735 LINE",
"144 735 LINE",
"60 523 LINE"
);
},
{
closed = 1;
nodes = (
"328 523 LINE",
"363 735 LINE",
"299 735 LINE",
"215 523 LINE"
);
}
);
width = 423;
},
{
layerId = "5B189D8C-80C2-4E76-949E-52A655B49706";
width = 600;
}
);
unicode = 201C;
},
{
glyphname = quotedblright;
lastChange = "2021-05-02 16:32:23 +0000";
layers = (
{
layerId = "EC678C9A-BAF7-4529-BA66-EDFBF106CBF7";
paths = (
{
closed = 1;
nodes = (
"98 735 LINE",
"60 523 LINE",
"127 523 LINE",
"213 735 LINE"
);
},
{
closed = 1;
nodes = (
"251 735 LINE",
"212 523 LINE",
"281 523 LINE",
"365 735 LINE"
);
},
{
closed = 1;
nodes = (
"98 735 LINE",
"60 523 LINE",
"127 523 LINE",
"213 735 LINE"
);
},
{
closed = 1;
nodes = (
"251 735 LINE",
"212 523 LINE",
"281 523 LINE",
"365 735 LINE"
);
}
);
width = 423;
},
{
layerId = "5B189D8C-80C2-4E76-949E-52A655B49706";
paths = (
{
closed = 1;
nodes = (
"149 735 LINE",
"109 500 LINE",
"183 500 LINE",
"263 735 LINE"
);
},
{
closed = 1;
nodes = (
"196 735 LINE",
"156 500 LINE",
"210 500 LINE",
"310 735 LINE"
);
},
{
closed = 1;
nodes = (
"344 735 LINE",
"304 500 LINE",
"371 500 LINE",
"451 735 LINE"
);
},
{
closed = 1;
nodes = (
"391 735 LINE",
"351 500 LINE",
"404 500 LINE",
"498 735 LINE"
);
}
);
width = 600;
}
);
unicode = 201D;
},
{
glyphname = quoteleft;
lastChange = "2021-04-18 04:23:44 +0000";
layers = (
{
layerId = "EC678C9A-BAF7-4529-BA66-EDFBF106CBF7";
paths = (
{
closed = 1;
nodes = (
"168 523 LINE",
"199 735 LINE",
"123 735 LINE",
"40 523 LINE"
);
}
);
width = 219;
},
{
layerId = "5B189D8C-80C2-4E76-949E-52A655B49706";
width = 600;
}
);
unicode = 2018;
},
{
glyphname = quoteright;
lastChange = "2021-04-18 04:14:53 +0000";
layers = (
{
layerId = "EC678C9A-BAF7-4529-BA66-EDFBF106CBF7";
paths = (
{
closed = 1;
nodes = (
"71 735 LINE",
"40 523 LINE",
"116 523 LINE",
"199 735 LINE"
);
}
);
width = 219;
},
{
layerId = "5B189D8C-80C2-4E76-949E-52A655B49706";
width = 600;
}
);
unicode = 2019;
},
{
glyphname = quotedbl;
lastChange = "2021-05-02 16:30:44 +0000";
layers = (
{
layerId = "EC678C9A-BAF7-4529-BA66-EDFBF106CBF7";
paths = (
{
closed = 1;
nodes = (
"173 523 LINE",
"208 735 LINE",
"142 735 LINE",
"58 523 LINE"
);
},
{
closed = 1;
nodes = (
"328 523 LINE",
"363 735 LINE",
"297 735 LINE",
"213 523 LINE"
);
}
);
width = 423;
},
{
layerId = "5B189D8C-80C2-4E76-949E-52A655B49706";
paths = (
{
closed = 1;
nodes = (
"457 500 LINE",
"497 735 LINE",
"424 735 LINE",
"343 500 LINE"
);
},
{
closed = 1;
nodes = (
"410 500 LINE",
"450 735 LINE",
"397 735 LINE",
"296 500 LINE"
);
},
{
closed = 1;
nodes = (
"262 500 LINE",
"303 735 LINE",
"229 735 LINE",
"155 500 LINE"
);
},
{
closed = 1;
nodes = (
"215 500 LINE",
"256 735 LINE",
"202 735 LINE",
"108 500 LINE"
);
}
);
width = 600;
}
);
unicode = 0022;
},
{
glyphname = quotesingle;
lastChange = "2021-04-25 06:23:21 +0000";
layers = (
{
layerId = "EC678C9A-BAF7-4529-BA66-EDFBF106CBF7";
paths = (
{
closed = 1;
nodes = (
"71 735 LINE",
"40 523 LINE",
"116 523 LINE",
"199 735 LINE"
);
}
);
width = 219;
},
{
layerId = "5B189D8C-80C2-4E76-949E-52A655B49706";
paths = (
{
closed = 1;
nodes = (
"230 735 LINE",
"199 534 LINE",
"262 534 LINE",
"331 735 LINE"
);
},
{
closed = 1;
nodes = (
"274 735 LINE",
"237 534 LINE",
"299 534 LINE",
"375 735 LINE"
);
}
);
width = 600;
}
);
unicode = 0027;
},
{
glyphname = dollar;
lastChange = "2021-02-20 04:05:58 +0000";
layers = (
{
layerId = "EC678C9A-BAF7-4529-BA66-EDFBF106CBF7";
paths = (
{
closed = 1;
nodes = (
"267 800 LINE",
"267 -92 LINE",
"347 -92 LINE",
"347 800 LINE"
);
},
{
closed = 1;
nodes = (
"304 735 OFFCURVE",
"293 734 OFFCURVE",
"282 734 CURVE SMOOTH",
"208 727 OFFCURVE",
"152 693 OFFCURVE",
"124 662 CURVE SMOOTH",
"95 633 OFFCURVE",
"70 587 OFFCURVE",
"71 542 CURVE SMOOTH",
"72 495 OFFCURVE",
"79 474 OFFCURVE",
"106 436 CURVE SMOOTH",
"130 397 OFFCURVE",
"188 367 OFFCURVE",
"219 354 CURVE SMOOTH",
"251 342 OFFCURVE",
"291 328 OFFCURVE",
"327 317 CURVE SMOOTH",
"363 304 OFFCURVE",
"404 282 OFFCURVE",
"425 251 CURVE SMOOTH",
"446 221 OFFCURVE",
"446 191 OFFCURVE",
"426 163 CURVE SMOOTH",
"406 135 OFFCURVE",
"373 118 OFFCURVE",
"337 113 CURVE SMOOTH",
"327 113 OFFCURVE",
"313 111 OFFCURVE",
"301 111 CURVE SMOOTH",
"271 111 OFFCURVE",
"237 116 OFFCURVE",
"212 130 CURVE SMOOTH",
"175 151 OFFCURVE",
"145 197 OFFCURVE",
"145 197 CURVE",
"145 197 OFFCURVE",
"88 167 OFFCURVE",
"50 146 CURVE",
"86 93 OFFCURVE",
"117 57 OFFCURVE",
"162 34 CURVE SMOOTH",
"206 13 OFFCURVE",
"253 6 OFFCURVE",
"281 6 CURVE SMOOTH",
"289 5 OFFCURVE",
"295 5 OFFCURVE",
"304 5 CURVE SMOOTH",
"330 5 OFFCURVE",
"362 8 OFFCURVE",
"402 20 CURVE SMOOTH",
"453 35 OFFCURVE",
"491 66 OFFCURVE",
"515 100 CURVE SMOOTH",
"540 133 OFFCURVE",
"555 186 OFFCURVE",
"548 238 CURVE SMOOTH",
"540 289 OFFCURVE",
"513 320 OFFCURVE",
"488 345 CURVE SMOOTH",
"463 369 OFFCURVE",
"423 389 OFFCURVE",
"401 398 CURVE SMOOTH",
"379 410 OFFCURVE",
"317 430 OFFCURVE",
"285 443 CURVE SMOOTH",
"268 451 OFFCURVE",
"197 470 OFFCURVE",
"184 517 CURVE SMOOTH",
"171 562 OFFCURVE",
"197 597 OFFCURVE",
"221 612 CURVE SMOOTH",
"243 626 OFFCURVE",
"272 634 OFFCURVE",
"305 634 CURVE SMOOTH",
"307 634 OFFCURVE",
"310 634 OFFCURVE",
"311 634 CURVE SMOOTH",
"348 632 OFFCURVE",
"365 621 OFFCURVE",
"388 607 CURVE SMOOTH",
"410 595 OFFCURVE",
"437 551 OFFCURVE",
"437 551 CURVE",
"532 595 LINE",
"532 595 OFFCURVE",
"532 595 OFFCURVE",
"519 620 CURVE SMOOTH",
"486 672 OFFCURVE",
"457 693 OFFCURVE",
"429 708 CURVE SMOOTH",
"407 720 OFFCURVE",
"369 735 OFFCURVE",
"312 735 CURVE"
);
}
);
width = 600;
},
{
layerId = "5B189D8C-80C2-4E76-949E-52A655B49706";
paths = (
{
closed = 1;
nodes = (
"355 600 LINE",
"353 600 LINE",
"341 598 OFFCURVE",
"330 595 OFFCURVE",
"321 590 CURVE",
"321 552 LINE",
"423 428 LINE",
"428 427 OFFCURVE",
"432 426 OFFCURVE",
"437 424 CURVE",
"437 447 LINE"
);
},
{
closed = 1;
nodes = (
"420 605 OFFCURVE",
"398 607 OFFCURVE",
"370 604 CURVE",
"365 603 OFFCURVE",
"359 602 OFFCURVE",
"353 600 CURVE",
"355 600 LINE",
"437 447 LINE",
"437 599 LINE"
);
},
{
closed = 1;
nodes = (
"408 432 OFFCURVE",
"411 431 OFFCURVE",
"415 430 CURVE",
"417 430 OFFCURVE",
"420 429 OFFCURVE",
"423 428 CURVE",
"321 552 LINE",
"321 466 LINE",
"350 451 OFFCURVE",
"376 444 OFFCURVE",
"404 433 CURVE"
);
},
{
closed = 1;
nodes = (
"325 305 OFFCURVE",
"332 303 OFFCURVE",
"338 301 CURVE",
"348 315 LINE",
"340 317 OFFCURVE",
"330 321 OFFCURVE",
"321 324 CURVE",
"321 306 LINE"
);
},
{
closed = 1;
nodes = (
"367 290 LINE",
"356 294 OFFCURVE",
"345 299 OFFCURVE",
"338 301 CURVE",
"321 284 LINE",
"321 284 LINE",
"324 284 OFFCURVE",
"326 284 OFFCURVE",
"329 284 CURVE"
);
},
{
closed = 1;
nodes = (
"321 284 LINE",
"338 301 LINE",
"332 303 OFFCURVE",
"325 305 OFFCURVE",
"321 306 CURVE"
);
},
{
closed = 1;
nodes = (
"321 253 LINE",
"371 250 LINE",
"373 281 LINE",
"359 282 OFFCURVE",
"344 283 OFFCURVE",
"329 284 CURVE",
"321 282 LINE"
);
},
{
closed = 1;
nodes = (
"321 253 LINE",
"321 238 LINE",
"337 237 OFFCURVE",
"350 236 OFFCURVE",
"365 236 CURVE",
"366 236 OFFCURVE",
"368 236 OFFCURVE",
"370 236 CURVE",
"371 250 LINE"
);
},
{
closed = 1;
nodes = (
"368 236 OFFCURVE",
"366 236 OFFCURVE",
"365 236 CURVE",
"350 236 OFFCURVE",
"337 237 OFFCURVE",
"321 238 CURVE",
"321 123 LINE",
"334 121 OFFCURVE",
"345 119 OFFCURVE",
"361 118 CURVE",
"370 236 LINE"
);
},
{
closed = 1;
nodes = (
"361 118 LINE",
"370 117 OFFCURVE",
"381 117 OFFCURVE",
"391 117 CURVE",
"399 117 OFFCURVE",
"406 118 OFFCURVE",
"415 120 CURVE",
"437 141 LINE",
"437 234 LINE",
"417 235 OFFCURVE",
"397 235 OFFCURVE",
"370 236 CURVE"
);
},
{
closed = 1;
nodes = (
"370 236 LINE",
"397 235 OFFCURVE",
"417 235 OFFCURVE",
"437 234 CURVE",
"437 245 LINE",
"371 250 LINE"
);
},
{
closed = 1;
nodes = (
"371 250 LINE",
"437 245 LINE",
"437 272 LINE",
"429 272 OFFCURVE",
"421 273 OFFCURVE",
"412 274 CURVE",
"401 277 OFFCURVE",
"387 278 OFFCURVE",
"373 281 CURVE"
);
},
{
closed = 1;
nodes = (
"344 283 OFFCURVE",
"359 282 OFFCURVE",
"373 281 CURVE",
"376 305 LINE",
"372 306 OFFCURVE",
"370 307 OFFCURVE",
"367 308 CURVE",
"367 308 LINE",
"367 308 LINE",
"367 308 LINE",
"360 309 OFFCURVE",
"355 313 OFFCURVE",
"348 315 CURVE",
"338 301 LINE",
"345 299 OFFCURVE",
"356 294 OFFCURVE",
"367 290 CURVE",
"329 284 LINE"
);
},
{
closed = 1;
nodes = (
"387 278 OFFCURVE",
"401 277 OFFCURVE",
"412 274 CURVE",
"421 273 OFFCURVE",
"429 272 OFFCURVE",
"437 272 CURVE",
"437 277 LINE",
"430 285 LINE",
"412 292 OFFCURVE",
"397 299 OFFCURVE",
"377 305 CURVE",
"376 305 LINE",
"373 281 LINE"
);
},
{
closed = 1;
nodes = (
"437 277 LINE",
"437 282 LINE",
"435 283 OFFCURVE",
"432 284 OFFCURVE",
"430 285 CURVE"
);
},
{
closed = 1;
nodes = (
"415 120 LINE",
"422 122 OFFCURVE",
"430 126 OFFCURVE",
"437 128 CURVE",
"437 141 LINE"
);
},
{
closed = 1;
nodes = (
"431 294 OFFCURVE",
"426 298 OFFCURVE",
"420 299 CURVE",
"430 285 LINE",
"432 284 OFFCURVE",
"435 283 OFFCURVE",
"437 282 CURVE",
"437 293 LINE"
);
},
{
closed = 1;
nodes = (
"437 822 LINE",
"437 735 LINE",
"478 728 OFFCURVE",
"512 713 OFFCURVE",
"542 692 CURVE",
"586 660 OFFCURVE",
"610 617 OFFCURVE",
"624 588 CURVE",
"518 542 LINE",
"500 569 OFFCURVE",
"473 600 OFFCURVE",
"437 614 CURVE",
"437 599 LINE",
"420 605 OFFCURVE",
"398 607 OFFCURVE",
"370 604 CURVE",
"365 603 OFFCURVE",
"359 602 OFFCURVE",
"353 600 CURVE",
"341 598 OFFCURVE",
"330 595 OFFCURVE",
"321 590 CURVE",
"321 611 LINE",
"308 606 OFFCURVE",
"297 598 OFFCURVE",
"289 590 CURVE",
"275 574 OFFCURVE",
"266 558 OFFCURVE",
"264 543 CURVE",
"259 502 OFFCURVE",
"282 484 OFFCURVE",
"313 465 CURVE",
"316 464 OFFCURVE",
"319 462 OFFCURVE",
"321 461 CURVE",
"321 466 LINE",
"350 451 OFFCURVE",
"376 444 OFFCURVE",
"404 433 CURVE",
"408 432 OFFCURVE",
"411 431 OFFCURVE",
"415 430 CURVE",
"417 430 OFFCURVE",
"420 429 OFFCURVE",
"423 428 CURVE",
"428 427 OFFCURVE",
"432 426 OFFCURVE",
"437 424 CURVE",
"442 423 OFFCURVE",
"447 420 OFFCURVE",
"452 417 CURVE",
"470 411 OFFCURVE",
"491 403 OFFCURVE",
"511 390 CURVE",
"528 380 OFFCURVE",
"546 367 OFFCURVE",
"565 352 CURVE",
"642 286 OFFCURVE",
"634 186 OFFCURVE",
"600 118 CURVE",
"569 58 OFFCURVE",
"511 5 OFFCURVE",
"437 -11 CURVE",
"437 -92 LINE",
"321 -92 LINE",
"321 -11 LINE",
"280 -4 OFFCURVE",
"245 8 OFFCURVE",
"214 27 CURVE",
"175 57 OFFCURVE",
"146 96 OFFCURVE",
"122 128 CURVE",
"122 128 LINE",
"121 130 OFFCURVE",
"120 131 OFFCURVE",
"119 135 CURVE",
"165 163 LINE",
"221 198 LINE",
"224 192 OFFCURVE",
"228 186 OFFCURVE",
"233 180 CURVE",
"233 180 OFFCURVE",
"234 180 OFFCURVE",
"234 179 CURVE",
"248 163 OFFCURVE",
"263 147 OFFCURVE",
"283 133 CURVE",
"294 126 OFFCURVE",
"306 120 OFFCURVE",
"321 117 CURVE",
"321 123 LINE",
"334 121 OFFCURVE",
"345 119 OFFCURVE",
"361 118 CURVE",
"370 117 OFFCURVE",
"381 117 OFFCURVE",
"391 117 CURVE",
"399 117 OFFCURVE",
"406 118 OFFCURVE",
"415 120 CURVE",
"422 122 OFFCURVE",
"430 126 OFFCURVE",
"437 128 CURVE",
"437 121 LINE",
"477 141 OFFCURVE",
"499 175 OFFCURVE",
"501 195 CURVE",
"501 195 OFFCURVE",
"501 196 OFFCURVE",
"501 197 CURVE",
"504 203 OFFCURVE",
"506 214 OFFCURVE",
"503 229 CURVE",
"501 237 OFFCURVE",
"499 245 OFFCURVE",
"492 253 CURVE",
"480 273 OFFCURVE",
"461 285 OFFCURVE",
"437 293 CURVE",
"431 294 OFFCURVE",
"426 298 OFFCURVE",
"420 299 CURVE",
"430 285 LINE",
"412 292 OFFCURVE",
"397 299 OFFCURVE",
"377 305 CURVE",
"376 305 LINE",
"372 306 OFFCURVE",
"370 307 OFFCURVE",
"367 308 CURVE",
"367 308 LINE",
"367 308 LINE",
"367 308 LINE",
"360 309 OFFCURVE",
"355 313 OFFCURVE",
"348 315 CURVE",
"340 317 OFFCURVE",
"330 321 OFFCURVE",
"321 324 CURVE",
"311 327 OFFCURVE",
"301 331 OFFCURVE",
"290 336 CURVE",
"273 345 OFFCURVE",
"250 354 OFFCURVE",
"228 368 CURVE",
"153 423 OFFCURVE",
"123 510 OFFCURVE",
"153 588 CURVE",
"177 657 OFFCURVE",
"239 714 OFFCURVE",
"321 735 CURVE",
"321 822 LINE"
);
},
{
closed = 1;
nodes = (
"321 284 LINE",
"321 284 LINE SMOOTH",
"324 284 OFFCURVE",
"332 285 OFFCURVE",
"329 284 CURVE SMOOTH",
"321 282 LINE",
"320 282 LINE",
"321 284 LINE"
);
}
);
width = 705;
}
);
unicode = 0024;
},
{
glyphname = plus;
lastChange = "2021-03-08 04:44:27 +0000";
layers = (
{
layerId = "EC678C9A-BAF7-4529-BA66-EDFBF106CBF7";
paths = (
{
closed = 1;
nodes = (
"277 629 LINE",
"277 81 LINE",
"370 81 LINE",
"370 629 LINE"
);
},
{
closed = 1;
nodes = (
"597 410 LINE",
"50 410 LINE",
"50 316 LINE",
"597 316 LINE"
);
}
);
width = 647;
},
{
layerId = "5B189D8C-80C2-4E76-949E-52A655B49706";
paths = (
{
closed = 1;
nodes = (
"263 629 LINE",
"263 81 LINE",
"396 81 LINE",
"396 629 LINE"
);
},
{
closed = 1;
nodes = (
"607 426 LINE",
"60 426 LINE",
"60 293 LINE",
"607 293 LINE"
);
}
);
width = 667;
}
);
unicode = 002B;
},
{
glyphname = equal;
lastChange = "2021-03-08 04:50:23 +0000";
layers = (
{
layerId = "EC678C9A-BAF7-4529-BA66-EDFBF106CBF7";
paths = (
{
closed = 1;
nodes = (
"617 441 LINE",
"70 441 LINE",
"70 363 LINE",
"617 363 LINE"
);
},
{
closed = 1;
nodes = (
"617 238 LINE",
"70 238 LINE",
"70 160 LINE",
"617 160 LINE"
);
}
);
width = 687;
},
{
layerId = "5B189D8C-80C2-4E76-949E-52A655B49706";
paths = (
{
closed = 1;
nodes = (
"617 419 LINE",
"70 419 LINE",
"70 295 LINE",
"617 295 LINE"
);
},
{
closed = 1;
nodes = (
"617 232 LINE",
"70 232 LINE",
"70 106 LINE",
"617 106 LINE"
);
}
);
width = 687;
}
);
unicode = 003D;
},
{
glyphname = greater;
lastChange = "2021-03-08 00:38:28 +0000";
layers = (
{
layerId = "EC678C9A-BAF7-4529-BA66-EDFBF106CBF7";
paths = (
{
closed = 1;
nodes = (
"72 156 LINE",
"549 363 LINE",
"549 265 LINE",
"70 51 LINE"
);
},
{
closed = 1;
nodes = (
"549 368 LINE",
"549 268 LINE",
"73 491 LINE",
"73 596 LINE"
);
}
);
width = 609;
},
{
layerId = "5B189D8C-80C2-4E76-949E-52A655B49706";
paths = (
{
closed = 1;
nodes = (
"81 34 LINE",
"557 236 LINE",
"557 238 LINE",
"413 301 LINE",
"85 174 LINE"
);
},
{
closed = 1;
nodes = (
"81 579 LINE",
"556 355 LINE",
"557 355 LINE",
"557 355 LINE",
"570 350 LINE",
"570 241 LINE",
"559 237 LINE",
"557 236 LINE",
"557 238 LINE",
"413 301 LINE",
"85 442 LINE"
);
}
);
width = 570;
}
);
unicode = 003E;
},
{
glyphname = less;
lastChange = "2021-03-08 00:39:57 +0000";
layers = (
{
layerId = "EC678C9A-BAF7-4529-BA66-EDFBF106CBF7";
paths = (
{
closed = 1;
nodes = (
"60 265 LINE",
"60 363 LINE",
"537 156 LINE",
"539 51 LINE"
);
},
{
closed = 1;
nodes = (
"536 491 LINE",
"60 268 LINE",
"60 368 LINE",
"536 596 LINE"
);
}
);
width = 609;
},
{
layerId = "5B189D8C-80C2-4E76-949E-52A655B49706";
paths = (
{
closed = 1;
nodes = (
"546 579 LINE",
"74 352 LINE",
"72 352 LINE",
"67 349 LINE",
"67 225 LINE",
"74 222 LINE",
"74 221 LINE",
"74 221 LINE",
"552 34 LINE",
"550 175 LINE",
"228 293 LINE",
"546 444 LINE"
);
}
);
width = 590;
}
);
unicode = 003C;
},
{
glyphname = asciitilde;
lastChange = "2021-03-08 00:18:08 +0000";
layers = (
{
layerId = "EC678C9A-BAF7-4529-BA66-EDFBF106CBF7";
paths = (
{
closed = 1;
nodes = (
"191 500 OFFCURVE",
"175 497 OFFCURVE",
"159 491 CURVE SMOOTH",
"128 478 OFFCURVE",
"98 455 OFFCURVE",
"73 414 CURVE SMOOTH",
"48 372 OFFCURVE",
"50 324 OFFCURVE",
"50 324 CURVE",
"50 324 OFFCURVE",
"83 324 OFFCURVE",
"112 324 CURVE SMOOTH",
"127 324 OFFCURVE",
"140 324 OFFCURVE",
"146 324 CURVE",
"146 345 OFFCURVE",
"155 361 OFFCURVE",
"161 372 CURVE SMOOTH",
"168 382 OFFCURVE",
"183 399 OFFCURVE",
"200 402 CURVE SMOOTH",
"202 402 OFFCURVE",
"204 402 OFFCURVE",
"205 402 CURVE SMOOTH",
"221 402 OFFCURVE",
"236 392 OFFCURVE",
"245 386 CURVE SMOOTH",
"256 380 OFFCURVE",
"274 365 OFFCURVE",
"303 343 CURVE SMOOTH",
"358 305 OFFCURVE",
"400 304 OFFCURVE",
"410 304 CURVE SMOOTH",
"410 304 OFFCURVE",
"411 304 OFFCURVE",
"411 304 CURVE SMOOTH",
"417 304 OFFCURVE",
"478 304 OFFCURVE",
"527 365 CURVE SMOOTH",
"577 425 OFFCURVE",
"572 489 OFFCURVE",
"572 489 CURVE",
"475 489 LINE",
"475 476 OFFCURVE",
"472 460 OFFCURVE",
"464 444 CURVE SMOOTH",
"457 428 OFFCURVE",
"433 401 OFFCURVE",
"411 401 CURVE SMOOTH",
"409 401 OFFCURVE",
"407 401 OFFCURVE",
"406 401 CURVE SMOOTH",
"381 405 OFFCURVE",
"357 423 OFFCURVE",
"330 444 CURVE SMOOTH",
"284 480 OFFCURVE",
"270 484 OFFCURVE",
"249 492 CURVE SMOOTH",
"238 496 OFFCURVE",
"223 500 OFFCURVE",
"206 500 CURVE"
);
}
);
width = 622;
},
{
layerId = "5B189D8C-80C2-4E76-949E-52A655B49706";
paths = (
{
closed = 1;
nodes = (
"213 304 LINE",
"213 304 OFFCURVE",
"210 339 OFFCURVE",
"256 363 CURVE SMOOTH",
"259 363 OFFCURVE",
"279 375 OFFCURVE",
"320 351 CURVE SMOOTH",
"322 350 OFFCURVE",
"343 339 OFFCURVE",
"351 332 CURVE SMOOTH",
"354 330 OFFCURVE",
"395 299 OFFCURVE",
"453 278 CURVE SMOOTH",
"456 276 OFFCURVE",
"519 252 OFFCURVE",
"585 278 CURVE SMOOTH",
"587 281 OFFCURVE",
"643 296 OFFCURVE",
"685 359 CURVE SMOOTH",
"688 362 OFFCURVE",
"724 410 OFFCURVE",
"722 471 CURVE",
"693 471 OFFCURVE",
"589 471 OFFCURVE",
"589 471 CURVE",
"589 471 OFFCURVE",
"590 436 OFFCURVE",
"551 410 CURVE SMOOTH",
"550 408 OFFCURVE",
"527 386 OFFCURVE",
"476 412 CURVE SMOOTH",
"473 412 OFFCURVE",
"432 438 OFFCURVE",
"430 439 CURVE SMOOTH",
"428 440 OFFCURVE",
"378 478 OFFCURVE",
"325 493 CURVE SMOOTH",
"322 494 OFFCURVE",
"268 512 OFFCURVE",
"200 484 CURVE SMOOTH",
"198 481 OFFCURVE",
"142 461 OFFCURVE",
"103 394 CURVE SMOOTH",
"102 391 OFFCURVE",
"79 353 OFFCURVE",
"80 304 CURVE"
);
}
);
width = 772;
}
);
unicode = 007E;
},
{
glyphname = asciicircum;
lastChange = "2021-03-08 00:19:51 +0000";
layers = (
{
layerId = "EC678C9A-BAF7-4529-BA66-EDFBF106CBF7";
paths = (
{
closed = 1;
nodes = (
"171 321 LINE",
"359 735 LINE",
"265 735 LINE",
"78 321 LINE"
);
},
{
closed = 1;
nodes = (
"365 735 LINE",
"268 735 LINE",
"452 321 LINE",
"552 321 LINE"
);
}
);
width = 630;
},
{
layerId = "5B189D8C-80C2-4E76-949E-52A655B49706";
paths = (
{
closed = 1;
nodes = (
"167 321 LINE",
"350 735 LINE",
"234 735 LINE",
"49 321 LINE"
);
},
{
closed = 1;
nodes = (
"377 735 LINE",
"259 735 LINE",
"437 321 LINE",
"555 321 LINE"
);
}
);
width = 600;
}
);
unicode = 005E;
},
{
glyphname = percent;
lastChange = "2021-03-08 00:22:33 +0000";
layers = (
{
layerId = "EC678C9A-BAF7-4529-BA66-EDFBF106CBF7";
paths = (
{
closed = 1;
nodes = (
"790 735 LINE",
"237 -45 LINE",
"136 -45 LINE",
"688 735 LINE"
);
},
{
closed = 1;
nodes = (
"349 735 OFFCURVE",
"430 655 OFFCURVE",
"430 557 CURVE",
"430 457 OFFCURVE",
"349 377 OFFCURVE",
"251 377 CURVE",
"152 377 OFFCURVE",
"73 457 OFFCURVE",
"73 557 CURVE",
"73 655 OFFCURVE",
"152 735 OFFCURVE",
"251 735 CURVE"
);
},
{
closed = 1;
nodes = (
"161 498 OFFCURVE",
"199 457 OFFCURVE",
"252 457 CURVE",
"308 457 OFFCURVE",
"349 499 OFFCURVE",
"349 552 CURVE",
"349 605 OFFCURVE",
"308 647 OFFCURVE",
"252 647 CURVE",
"199 647 OFFCURVE",
"161 607 OFFCURVE",
"161 552 CURVE"
);
},
{
closed = 1;
nodes = (
"758 312 OFFCURVE",
"838 233 OFFCURVE",
"838 133 CURVE",
"838 34 OFFCURVE",
"758 -45 OFFCURVE",
"659 -45 CURVE",
"562 -45 OFFCURVE",
"480 34 OFFCURVE",
"480 133 CURVE",
"480 233 OFFCURVE",
"562 312 OFFCURVE",
"659 312 CURVE"
);
},
{
closed = 1;
nodes = (
"568 74 OFFCURVE",
"606 34 OFFCURVE",
"661 34 CURVE SMOOTH",
"715 34 OFFCURVE",
"758 77 OFFCURVE",
"758 130 CURVE SMOOTH",
"758 183 OFFCURVE",
"715 224 OFFCURVE",
"661 224 CURVE SMOOTH",
"606 224 OFFCURVE",
"568 184 OFFCURVE",
"568 130 CURVE SMOOTH"
);
}
);
width = 911;
},
{
layerId = "5B189D8C-80C2-4E76-949E-52A655B49706";
paths = (
{
closed = 1;
nodes = (
"347 377 OFFCURVE",
"429 457 OFFCURVE",
"429 557 CURVE",
"429 656 OFFCURVE",
"347 735 OFFCURVE",
"250 735 CURVE",
"150 735 OFFCURVE",
"71 656 OFFCURVE",
"71 557 CURVE",
"71 457 OFFCURVE",
"150 377 OFFCURVE",
"250 377 CURVE"
);
},
{
closed = 1;
nodes = (
"206 473 OFFCURVE",
"173 508 OFFCURVE",
"173 553 CURVE",
"173 597 OFFCURVE",
"206 631 OFFCURVE",
"253 631 CURVE",
"298 631 OFFCURVE",
"333 596 OFFCURVE",
"333 553 CURVE",
"333 509 OFFCURVE",
"298 473 OFFCURVE",
"253 473 CURVE"
);
},
{
closed = 1;
nodes = (
"758 -45 OFFCURVE",
"837 34 OFFCURVE",
"837 133 CURVE",
"837 231 OFFCURVE",
"758 312 OFFCURVE",
"657 312 CURVE",
"559 312 OFFCURVE",
"479 231 OFFCURVE",
"479 133 CURVE",
"479 34 OFFCURVE",
"559 -45 OFFCURVE",
"657 -45 CURVE"
);
},
{
closed = 1;
nodes = (
"614 49 OFFCURVE",
"582 84 OFFCURVE",
"582 130 CURVE",
"582 175 OFFCURVE",
"614 210 OFFCURVE",
"660 210 CURVE",
"705 210 OFFCURVE",
"740 174 OFFCURVE",
"740 130 CURVE",
"740 85 OFFCURVE",
"705 49 OFFCURVE",
"660 49 CURVE"
);
},
{
closed = 1;
nodes = (
"667 735 LINE",
"116 -45 LINE",
"248 -45 LINE",
"800 735 LINE"
);
}
);
width = 917;
}
);
unicode = 0025;
},
{
glyphname = at;
lastChange = "2021-03-08 00:24:02 +0000";
layers = (
{
layerId = "EC678C9A-BAF7-4529-BA66-EDFBF106CBF7";
paths = (
{
closed = 1;
nodes = (
"444 550 OFFCURVE",
"438 550 OFFCURVE",
"428 550 CURVE",
"348 544 OFFCURVE",
"276 517 OFFCURVE",
"208 468 CURVE",
"143 416 OFFCURVE",
"104 358 OFFCURVE",
"80 307 CURVE",
"58 258 OFFCURVE",
"53 215 OFFCURVE",
"50 163 CURVE",
"50 114 OFFCURVE",
"73 8 OFFCURVE",
"157 -50 CURVE",
"232 -102 OFFCURVE",
"289 -108 OFFCURVE",
"346 -108 CURVE",
"351 -108 OFFCURVE",
"357 -108 OFFCURVE",
"366 -108 CURVE",
"428 -108 OFFCURVE",
"494 -80 OFFCURVE",
"494 -80 CURVE",
"483 -25 LINE",
"483 -25 OFFCURVE",
"476 -25 OFFCURVE",
"441 -35 CURVE",
"422 -41 OFFCURVE",
"393 -44 OFFCURVE",
"363 -44 CURVE",
"331 -44 OFFCURVE",
"298 -41 OFFCURVE",
"270 -32 CURVE",
"217 -11 OFFCURVE",
"166 19 OFFCURVE",
"140 90 CURVE",
"110 163 OFFCURVE",
"136 246 OFFCURVE",
"136 246 CURVE",
"136 246 OFFCURVE",
"154 319 OFFCURVE",
"217 380 CURVE",
"280 444 OFFCURVE",
"337 465 OFFCURVE",
"375 474 CURVE",
"399 479 OFFCURVE",
"422 483 OFFCURVE",
"444 483 CURVE",
"455 483 OFFCURVE",
"470 479 OFFCURVE",
"486 479 CURVE",
"518 474 OFFCURVE",
"577 453 OFFCURVE",
"613 406 CURVE",
"652 358 OFFCURVE",
"658 319 OFFCURVE",
"661 294 CURVE",
"664 266 OFFCURVE",
"661 197 OFFCURVE",
"638 148 CURVE",
"613 103 OFFCURVE",
"584 103 OFFCURVE",
"580 103 CURVE",
"580 103 OFFCURVE",
"580 103 OFFCURVE",
"580 103 CURVE",
"580 103 OFFCURVE",
"580 103 OFFCURVE",
"580 103 CURVE",
"577 103 OFFCURVE",
"551 103 OFFCURVE",
"540 127 CURVE",
"527 154 OFFCURVE",
"540 215 OFFCURVE",
"540 215 CURVE",
"569 374 LINE",
"497 374 LINE",
"492 343 LINE",
"492 343 OFFCURVE",
"467 374 OFFCURVE",
"407 380 CURVE",
"402 380 OFFCURVE",
"396 380 OFFCURVE",
"393 380 CURVE",
"339 380 OFFCURVE",
"295 355 OFFCURVE",
"259 324 CURVE",
"222 288 OFFCURVE",
"190 230 OFFCURVE",
"199 163 CURVE",
"211 100 OFFCURVE",
"265 53 OFFCURVE",
"331 53 CURVE",
"334 53 OFFCURVE",
"334 53 OFFCURVE",
"337 53 CURVE",
"399 53 OFFCURVE",
"450 84 OFFCURVE",
"479 121 CURVE",
"488 84 OFFCURVE",
"521 41 OFFCURVE",
"580 41 CURVE",
"587 41 OFFCURVE",
"593 41 OFFCURVE",
"596 41 CURVE",
"667 51 OFFCURVE",
"703 103 OFFCURVE",
"715 130 CURVE",
"726 154 OFFCURVE",
"733 191 OFFCURVE",
"736 221 CURVE",
"742 251 OFFCURVE",
"739 294 OFFCURVE",
"736 319 CURVE",
"729 343 OFFCURVE",
"715 413 OFFCURVE",
"658 471 CURVE",
"605 522 OFFCURVE",
"523 550 OFFCURVE",
"453 550 CURVE"
);
},
{
closed = 1;
nodes = (
"402 315 OFFCURVE",
"453 312 OFFCURVE",
"461 260 CURVE SMOOTH",
"473 206 OFFCURVE",
"444 160 OFFCURVE",
"428 139 CURVE SMOOTH",
"414 121 OFFCURVE",
"375 96 OFFCURVE",
"334 109 CURVE SMOOTH",
"295 124 OFFCURVE",
"289 178 OFFCURVE",
"289 178 CURVE",
"289 178 OFFCURVE",
"283 234 OFFCURVE",
"324 279 CURVE SMOOTH",
"348 303 OFFCURVE",
"381 319 OFFCURVE",
"402 315 CURVE"
);
}
);
width = 789;
},
{
layerId = "5B189D8C-80C2-4E76-949E-52A655B49706";
paths = (
{
closed = 1;
nodes = (
"532 -70 LINE",
"532 -70 OFFCURVE",
"476 -90 OFFCURVE",
"421 -94 CURVE",
"419 -95 OFFCURVE",
"348 -103 OFFCURVE",
"278 -84 CURVE",
"275 -83 OFFCURVE",
"216 -70 OFFCURVE",
"156 -14 CURVE",
"152 -10 OFFCURVE",
"100 38 OFFCURVE",
"85 116 CURVE",
"84 121 OFFCURVE",
"68 196 OFFCURVE",
"98 282 CURVE",
"100 286 OFFCURVE",
"123 357 OFFCURVE",
"174 411 CURVE",
"178 415 OFFCURVE",
"211 462 OFFCURVE",
"306 512 CURVE",
"310 514 OFFCURVE",
"396 556 OFFCURVE",
"504 553 CURVE",
"510 553 OFFCURVE",
"594 552 OFFCURVE",
"665 496 CURVE",
"669 493 OFFCURVE",
"711 466 OFFCURVE",
"750 386 CURVE",
"753 379 OFFCURVE",
"786 306 OFFCURVE",
"767 203 CURVE",
"766 199 OFFCURVE",
"750 112 OFFCURVE",
"691 76 CURVE",
"688 71 OFFCURVE",
"631 35 OFFCURVE",
"568 63 CURVE",
"565 65 OFFCURVE",
"529 81 OFFCURVE",
"516 126 CURVE",
"515 125 OFFCURVE",
"478 82 OFFCURVE",
"423 70 CURVE",
"421 69 OFFCURVE",
"354 51 OFFCURVE",
"310 80 CURVE",
"307 82 OFFCURVE",
"258 102 OFFCURVE",
"246 173 CURVE",
"246 175 OFFCURVE",
"236 235 OFFCURVE",
"274 285 CURVE",
"277 287 OFFCURVE",
"315 345 OFFCURVE",
"373 362 CURVE",
"375 363 OFFCURVE",
"408 376 OFFCURVE",
"458 369 CURVE",
"463 368 OFFCURVE",
"498 363 OFFCURVE",
"522 341 CURVE",
"523 345 OFFCURVE",
"526 367 OFFCURVE",
"526 367 CURVE",
"609 367 LINE",
"579 203 LINE",
"579 203 OFFCURVE",
"568 143 OFFCURVE",
"590 126 CURVE",
"592 125 OFFCURVE",
"615 104 OFFCURVE",
"643 132 CURVE",
"646 134 OFFCURVE",
"672 159 OFFCURVE",
"682 223 CURVE",
"683 228 OFFCURVE",
"694 288 OFFCURVE",
"681 317 CURVE",
"680 323 OFFCURVE",
"665 386 OFFCURVE",
"618 420 CURVE",
"614 424 OFFCURVE",
"578 456 OFFCURVE",
"520 468 CURVE",
"515 469 OFFCURVE",
"452 486 OFFCURVE",
"383 460 CURVE",
"379 459 OFFCURVE",
"297 435 OFFCURVE",
"244 378 CURVE",
"242 375 OFFCURVE",
"181 322 OFFCURVE",
"169 242 CURVE",
"168 238 OFFCURVE",
"159 178 OFFCURVE",
"170 140 CURVE",
"171 137 OFFCURVE",
"181 87 OFFCURVE",
"219 47 CURVE",
"222 45 OFFCURVE",
"250 10 OFFCURVE",
"310 -7 CURVE",
"314 -8 OFFCURVE",
"344 -21 OFFCURVE",
"412 -15 CURVE",
"417 -14 OFFCURVE",
"476 -7 OFFCURVE",
"513 13 CURVE"
);
},
{
closed = 1;
nodes = (
"416 186 OFFCURVE",
"421 186 OFFCURVE",
"428 186 CURVE",
"434 186 OFFCURVE",
"439 186 OFFCURVE",
"439 186 CURVE",
"439 186 OFFCURVE",
"434 186 OFFCURVE",
"428 186 CURVE",
"421 186 OFFCURVE",
"416 186 OFFCURVE",
"416 186 CURVE"
);
},
{
closed = 1;
nodes = (
"338 192 OFFCURVE",
"342 147 OFFCURVE",
"390 141 CURVE SMOOTH",
"394 141 OFFCURVE",
"439 133 OFFCURVE",
"470 182 CURVE SMOOTH",
"471 185 OFFCURVE",
"495 223 OFFCURVE",
"477 261 CURVE SMOOTH",
"476 264 OFFCURVE",
"459 301 OFFCURVE",
"410 290 CURVE SMOOTH",
"406 289 OFFCURVE",
"377 283 OFFCURVE",
"354 251 CURVE SMOOTH",
"352 249 OFFCURVE",
"334 222 OFFCURVE",
"338 192 CURVE"
);
}
);
width = 853;
}
);
unicode = 0040;
},
{
glyphname = ampersand;
lastChange = "2021-03-08 00:25:38 +0000";
layers = (
{
layerId = "EC678C9A-BAF7-4529-BA66-EDFBF106CBF7";
paths = (
{
closed = 1;
nodes = (
"247 735 OFFCURVE",
"244 735 OFFCURVE",
"239 735 CURVE",
"122 732 OFFCURVE",
"84 667 OFFCURVE",
"71 584 CURVE",
"59 503 OFFCURVE",
"113 445 OFFCURVE",
"177 391 CURVE",
"71 318 OFFCURVE",
"12 261 OFFCURVE",
"35 144 CURVE",
"55 40 OFFCURVE",
"163 0 OFFCURVE",
"246 0 CURVE",
"256 0 OFFCURVE",
"262 -1 OFFCURVE",
"276 1 CURVE",
"359 12 OFFCURVE",
"443 100 OFFCURVE",
"443 100 CURVE",
"535 8 LINE",
"670 8 LINE",
"514 176 LINE",
"602 263 LINE",
"602 404 LINE",
"445 247 LINE",
"445 247 OFFCURVE",
"359 340 OFFCURVE",
"320 383 CURVE",
"341 397 OFFCURVE",
"419 458 OFFCURVE",
"437 500 CURVE",
"465 571 OFFCURVE",
"440 626 OFFCURVE",
"424 652 CURVE",
"409 676 OFFCURVE",
"361 735 OFFCURVE",
"250 735 CURVE"
);
},
{
closed = 1;
nodes = (
"365 178 LINE",
"365 178 OFFCURVE",
"301 119 OFFCURVE",
"286 109 CURVE",
"270 100 OFFCURVE",
"208 60 OFFCURVE",
"143 135 CURVE",
"109 180 OFFCURVE",
"128 236 OFFCURVE",
"152 258 CURVE",
"174 280 OFFCURVE",
"232 325 OFFCURVE",
"232 325 CURVE"
);
},
{
closed = 1;
nodes = (
"254 441 OFFCURVE",
"184 509 OFFCURVE",
"171 530 CURVE SMOOTH",
"157 551 OFFCURVE",
"157 619 OFFCURVE",
"219 642 CURVE SMOOTH",
"256 655 OFFCURVE",
"330 647 OFFCURVE",
"348 581 CURVE SMOOTH",
"357 540 OFFCURVE",
"342 521 OFFCURVE",
"321 499 CURVE SMOOTH",
"299 477 OFFCURVE",
"254 441 OFFCURVE",
"254 441 CURVE"
);
}
);
width = 699;
},
{
layerId = "5B189D8C-80C2-4E76-949E-52A655B49706";
paths = (
{
closed = 1;
nodes = (
"730 0 LINE",
"568 177 LINE",
"641 252 LINE",
"641 406 LINE",
"492 258 LINE",
"374 377 LINE",
"374 377 OFFCURVE",
"442 429 OFFCURVE",
"471 473 CURVE",
"471 473 OFFCURVE",
"510 532 OFFCURVE",
"486 628 CURVE",
"484 637 OFFCURVE",
"470 696 OFFCURVE",
"404 721 CURVE SMOOTH",
"397 723 OFFCURVE",
"332 745 OFFCURVE",
"249 731 CURVE",
"238 727 OFFCURVE",
"193 721 OFFCURVE",
"156 673 CURVE",
"151 666 OFFCURVE",
"128 642 OFFCURVE",
"121 570 CURVE",
"121 570 OFFCURVE",
"115 517 OFFCURVE",
"139 473 CURVE",
"141 466 OFFCURVE",
"182 415 OFFCURVE",
"220 391 CURVE",
"212 384 OFFCURVE",
"152 348 OFFCURVE",
"124 311 CURVE",
"118 303 OFFCURVE",
"80 258 OFFCURVE",
"80 199 CURVE",
"80 199 OFFCURVE",
"80 140 OFFCURVE",
"94 111 CURVE",
"106 89 OFFCURVE",
"121 60 OFFCURVE",
"165 30 CURVE SMOOTH",
"165 30 OFFCURVE",
"192 5 OFFCURVE",
"271 -5 CURVE",
"271 -5 OFFCURVE",
"339 -12 OFFCURVE",
"389 18 CURVE",
"389 18 OFFCURVE",
"434 37 OFFCURVE",
"486 97 CURVE",
"492 89 OFFCURVE",
"574 0 OFFCURVE",
"574 0 CURVE"
);
},
{
closed = 1;
nodes = (
"247 503 OFFCURVE",
"236 555 OFFCURVE",
"236 555 CURVE",
"234 593 OFFCURVE",
"241 608 OFFCURVE",
"250 619 CURVE SMOOTH",
"288 653 OFFCURVE",
"335 638 OFFCURVE",
"343 634 CURVE",
"392 610 OFFCURVE",
"386 560 OFFCURVE",
"386 555 CURVE",
"370 505 OFFCURVE",
"309 466 OFFCURVE",
"309 466 CURVE"
);
},
{
closed = 1;
nodes = (
"405 175 LINE",
"405 175 OFFCURVE",
"350 101 OFFCURVE",
"287 101 CURVE SMOOTH",
"280 101 OFFCURVE",
"248 100 OFFCURVE",
"213 141 CURVE SMOOTH",
"207 147 OFFCURVE",
"178 183 OFFCURVE",
"213 231 CURVE SMOOTH",
"213 231 OFFCURVE",
"240 257 OFFCURVE",
"294 300 CURVE"
);
}
);
width = 680;
}
);
unicode = 0026;
},
{
glyphname = bar;
lastChange = "2021-03-08 00:28:05 +0000";
layers = (
{
layerId = "EC678C9A-BAF7-4529-BA66-EDFBF106CBF7";
paths = (
{
closed = 1;
nodes = (
"70 758 LINE",
"70 -84 LINE",
"168 -84 LINE",
"168 758 LINE"
);
}
);
width = 238;
},
{
layerId = "5B189D8C-80C2-4E76-949E-52A655B49706";
paths = (
{
closed = 1;
nodes = (
"216 758 LINE",
"216 -84 LINE",
"359 -84 LINE",
"359 758 LINE"
);
}
);
width = 600;
}
);
unicode = 007C;
},
{
glyphname = grave;
lastChange = "2021-03-08 00:34:12 +0000";
layers = (
{
layerId = "EC678C9A-BAF7-4529-BA66-EDFBF106CBF7";
paths = (
{
closed = 1;
nodes = (
"167 788 LINE",
"248 671 LINE",
"167 671 LINE",
"60 788 LINE"
);
}
